<svg width="38" height="38" viewBox="0 0 38 38" fill="none" xmlns="http://www.w3.org/2000/svg">
<path d="M25.7135 12.306L12.2866 25.7134M12.2866 12.2865L25.7135 25.7134M19 1C15.4399 1 11.9598 2.05568 8.99974 4.03355C6.03966 6.01141 3.73255 8.82263 2.37018 12.1117C1.0078 15.4008 0.651339 19.02 1.34587 22.5116C2.04041 26.0033 3.75474 29.2106 6.27209 31.7279C8.78943 34.2453 11.9967 35.9596 15.4884 36.6541C18.98 37.3487 22.5992 36.9922 25.8883 35.6298C29.1774 34.2674 31.9886 31.9603 33.9665 29.0003C35.9443 26.0402 37 22.5601 37 19C36.999 14.2264 35.1022 9.64865 31.7268 6.27322C28.3514 2.89779 23.7736 1.00103 19 1Z" stroke="white" stroke-linecap="round" stroke-linejoin="round"/>
</svg>