<svg width="24" height="24" viewBox="0 0 24 24" fill="none" xmlns="http://www.w3.org/2000/svg">
<path d="M12 0C9.62661 0 7.30654 0.703788 5.33315 2.02236C3.35976 3.34094 1.82169 5.21508 0.913435 7.4078C0.00518411 9.60051 -0.232456 12.0133 0.230567 14.3411C0.693589 16.6689 1.83648 18.807 3.51471 20.4853C5.19294 22.1635 7.33113 23.3064 9.6589 23.7694C11.9867 24.2324 14.3995 23.9948 16.5922 23.0865C18.7849 22.1783 20.659 20.6402 21.9776 18.6668C23.2962 16.6934 24 14.3734 24 12C23.9993 8.8176 22.7348 5.76573 20.4846 3.51543C18.2343 1.26513 15.1824 0.000644928 12 0ZM12 19.58C10.4979 19.58 9.02959 19.1346 7.78067 18.3001C6.53175 17.4656 5.55834 16.2794 4.98352 14.8917C4.40871 13.504 4.25831 11.977 4.55135 10.5038C4.84439 9.03057 5.5677 7.67735 6.62982 6.61523C7.69194 5.55311 9.04516 4.8298 10.5184 4.53676C11.9916 4.24373 13.5186 4.39412 14.9063 4.96894C16.294 5.54375 17.4801 6.51717 18.3146 7.76609C19.1491 9.01501 19.5946 10.4833 19.5946 11.9854C19.5926 13.999 18.7919 15.9296 17.368 17.3534C15.9442 18.7773 14.0136 19.578 12 19.58ZM12 6.03041C10.8222 6.03041 9.67086 6.37966 8.69157 7.034C7.71227 7.68835 6.94901 8.61839 6.49829 9.70652C6.04757 10.7947 5.92964 11.992 6.15941 13.1472C6.38919 14.3023 6.95635 15.3634 7.78917 16.1962C8.62199 17.029 9.68307 17.5962 10.8382 17.826C11.9934 18.0557 13.1907 17.9378 14.2789 17.4871C15.367 17.0364 16.297 16.2731 16.9514 15.2938C17.6057 14.3145 17.955 13.1632 17.955 11.9854C17.9531 10.4066 17.325 8.89308 16.2087 7.77672C15.0923 6.66036 13.5788 6.03234 12 6.03041ZM11.1802 8.52625C11.1802 8.30883 11.2666 8.10031 11.4203 7.94657C11.5741 7.79284 11.7826 7.70646 12 7.70646C12.2174 7.70646 12.4259 7.79284 12.5797 7.94657C12.7334 8.10031 12.8198 8.30883 12.8198 8.52625V12.9049C12.8198 13.1223 12.7334 13.3309 12.5797 13.4846C12.4259 13.6383 12.2174 13.7247 12 13.7247C11.7826 13.7247 11.5741 13.6383 11.4203 13.4846C11.2666 13.3309 11.1802 13.1223 11.1802 12.9049V8.52625ZM12 16.4006C11.8075 16.4006 11.6194 16.3435 11.4594 16.2366C11.2994 16.1297 11.1747 15.9777 11.101 15.7999C11.0274 15.6221 11.0081 15.4264 11.0456 15.2377C11.0832 15.0489 11.1759 14.8756 11.3119 14.7395C11.448 14.6034 11.6214 14.5107 11.8102 14.4732C11.9989 14.4356 12.1946 14.4549 12.3724 14.5286C12.5502 14.6022 12.7021 14.7269 12.809 14.8869C12.916 15.0469 12.973 15.2351 12.973 15.4275C12.973 15.6856 12.8705 15.9331 12.688 16.1156C12.5055 16.298 12.2581 16.4006 12 16.4006Z" fill="#F08686"/>
</svg>