<svg width="24" height="24" viewBox="0 0 24 24" fill="none" xmlns="http://www.w3.org/2000/svg">
<path d="M12 2.46686e-07C9.62661 2.46686e-07 7.30654 0.703788 5.33315 2.02236C3.35976 3.34094 1.82169 5.21508 0.913435 7.4078C0.00518411 9.60051 -0.232456 12.0133 0.230567 14.3411C0.693589 16.6689 1.83648 18.807 3.51471 20.4853C5.19294 22.1635 7.33113 23.3064 9.6589 23.7694C11.9867 24.2324 14.3995 23.9948 16.5922 23.0865C18.7849 22.1783 20.659 20.6402 21.9776 18.6668C23.2962 16.6934 24 14.3734 24 12C24.0003 10.424 23.6901 8.86347 23.0872 7.40742C22.4842 5.95137 21.6003 4.62837 20.486 3.51401C19.3716 2.39964 18.0486 1.51574 16.5926 0.912795C15.1365 0.309852 13.5759 -0.000319322 12 2.46686e-07ZM18.5534 8.61869L11.3505 16.6219C11.1943 16.7951 10.9787 16.903 10.7465 16.9242C10.5143 16.9454 10.2826 16.8783 10.0977 16.7363L5.57064 13.2625C5.46131 13.1936 5.36759 13.1027 5.29549 12.9954C5.2234 12.8882 5.17452 12.7671 5.152 12.6399C5.12948 12.5126 5.13381 12.3821 5.16472 12.2566C5.19563 12.1312 5.25243 12.0136 5.33147 11.9113C5.41052 11.8091 5.51006 11.7246 5.62371 11.6631C5.73737 11.6016 5.86262 11.5646 5.99143 11.5544C6.12024 11.5442 6.24975 11.561 6.37167 11.6038C6.49359 11.6466 6.6052 11.7145 6.69936 11.803L10.5404 14.744L17.1766 7.37806C17.3439 7.20819 17.5704 7.10938 17.8088 7.10218C18.0471 7.09499 18.2791 7.17997 18.4565 7.33944C18.6338 7.49891 18.7428 7.72061 18.7609 7.95841C18.7789 8.19622 18.7046 8.43184 18.5534 8.61626V8.61869Z" fill="#84DB84"/>
</svg>