<svg width="32" height="17" viewBox="0 0 32 17" fill="none" xmlns="http://www.w3.org/2000/svg">
<path d="M31.7427 1.87515C31.6566 1.17074 31.1338 0.609305 30.4681 0.5C27.5499 0.5 4.2055 0.5 1.28738 0.5C0.55812 0.619794 0 1.2817 0 2.07941C0 3.36182 0 13.6189 0 14.9007C0 15.784 0.682883 16.5 1.52586 16.5C4.39596 16.5 27.3595 16.5 30.2296 16.5C31.0058 16.5 31.6467 15.8922 31.7427 15.1055C31.7427 12.4596 31.7427 3.19786 31.7427 1.87515Z" fill="#F6C700"/>
<path d="M3.82845 3.71533H6.34744V13.4121H3.82845V3.71533Z" fill="black"/>
<path d="M11.1072 8.18196C10.8908 6.70413 10.7705 5.88268 10.7467 5.71872C10.6413 4.92764 10.5408 4.23923 10.4447 3.65186C10.2267 3.65186 9.1386 3.65186 7.17883 3.65186V13.3486H9.38537L9.3931 6.94592L10.3216 13.3486H11.8933L12.7738 6.8035L12.7821 13.3486H14.9815V3.65186H11.6907L11.1072 8.18196Z" fill="black"/>
<path d="M19.14 5.66904C19.1676 5.7927 19.182 6.07314 19.182 6.51146C19.182 6.88741 19.182 9.89496 19.182 10.2709C19.182 10.9163 19.14 11.3115 19.0567 11.4573C18.9728 11.603 18.7497 11.6753 18.3882 11.6753C18.3882 11.0388 18.3882 5.94672 18.3882 5.31021C18.6625 5.31021 18.8497 5.33947 18.949 5.39688C19.0484 5.45484 19.1124 5.54538 19.14 5.66904ZM20.2778 13.2498C20.5776 13.1841 20.8293 13.0681 21.0336 12.9031C21.2373 12.7375 21.3803 12.5084 21.462 12.2152C21.5442 11.9226 21.5928 11.3413 21.5928 10.4719C21.5928 10.1318 21.5928 7.40744 21.5928 7.06682C21.5928 6.14932 21.5569 5.53434 21.5012 5.22188C21.4448 4.90887 21.3052 4.62456 21.0816 4.36952C20.8575 4.11447 20.5307 3.93119 20.1012 3.81968C19.6711 3.70816 18.97 3.65186 17.7505 3.65186C17.6252 3.65186 16.9992 3.65186 15.8714 3.65186V13.3486H18.9231C19.6264 13.3265 20.078 13.2939 20.2778 13.2498Z" fill="black"/>
<path d="M25.657 11.8006C25.6106 11.9237 25.4075 11.9861 25.254 11.9861C25.1038 11.9861 25.0039 11.9265 24.9531 11.8067C24.9023 11.6875 24.8775 11.4153 24.8775 10.9891C24.8775 10.733 24.8775 8.68266 24.8775 8.42651C24.8775 7.98487 24.8996 7.7094 24.9443 7.59954C24.9884 7.49079 25.0856 7.43558 25.2358 7.43558C25.3892 7.43558 25.5951 7.49796 25.6481 7.62328C25.7006 7.74859 25.7271 8.01634 25.7271 8.42651C25.7271 8.59212 25.7271 9.42019 25.7271 10.9113C25.7111 11.4219 25.6879 11.7184 25.657 11.8006ZM22.4507 13.2641H24.7185C24.8129 12.8937 24.8648 12.6878 24.8753 12.6464C25.0806 12.8948 25.3064 13.0814 25.5543 13.205C25.8011 13.3292 26.1704 13.3911 26.4563 13.3911C26.8544 13.3911 27.1977 13.2867 27.4876 13.0775C27.7768 12.8688 27.9612 12.6215 28.0396 12.3372C28.118 12.0524 28.1572 11.6196 28.1572 11.0377C28.1572 10.7655 28.1572 8.58936 28.1572 8.3172C28.1572 7.73203 28.144 7.35001 28.118 7.1706C28.0921 6.99118 28.0148 6.80846 27.8861 6.62131C27.7575 6.43417 27.5704 6.28898 27.3253 6.18519C27.0802 6.08141 26.7909 6.02952 26.4574 6.02952C26.1676 6.02952 25.7966 6.08748 25.5493 6.20175C25.3026 6.31603 25.0784 6.48937 24.8775 6.72178C24.8775 6.51145 24.8775 5.46035 24.8775 3.56738H22.4507V13.2641Z" fill="black"/>
</svg>