<svg width="16" height="17" viewBox="0 0 17 17" fill="none"
transform="scale(1.1)" xmlns="http://www.w3.org/2000/svg">
<path d="M14.3076 12.447C15.3019 11.1655 15.8947 9.55753 15.8947 7.81016C15.8947 3.62865 12.5053 0.5 8.32385 0.5C4.14227 0.5 0.752777 3.62865 0.752777 7.81016C0.752777 9.55909 1.34669 11.1687 2.34274 12.4507L14.3076 12.447Z" fill="#FA6D0E"/>
<path d="M8.32385 0.833008C6.37057 0.833008 4.5506 1.54148 3.19971 2.828C1.83631 4.12643 1.08535 5.89574 1.08535 7.81008C1.08535 9.2945 1.53183 10.721 2.37557 11.9355C2.48327 12.0906 2.5969 12.2403 2.71512 12.3856C2.93511 12.3487 3.1557 12.3149 3.37626 12.2824L13.2042 12.2697C13.1965 12.2685 13.189 12.2678 13.1812 12.2664C13.4329 12.3025 13.684 12.3408 13.9349 12.3825C14.0554 12.2342 14.1715 12.081 14.2812 11.9224C15.1191 10.7112 15.5619 9.28909 15.5619 7.81008C15.5619 5.89574 14.8111 4.12647 13.4478 2.828C12.0971 1.54152 10.2771 0.833008 8.32385 0.833008Z" fill="#FED801"/>
<path d="M13.3286 3.4045L13.0003 3.04177L11.9957 3.95131L12.3239 4.31383C12.5692 4.58481 12.9445 4.74318 13.3257 4.39795C13.5077 4.23319 13.5855 4.04547 13.5613 3.87181C13.5372 3.69797 13.4583 3.54773 13.3286 3.4045ZM12.5248 4.0747L12.4612 4.00449L13.0072 3.51024L13.0696 3.57891C13.2607 3.78929 13.266 3.9748 13.0883 4.13564C12.9021 4.30429 12.7143 4.28395 12.5248 4.0747ZM12.1157 3.35863L12.2831 3.11256L11.7765 2.7677L11.893 2.59659L12.4268 2.96007L12.6008 2.70436L11.7572 2.12984L10.9945 3.25008L11.8383 3.8246L12.0124 3.56886L11.4785 3.20557L11.609 3.01386L12.1157 3.35863ZM10.6854 3.11335L11.2286 1.87162L10.9062 1.73062L10.3633 2.97223L10.6854 3.11335ZM9.49758 1.31486L9.17947 2.63231L9.52155 2.71498L9.63837 2.22999L10.1817 2.36114L10.2516 2.07181L9.70872 1.94064L9.76706 1.69798L10.3534 1.83974L10.4261 1.53892L9.49758 1.31486ZM8.89887 1.25074L8.54751 1.23171L8.47372 2.58479L8.82486 2.60374L8.89887 1.25074ZM6.99346 1.65093L7.35813 1.6068L7.48328 2.64497L7.83443 2.60257L7.70908 1.56421L8.07393 1.52037L8.03684 1.21338L6.95639 1.34374L6.99346 1.65093ZM6.10364 1.59792L5.59336 1.77281L6.03256 3.05481L6.36555 2.94084L6.22956 2.54395L6.36128 2.49864L6.7329 2.81474L7.11514 2.68378L6.68595 2.31999C6.81596 2.19166 6.84944 2.03913 6.78739 1.85798C6.68971 1.5728 6.4382 1.48326 6.10364 1.59792ZM6.12974 2.25316L6.0264 1.95138L6.18382 1.89738C6.33735 1.84472 6.41812 1.86615 6.45324 1.96856C6.489 2.07284 6.43355 2.14898 6.28715 2.19918L6.12974 2.25316ZM5.52597 2.70879L5.36719 2.45704L4.84878 2.78392L4.73831 2.60914L5.28414 2.26436L5.1192 2.00296L4.25602 2.5478L4.97935 3.69374L5.84232 3.14888L5.67739 2.88744L5.13136 3.23194L5.00774 3.0358L5.52597 2.70879ZM4.35511 3.58886C4.38119 3.74715 4.36462 3.84707 4.25777 3.95613C4.18731 4.02804 4.1044 4.06308 4.00591 4.0612C3.90741 4.05931 3.81835 4.01785 3.73956 3.94067C3.66231 3.86499 3.62031 3.77814 3.61655 3.67985C3.61277 3.58116 3.6436 3.49772 3.71254 3.4273C3.80991 3.32785 3.89042 3.31451 4.02699 3.32147L4.01986 3.00306C3.80911 2.98876 3.62548 3.06046 3.47249 3.2165C3.33307 3.35869 3.26562 3.5234 3.26832 3.7119C3.27101 3.89915 3.34285 4.06105 3.48522 4.20047C3.62735 4.33965 3.79233 4.41204 3.97813 4.41281C4.16412 4.41359 4.32575 4.34237 4.46505 4.20017C4.6369 4.02475 4.7061 3.8246 4.67231 3.6019L4.35511 3.58886Z" fill="black"/>
<path d="M13.205 12.2708C14.012 11.3149 14.4762 10.0831 14.387 8.65495C14.2477 6.42219 12.9466 5.07811 11.0696 4.48535L5.42321 4.65821C2.80628 5.5894 2.14198 7.44359 2.26471 9.41116C2.33535 10.5436 2.74429 11.5097 3.37684 12.2838L13.205 12.2708Z" fill="#F93208"/>
<path d="M2.20059 16.4889C2.18894 16.5043 2.16543 16.5031 2.16137 16.487C2.01687 15.9127 1.98131 15.2989 2.05167 14.6811C2.05241 14.6745 2.04585 14.6705 2.03775 14.668C1.6485 14.5465 1.21859 14.4766 0.761063 14.4856C0.736011 14.4861 0.736775 14.4644 0.762615 14.4394C1.2488 13.9692 1.83476 13.6014 2.48702 13.3687C2.71261 14.0039 2.93826 14.6357 3.15449 15.2731C3.15865 15.2854 3.17552 15.2923 3.19313 15.2894C3.19618 15.2889 3.72084 15.2006 4.11988 15.1464C4.1359 15.3142 4.1527 15.4819 4.1527 15.4819C3.32547 15.5344 2.61873 15.9364 2.20059 16.4889ZM14.1823 13.3687C13.9567 14.0039 13.7356 14.6405 13.5198 15.2779C13.5157 15.2902 13.4986 15.2971 13.4808 15.2941C13.4781 15.2936 12.9425 15.1999 12.5497 15.1463C12.5356 15.3028 12.5178 15.4815 12.5178 15.4815C13.3451 15.534 14.0512 15.9364 14.469 16.4889C14.4806 16.5043 14.5043 16.5031 14.5084 16.487C14.6529 15.9127 14.689 15.2989 14.6181 14.6811C14.6173 14.6745 14.6239 14.6704 14.6318 14.668C15.0211 14.5464 15.4509 14.4766 15.9086 14.4856C15.9337 14.4861 15.9329 14.4644 15.9071 14.4394C15.4207 13.969 14.8348 13.6014 14.1823 13.3687Z" fill="#0EB242"/>
<path d="M3.14893 15.2755L2.15327 13.5028C2.15539 13.502 2.15791 13.5009 2.16022 13.4999C2.19209 13.4858 2.33136 13.4257 2.48704 13.3695C2.7041 13.9806 2.94052 14.6624 3.14893 15.2755ZM13.5204 15.2785C13.7292 14.6642 13.9654 13.9816 14.1829 13.3691C14.203 13.3761 14.2234 13.3838 14.2434 13.3911C14.3523 13.4317 14.4495 13.473 14.4931 13.492C14.5014 13.4956 14.5097 13.4993 14.518 13.503L13.5204 15.2785Z" fill="#039933"/>
<path d="M4.1527 15.4823L3.1837 15.2957C3.1841 15.2953 3.18447 15.2953 3.18485 15.2953C3.1862 15.2953 3.18756 15.2949 3.1889 15.2947C3.19064 15.2945 3.36582 15.2641 3.59026 15.2273C3.76793 15.1988 3.94642 15.1721 4.12081 15.147L4.1527 15.4823ZM12.5186 15.4823C12.5188 15.4812 12.5364 15.303 12.5506 15.147C12.7152 15.1706 12.8832 15.196 13.0507 15.2227C13.2885 15.2609 13.4798 15.2945 13.4818 15.2947C13.4831 15.2949 13.4845 15.2953 13.4861 15.2953C13.4863 15.2953 13.4866 15.2953 13.487 15.2957L12.5186 15.4823Z" fill="#038D2F"/>
<path d="M11.3821 12.0586C9.14855 11.8412 6.93202 11.9093 4.70603 12.1153C3.86822 12.1928 3.03648 12.3239 2.20983 12.4748C2.1878 12.4788 2.17384 12.493 2.17854 12.506C2.51224 13.4283 2.83571 14.3522 3.14987 15.2782C3.15402 15.2905 3.1711 15.2976 3.1887 15.2945C6.58165 14.6998 10.0888 14.6998 13.4816 15.2945C13.4992 15.2976 13.5165 15.2904 13.5206 15.2782C13.8347 14.3521 14.1583 13.4283 14.4919 12.506C14.4966 12.4931 14.4823 12.4788 14.4606 12.4748C13.4422 12.2887 12.4137 12.1589 11.3821 12.0586Z" fill="#02902E"/>
<path d="M9.27971 4.1187C9.72184 4.07922 10.6887 4.10134 11.1604 4.56438C11.1888 4.59222 11.1644 4.65657 11.1237 4.64559C10.778 4.55247 10.3355 4.73529 9.89204 4.86721C9.44853 4.99914 9.00401 5.08017 8.65432 4.78351C8.63499 4.95694 8.47858 5.79456 7.28455 5.67032C7.25632 5.66738 7.24517 5.63675 7.2658 5.61915C7.45107 5.46108 7.67778 5.02618 7.4831 4.74807C6.87546 5.15135 6.56158 5.16893 5.44077 4.68345C5.40427 4.66764 5.42609 4.60817 5.46898 4.59857C5.7019 4.54646 6.25507 4.34517 6.75126 4.25148C6.8459 4.23361 6.939 4.22262 7.02861 4.22135C6.51505 4.09918 6.29101 3.99274 5.95299 3.99431C5.91592 3.99448 5.89723 3.94851 5.92401 3.92276C6.45369 3.4135 7.41354 3.38776 7.87613 3.76689L7.46163 2.90141L7.96497 2.82568C7.96497 2.82568 8.09631 3.2871 8.21413 3.70198C8.73812 3.12769 9.54928 3.18565 9.82264 3.68741C9.8388 3.71708 9.81205 3.75227 9.77841 3.74651C9.5036 3.69944 9.31504 3.92845 9.27564 4.11774L9.27971 4.1187Z" fill="#02902E"/>
<path d="M8.00399 8.7714H9.12735V8.13503H8.00399V7.84666H9.18757V7.1886H7.22583V9.76351H9.18757V9.10587H8.00399V8.7714ZM9.3108 7.98176C9.3108 8.19045 9.38109 8.37209 9.52636 8.51754C9.66874 8.6601 9.8544 8.74439 10.0712 8.78465L10.454 8.85574C10.664 8.89473 10.6646 8.97511 10.6646 9.00251C10.6646 9.09253 10.5622 9.14852 10.3981 9.14852C10.1342 9.14852 9.91958 9.03423 9.73942 8.80127L9.70754 8.76004L9.23725 9.23449L9.25848 9.26538C9.489 9.60082 9.89374 9.80275 10.3449 9.80275C10.6439 9.80275 10.8882 9.72884 11.0912 9.57732C11.2961 9.42445 11.4003 9.22271 11.4003 8.97763C11.4003 8.50586 11.12 8.21963 10.5689 8.12161L10.2284 8.06105C10.0468 8.02873 10.0465 7.95926 10.0465 7.9359C10.0465 7.87206 10.1089 7.80399 10.2846 7.80399C10.4848 7.80399 10.6614 7.90103 10.8272 8.09949L10.8602 8.139L11.3305 7.63587L11.3043 7.60505C11.0464 7.30234 10.7123 7.14991 10.313 7.1499C10.0419 7.1499 9.80483 7.22699 9.60828 7.37895C9.41062 7.53176 9.3108 7.73453 9.3108 7.98176ZM12.9369 9.76351H13.6763V7.18872H12.9369V8.11737H12.2267V7.18872H11.4913V9.76351H12.2267V8.81404H12.9369V9.76351ZM3.70884 8.84954H4.7329V8.21287H3.70884V7.84637H4.81441V7.18872H2.97297V9.76351H3.70884V8.84954ZM5.86223 8.99461L6.3192 9.7637H7.16555L6.62147 8.85071C6.90791 8.69571 7.05296 8.4406 7.05296 8.09158C7.05296 7.51773 6.66067 7.18891 5.97635 7.18891H4.94225V9.7637H5.67815L5.67816 8.99461H5.86223ZM5.67817 7.84647H5.93736C6.16567 7.84647 6.31728 7.88702 6.31728 8.0846C6.31728 8.1944 6.27787 8.34051 5.93736 8.34051H5.67817V7.84647Z" fill="white"/>
<path d="M4.70238 11.3364V12.85H5.16638V12.3634H5.23758L5.52237 12.85H6.04873L5.73276 12.3102C5.9139 12.2149 5.97745 12.0536 5.97745 11.8606C5.97745 11.5421 5.74753 11.3364 5.37129 11.3364H4.70238ZM7.411 11.3835V11.6981H7.29132V12.0927H7.411V12.4343C7.411 12.7121 7.6058 12.8569 7.83384 12.8569H8.09721V12.4572C8.05748 12.4578 7.97713 12.4578 7.93309 12.4578C7.8986 12.4578 7.87035 12.4296 7.87035 12.3951V12.0927H8.05307V11.6981H7.87035V11.3835L7.411 11.3835ZM8.25119 11.3835V11.6981H8.13151V12.0927H8.25119V12.4343C8.25119 12.7121 8.44596 12.8569 8.67403 12.8569H8.9374V12.4572C8.89767 12.4578 8.81734 12.4578 8.77328 12.4578C8.73875 12.4578 8.71054 12.4296 8.71054 12.3951V12.0927H8.89326V11.6981H8.71054V11.3835L8.25119 11.3835ZM9.56422 11.3995C9.23789 11.3995 8.96195 11.6349 8.96194 12.0235C8.96194 12.4029 9.24025 12.6241 9.5736 12.6241C9.81806 12.6241 9.9983 12.5706 10.1264 12.4247L9.84848 12.1603C9.76319 12.225 9.69662 12.2516 9.60523 12.2516C9.52231 12.2516 9.41612 12.219 9.37578 12.1159H10.1407C10.1829 11.6547 9.91394 11.3995 9.56422 11.3995ZM10.9723 11.6631C10.8585 11.6631 10.7471 11.7139 10.6727 11.8037V11.7003H10.2088V12.85H10.6727V12.2505C10.6727 12.0173 10.9318 12.0488 10.9318 12.2167V12.85H11.3945V12.1217C11.3945 11.8969 11.2686 11.6631 10.9723 11.6631ZM6.61769 11.6655C6.25482 11.6655 5.97486 11.8852 5.97486 12.2711C5.97486 12.6571 6.25482 12.8768 6.61769 12.8768C6.98054 12.8768 7.26053 12.6802 7.26053 12.2711C7.26053 11.8621 6.98054 11.6655 6.61769 11.6655ZM5.16638 11.693H5.29956C5.41662 11.693 5.49607 11.757 5.49607 11.85C5.49607 11.9451 5.42325 12.0069 5.29956 12.0069H5.16638V11.693ZM9.55614 11.746C9.64188 11.746 9.71146 11.7972 9.73375 11.8864H9.38043C9.41361 11.7941 9.48175 11.746 9.55614 11.746ZM3.30207 12.6801V13.1191H3.69381V14.1937H4.13883V13.1191H4.53285V12.6801H3.30207ZM9.10883 12.7259V13.0406H8.98915V13.4351H9.10883V13.7767C9.10883 14.0546 9.30353 14.1993 9.5316 14.1993H9.79504V13.7997C9.75531 13.8003 9.67494 13.8003 9.63092 13.8003C9.59641 13.8003 9.56818 13.7721 9.56818 13.7375V13.4351H9.7509V13.0406H9.56818V12.7259L9.10883 12.7259ZM13.61 12.9119C13.5616 12.9119 13.5205 12.929 13.4868 12.9637C13.4537 12.9979 13.437 13.0394 13.437 13.0888C13.437 13.1375 13.4535 13.1791 13.4868 13.2132C13.5203 13.2475 13.5616 13.2644 13.61 13.2644C13.6585 13.2644 13.7001 13.2473 13.7338 13.2132C13.7677 13.179 13.7848 13.1375 13.7848 13.0888C13.7848 13.0394 13.7676 12.9981 13.7338 12.9637C13.7 12.9291 13.6585 12.9119 13.61 12.9119ZM10.175 12.912L10.0897 12.9827L10.1892 13.0695C10.0961 13.0516 10.0018 13.0836 9.94323 13.1723C9.93318 13.1875 9.92896 13.1963 9.92981 13.2007C9.93067 13.2051 9.93651 13.2048 9.94689 13.2032C9.99502 13.1955 10.0563 13.188 10.1115 13.1885C9.95806 13.2906 9.85907 13.4448 9.86006 13.6416C9.86182 13.9892 10.1372 14.2131 10.4721 14.2131C10.8039 14.2131 11.163 13.9698 11.1562 13.6134C11.149 13.2318 10.8447 12.9975 10.4477 13.058C10.4479 13.0243 10.4589 12.9983 10.4866 12.9836C10.5003 12.9762 10.5096 12.9766 10.5096 12.9712C10.5096 12.9684 10.5077 12.9652 10.5002 12.9593C10.4189 12.8945 10.3023 12.9583 10.2652 13.0459L10.175 12.912ZM13.61 12.9579C13.6458 12.9579 13.6755 12.9709 13.7001 12.9961C13.7247 13.0215 13.7369 13.0523 13.7369 13.0888C13.7369 13.1251 13.7248 13.1557 13.7001 13.1808C13.6756 13.2055 13.6458 13.2178 13.61 13.2178C13.5751 13.2178 13.5447 13.2057 13.5206 13.1808C13.4965 13.1558 13.4843 13.1251 13.4843 13.0888C13.4843 13.0523 13.4966 13.0214 13.5206 12.9961C13.5449 12.9707 13.5751 12.9579 13.61 12.9579ZM11.8034 12.9989C11.4771 12.9989 11.2012 13.2342 11.2011 13.6229C11.2011 14.0022 11.4794 14.2235 11.8128 14.2235C12.0573 14.2235 12.2375 14.17 12.3656 14.0241L12.0877 13.7596C12.0023 13.8243 11.9358 13.851 11.8444 13.851C11.7615 13.851 11.6553 13.8183 11.6149 13.7151H12.3799C12.422 13.254 12.1531 12.9989 11.8034 12.9989ZM13.5453 13.0046V13.1648H13.589V13.1209H13.6106L13.6414 13.1648H13.6904L13.6527 13.1136C13.6751 13.1035 13.686 13.0861 13.686 13.0614C13.686 13.0231 13.6562 13.0046 13.6178 13.0046H13.5453ZM12.9369 13.0051C12.6608 13.0051 12.4283 13.1921 12.4283 13.4056C12.4283 13.6618 12.7059 13.7873 12.9302 13.7818C13.0011 13.78 13.0206 13.788 13.0206 13.821C13.0206 13.8547 12.9751 13.8798 12.9148 13.8798C12.8024 13.8798 12.7026 13.8435 12.5866 13.7667L12.4033 14.0732C12.5183 14.1873 12.7633 14.2303 12.9217 14.2305C13.2293 14.231 13.4439 14.0367 13.4439 13.8169C13.4439 13.5262 13.2147 13.435 12.9087 13.4332C12.8582 13.4329 12.836 13.4164 12.836 13.385C12.836 13.358 12.8773 13.3375 12.9123 13.3371C12.9649 13.3365 13.0975 13.361 13.2284 13.426L13.4027 13.144C13.2815 13.0602 13.1165 13.0051 12.9369 13.0051ZM5.00547 13.0067C4.64835 13.0067 4.37285 13.2264 4.37285 13.6124C4.37285 13.9983 4.64834 14.2179 5.00547 14.2179C5.3626 14.2179 5.63816 14.0214 5.63816 13.6124C5.63816 13.2033 5.36259 13.0067 5.00547 13.0067ZM8.16604 13.0067C7.86485 13.0067 7.63252 13.2409 7.63252 13.6123C7.63253 13.9918 7.86485 14.2179 8.16604 14.2179C8.28194 14.2179 8.38563 14.1634 8.4596 14.0642V14.1875H8.90912V13.0378H8.4596V13.1655C8.38899 13.0666 8.28346 13.0067 8.16604 13.0067ZM6.44115 13.007C6.33707 13.007 6.23342 13.0443 6.15964 13.118V13.0379H5.71012V14.1875H6.15964V13.5765C6.15964 13.3543 6.39983 13.3926 6.39983 13.5542V14.1875H6.8537V13.5765C6.8537 13.3543 7.09885 13.3926 7.09885 13.5542V14.1875H7.55995V13.4593C7.55995 13.1935 7.39935 13.007 7.10312 13.007C6.9881 13.007 6.86906 13.0596 6.79104 13.1517C6.72793 13.0474 6.61483 13.007 6.44115 13.007ZM13.589 13.0423H13.61C13.6311 13.0423 13.6421 13.0487 13.6421 13.0614C13.6421 13.0747 13.6311 13.0819 13.61 13.0819H13.589V13.0423ZM11.7953 13.3454C11.881 13.3454 11.9507 13.3966 11.973 13.4858H11.6196C11.6528 13.3934 11.7209 13.3454 11.7953 13.3454ZM5.00684 13.407C5.11878 13.407 5.20518 13.4681 5.20518 13.5953C5.20518 13.7225 5.11878 13.7836 5.00684 13.7836C4.89486 13.7836 4.80849 13.7153 4.80849 13.5953C4.80849 13.4753 4.89486 13.407 5.00684 13.407ZM8.2688 13.4259C8.36683 13.4259 8.45144 13.4999 8.45144 13.607C8.45144 13.7142 8.3846 13.7946 8.2688 13.7946C8.153 13.7946 8.0828 13.7142 8.0828 13.607C8.0828 13.4999 8.17078 13.4259 8.2688 13.4259Z" fill="#FED801"/>
<path d="M6.61371 11.8943C6.63975 11.9205 6.64493 11.957 6.6388 11.9921C6.63535 12.0119 6.62932 12.0313 6.62454 12.0508C6.61422 12.0928 6.61056 12.1397 6.6535 12.1649C6.69906 12.1917 6.73606 12.1665 6.75377 12.122C6.7628 12.0993 6.76873 12.0744 6.77881 12.0525C6.80919 11.9864 6.9048 11.9722 6.95072 12.0298C6.98394 12.0715 6.98653 12.1372 6.95303 12.1795C6.91203 12.2314 6.85424 12.2097 6.79356 12.2235C6.76658 12.2297 6.75 12.253 6.749 12.2783C6.748 12.3037 6.76257 12.331 6.79789 12.3452C6.84541 12.3643 6.89792 12.3629 6.94625 12.3788C7.03325 12.4075 7.05908 12.4815 7.04003 12.5349C7.02098 12.5883 6.95706 12.621 6.86455 12.5668C6.80979 12.5348 6.79682 12.4945 6.75864 12.4525C6.73225 12.4234 6.70337 12.4185 6.6849 12.43C6.66644 12.4415 6.65839 12.4694 6.67367 12.5061C6.68501 12.5333 6.70494 12.561 6.70437 12.5917C6.70341 12.6435 6.65866 12.6706 6.61247 12.6729C6.56628 12.6751 6.51864 12.6524 6.51191 12.6048C6.50447 12.5521 6.53175 12.5149 6.53061 12.4681C6.52993 12.4401 6.51373 12.4254 6.49402 12.4226C6.47431 12.4199 6.4511 12.429 6.43641 12.4485C6.41902 12.4717 6.40095 12.4965 6.37683 12.5132C6.32776 12.5473 6.25259 12.5504 6.22259 12.4907C6.20618 12.458 6.20913 12.4141 6.23195 12.3851C6.25862 12.3511 6.30032 12.354 6.33925 12.3548C6.35601 12.3552 6.37312 12.3562 6.38984 12.3557C6.41273 12.3549 6.43114 12.3478 6.43298 12.3221C6.4353 12.2897 6.40735 12.2768 6.38108 12.2686C6.34476 12.2572 6.28111 12.2482 6.25237 12.2253C6.19471 12.1795 6.20213 12.1001 6.273 12.0764C6.2961 12.0686 6.32567 12.069 6.34823 12.0785C6.3815 12.0926 6.40455 12.1324 6.42332 12.1614C6.44332 12.1924 6.46156 12.205 6.49972 12.1995C6.54511 12.1928 6.55335 12.1567 6.53829 12.119C6.52616 12.0886 6.50225 12.0724 6.4755 12.0562C6.42848 12.0278 6.41174 11.9711 6.43717 11.9228C6.45681 11.8855 6.50211 11.8648 6.54504 11.8663C6.57079 11.8672 6.5957 11.8761 6.61371 11.8943Z" fill="#02902E"/>
</svg>