<svg width="12" height="12" viewBox="0 0 12 12" xmlns="http://www.w3.org/2000/svg">
<path d="M6.04956 0.711704L7.20421 4.27129C7.22379 4.33146 7.26199 4.38385 7.31331 4.42089C7.36462 4.45792 7.42638 4.47767 7.48966 4.47729H11.2305C11.2934 4.47742 11.3546 4.4974 11.4054 4.53438C11.4562 4.57135 11.4941 4.62345 11.5135 4.68321C11.533 4.74298 11.5331 4.80737 11.5138 4.86719C11.4945 4.92701 11.4568 4.9792 11.4061 5.01632L8.37742 7.21668C8.32656 7.25368 8.28872 7.30582 8.26932 7.36565C8.24992 7.42547 8.24995 7.4899 8.26942 7.54971L9.4274 11.1098C9.44694 11.1696 9.44701 11.2342 9.42758 11.2941C9.40815 11.354 9.37023 11.4062 9.31927 11.4432C9.26832 11.4802 9.20694 11.5001 9.14396 11.5C9.08099 11.4999 9.01966 11.4799 8.96878 11.4428L5.94061 9.24244C5.88969 9.20553 5.82842 9.18565 5.76553 9.18565C5.70265 9.18565 5.64137 9.20553 5.59045 9.24244L2.56086 11.4428C2.50998 11.4799 2.44864 11.4999 2.38567 11.5C2.32269 11.5001 2.26132 11.4802 2.21036 11.4432C2.1594 11.4062 2.12149 11.354 2.10206 11.2941C2.08263 11.2342 2.08269 11.1696 2.10223 11.1098L3.25879 7.54971C3.27825 7.4899 3.27829 7.42547 3.25889 7.36565C3.23949 7.30582 3.20165 7.25368 3.15079 7.21668L0.122145 5.01632C0.0714188 4.9792 0.0337139 4.92701 0.0144122 4.86719C-0.00488955 4.80737 -0.0048016 4.74298 0.0146635 4.68321C0.0341286 4.62345 0.0719759 4.57135 0.122804 4.53438C0.173631 4.4974 0.234842 4.47742 0.297698 4.47729H4.04045C4.10373 4.47767 4.16549 4.45792 4.2168 4.42089C4.26812 4.38385 4.30632 4.33146 4.3259 4.27129L5.47865 0.711704C5.49723 0.650465 5.53501 0.596823 5.58641 0.558702C5.63781 0.52058 5.70011 0.5 5.7641 0.5C5.8281 0.5 5.8904 0.52058 5.9418 0.558702C5.9932 0.596823 6.03098 0.650465 6.04956 0.711704Z" fill="black"/>
</svg>