<?xml version="1.0" encoding="utf-8"?>
<!-- Generator: Adobe Illustrator 25.4.1, SVG Export Plug-In . SVG Version: 6.00 Build 0)  -->
<svg version="1.1" id="Layer_1" xmlns="http://www.w3.org/2000/svg" xmlns:xlink="http://www.w3.org/1999/xlink" x="0px" y="0px"
	 viewBox="0 0 34 10" style="enable-background:new 0 0 34 10;" xml:space="preserve">
<style type="text/css">
	.st0{fill:url(#SVGID_1_);}
</style>
<linearGradient id="SVGID_1_" gradientUnits="userSpaceOnUse" x1="1.011" y1="6" x2="32.989" y2="6" gradientTransform="matrix(1 0 0 -1 0 11)">
	<stop  offset="0" style="stop-color:#90CEA1"/>
	<stop  offset="0.56" style="stop-color:#3CBEC9"/>
	<stop  offset="1" style="stop-color:#00B3E5"/>
</linearGradient>
<path class="st0" d="M3.1,8.6h1.6V2.8h2.1V1.4H1v1.4h2.1V8.6z M8.8,8.6h1.6V3.1h0l1.8,5.5h1.2l1.9-5.5h0v5.5H17V1.4h-2.4l-1.7,4.7h0
	l-1.7-4.7H8.8V8.6z M25.3,3.4c-0.2-0.4-0.5-0.8-0.9-1.1C24,1.9,23.5,1.7,23,1.6c-0.5-0.1-1.1-0.2-1.6-0.2H19v7.2h2.6
	c0.5,0,1-0.1,1.5-0.2C23.6,8.2,24,8,24.4,7.7c0.4-0.3,0.7-0.7,0.9-1.1c0.2-0.5,0.3-1,0.3-1.5C25.7,4.5,25.5,3.9,25.3,3.4z M23.8,6
	c-0.1,0.3-0.3,0.5-0.5,0.7C23,6.9,22.7,7,22.4,7c-0.3,0.1-0.7,0.1-1,0.1h-0.8V2.9h0.9c0.3,0,0.6,0,1,0.1c0.3,0.1,0.6,0.2,0.8,0.4
	c0.2,0.2,0.4,0.4,0.5,0.6C23.9,4.3,24,4.6,24,4.9C24,5.3,23.9,5.7,23.8,6z M32.9,6c-0.1-0.2-0.2-0.4-0.3-0.5
	c-0.1-0.2-0.3-0.3-0.5-0.4c-0.2-0.1-0.4-0.2-0.6-0.2v0c0.3-0.1,0.7-0.3,0.9-0.6c0.2-0.3,0.4-0.6,0.3-1c0-0.3-0.1-0.7-0.2-0.9
	c-0.2-0.2-0.4-0.4-0.6-0.6c-0.3-0.1-0.6-0.2-0.9-0.3c-0.3,0-0.6-0.1-0.9-0.1h-2.7v7.2h3c0.3,0,0.6,0,1-0.1c0.3-0.1,0.6-0.2,0.9-0.3
	c0.3-0.2,0.5-0.4,0.6-0.6c0.2-0.3,0.3-0.6,0.2-1C33,6.4,33,6.2,32.9,6L32.9,6z M28.9,2.7H30c0.1,0,0.3,0,0.4,0
	c0.1,0,0.2,0.1,0.3,0.1C30.8,3,30.9,3,31,3.1c0.1,0.1,0.1,0.2,0.1,0.4c0,0.1,0,0.3-0.1,0.4c-0.1,0.1-0.1,0.2-0.2,0.2
	c-0.1,0.1-0.2,0.1-0.3,0.1c-0.1,0-0.2,0-0.4,0h-1.2V2.7z M31.3,6.8c-0.1,0.1-0.1,0.2-0.2,0.3c-0.1,0.1-0.2,0.1-0.3,0.1
	c-0.1,0-0.2,0-0.4,0h-1.4V5.6h1.2c0.1,0,0.3,0,0.4,0c0.1,0,0.3,0.1,0.4,0.1c0.1,0.1,0.2,0.1,0.3,0.2c0.1,0.1,0.1,0.3,0.1,0.4
	C31.4,6.6,31.4,6.7,31.3,6.8z"/>
</svg>
