<svg width="34" height="15" viewBox="0 0 34 15" fill="none" xmlns="http://www.w3.org/2000/svg">
<path d="M19.0833 6.69588H30.5782C31.3831 6.69588 32.1551 6.37624 32.7244 5.80724C33.2937 5.23823 33.6138 4.46643 33.6143 3.66151C33.6143 2.85629 33.2944 2.08405 32.725 1.51468C32.1556 0.945302 31.3834 0.62543 30.5782 0.62543H19.0833C18.2781 0.62543 17.5059 0.945302 16.9365 1.51468C16.3671 2.08405 16.0472 2.85629 16.0472 3.66151C16.0477 4.46643 16.3678 5.23823 16.9371 5.80724C17.5064 6.37624 18.2784 6.69588 19.0833 6.69588ZM3.96305 14.4278H17.1761C17.981 14.4278 18.753 14.1082 19.3223 13.5392C19.8917 12.9702 20.2117 12.1984 20.2122 11.3935C20.2122 10.5883 19.8923 9.81601 19.3229 9.24664C18.7536 8.67726 17.9813 8.35739 17.1761 8.35739H3.96305C3.15783 8.35739 2.3856 8.67726 1.81622 9.24664C1.24684 9.81601 0.926971 10.5883 0.926971 11.3935C0.927427 12.1984 1.2475 12.9702 1.81683 13.5392C2.38615 14.1082 3.15813 14.4278 3.96305 14.4278ZM2.71563 6.58591H4.05584V1.689H5.79123V0.5H0.980236V1.68557H2.71563V6.58591ZM7.54381 6.58591H8.88402V1.91753H8.9012L10.4476 6.58247H11.4785L13.0765 1.91753H13.0936V6.58247H14.4338V0.5H12.3978L10.9888 4.46907H10.9716L9.5713 0.5H7.54381V6.58591ZM27.1177 10.0653C26.9385 9.69153 26.6721 9.36627 26.3411 9.11684C25.9976 8.86567 25.6073 8.68573 25.1933 8.58763C24.7398 8.47433 24.2742 8.41663 23.8067 8.41581H21.7964V14.4983H23.9871C24.4272 14.5004 24.8649 14.4337 25.2844 14.3007C25.6804 14.1802 26.0504 13.9867 26.3754 13.7302C26.6915 13.4737 26.9478 13.1511 27.1263 12.7852C27.3192 12.3786 27.4151 11.9328 27.4063 11.4828C27.4204 10.9944 27.3216 10.5093 27.1177 10.0653ZM25.8411 12.2869C25.7405 12.5162 25.5847 12.717 25.3874 12.8711C25.1825 13.0218 24.9484 13.1283 24.7002 13.1838C24.4185 13.2487 24.1301 13.2805 23.8411 13.2783H23.1452V9.6701H23.9356C24.2068 9.66876 24.4768 9.70519 24.738 9.77835C24.9782 9.84312 25.2043 9.95208 25.4046 10.0997C25.5883 10.2442 25.7374 10.4279 25.8411 10.6375C25.9591 10.8791 26.018 11.1453 26.0129 11.4141C26.0204 11.7141 25.9618 12.0121 25.8411 12.2869ZM33.5094 12.2646C33.4488 12.0985 33.3566 11.9456 33.238 11.8144C33.1199 11.684 32.979 11.5762 32.8222 11.4966C32.6511 11.4102 32.4671 11.3522 32.2775 11.3247V11.3076C32.5722 11.2229 32.836 11.0546 33.0369 10.823C33.235 10.5816 33.3377 10.276 33.3256 9.96392C33.3385 9.68408 33.2698 9.40652 33.128 9.16495C32.9986 8.96798 32.8212 8.80716 32.6125 8.69759C32.3881 8.58167 32.145 8.50607 31.8943 8.47423C31.6314 8.43667 31.3661 8.41772 31.1005 8.41753H28.8325V14.5H31.3239C31.5965 14.5002 31.8683 14.4714 32.1349 14.4141C32.3944 14.3621 32.6431 14.2663 32.8703 14.1306C33.0853 14.0023 33.2676 13.8258 33.4029 13.6151C33.5478 13.3726 33.6194 13.0933 33.6091 12.811C33.6094 12.6248 33.5774 12.4399 33.5146 12.2646H33.5094ZM30.1727 9.55842H31.0833C31.19 9.55884 31.2964 9.56919 31.4012 9.58935C31.5028 9.60762 31.6012 9.64061 31.6933 9.68728C31.7782 9.7336 31.8502 9.80032 31.9029 9.88144C31.9609 9.97514 31.9897 10.084 31.9854 10.1942C31.9879 10.3019 31.9624 10.4085 31.9115 10.5034C31.8652 10.5869 31.7991 10.6576 31.7191 10.7096C31.6358 10.7624 31.5439 10.8002 31.4476 10.8213C31.3479 10.8448 31.2458 10.8563 31.1435 10.8557H30.1727V9.55842ZM32.1864 12.9948C32.1347 13.0845 32.063 13.1609 31.9768 13.2182C31.8895 13.277 31.7914 13.3178 31.6881 13.3385C31.5855 13.3616 31.4806 13.3731 31.3754 13.3729H30.1727V11.9983H31.1864C31.3014 11.9994 31.4162 12.008 31.5301 12.0241C31.651 12.0407 31.7693 12.0724 31.8823 12.1186C31.9877 12.1627 32.0804 12.2324 32.1521 12.3213C32.2268 12.4199 32.2651 12.5413 32.2603 12.6649C32.2658 12.7796 32.2403 12.8935 32.1864 12.9948Z" fill="url(#paint0_linear_231_711)"/>
<defs>
<linearGradient id="paint0_linear_231_711" x1="0.926971" y1="7.50344" x2="33.6143" y2="7.50344" gradientUnits="userSpaceOnUse">
<stop stop-color="#90CEA1"/>
<stop offset="0.56" stop-color="#3CBEC9"/>
<stop offset="1" stop-color="#00B3E5"/>
</linearGradient>
</defs>
</svg>
