<svg width="30" height="24" viewBox="0 0 30 24" fill="none" xmlns="http://www.w3.org/2000/svg">
<path d="M1.34881 16.7737V23.9606C4.88608 23.9606 8.42335 23.9798 11.9599 23.9428C15.1943 23.9096 18.5239 24.1416 21.7413 23.8542C24.6277 23.5971 27.2888 22.4889 28.5285 19.7215C29.4423 17.6817 29.2333 14.7598 28.3231 12.7592C26.6328 9.0439 22.7357 7.87737 19.0588 9.49677C17.6906 10.0989 16.3992 10.9551 15.0842 11.6725C12.8486 12.8937 10.0797 14.6882 7.89439 12.327C6.35256 10.6611 6.66875 8.23937 8.97965 7.61362C11.1613 7.0226 13.7522 7.29595 15.9936 7.2664C19.8515 7.21616 23.7094 7.22724 27.5681 7.22133L27.557 0.0344926C23.6474 0.0404028 19.7377 0.0514845 15.8281 0.0344926C12.2591 0.0204558 8.47876 -0.250676 5.0789 0.990472C-0.541726 3.04132 -2.03627 10.9374 3.68557 14.0078C8.09608 16.3755 11.6799 14.2057 15.4255 12.1349C17.633 10.9145 21.1651 8.81044 22.6773 12.2155C23.7397 14.6039 21.4901 16.2123 19.3964 16.5543C16.9112 16.9592 14.276 16.7656 11.7641 16.776C8.29259 16.7885 4.82107 16.7737 1.34881 16.7737ZM4.36081 23.0667H2.35577V21.8846H4.36081V23.0667ZM4.36081 18.8475C3.55775 18.8475 3.1566 18.8475 2.35355 18.8475V17.6603H4.36155C4.36376 18.1353 4.36377 18.371 4.36377 18.8423L4.36081 18.8475ZM8.36795 23.0667H6.36585C6.36585 22.5946 6.36585 22.3582 6.36585 21.8846H8.37164C8.37238 22.3552 8.37164 22.5909 8.3709 23.063L8.36795 23.0667ZM8.37681 18.8556H6.36881C6.36881 18.3835 6.36881 18.1471 6.36881 17.6736H8.37755C8.38124 18.1412 8.3805 18.3769 8.37976 18.849L8.37681 18.8556ZM12.3271 23.0814C11.5558 23.0814 11.1657 23.0814 10.3715 23.077C10.3715 22.6094 10.3715 22.3744 10.3715 21.9038C11.1598 21.9134 11.5425 21.9171 12.2982 21.923C12.3145 22.3833 12.3234 22.6153 12.33 23.0748L12.3271 23.0814ZM12.1963 18.877C11.4863 18.8733 11.1265 18.8711 10.3619 18.8652C10.3619 18.3909 10.3619 18.1538 10.3553 17.6795C11.1088 17.6795 11.459 17.6795 12.1483 17.6795C12.1712 18.153 12.1808 18.3924 12.1993 18.8704L12.1963 18.877ZM16.0941 23.0807C15.3553 23.0807 14.9859 23.0807 14.2316 23.0807C14.2087 22.63 14.1954 22.401 14.1659 21.9371C14.9047 21.9422 15.274 21.9452 16.0084 21.9533C16.0498 22.4054 16.0668 22.6323 16.097 23.074L16.0941 23.0807ZM15.7144 18.8903L13.9465 18.8837C13.908 18.402 13.8881 18.1604 13.8482 17.678H15.5836C15.6397 18.1538 15.6663 18.3991 15.7173 18.8837L15.7144 18.8903ZM19.9143 23.0534C19.1489 23.0755 18.7603 23.0726 17.9839 23.0763C17.9307 22.6293 17.9011 22.3981 17.8361 21.9289C18.5587 21.9038 18.9192 21.895 19.6254 21.8499C19.7496 22.3345 19.8087 22.5776 19.9173 23.0467L19.9143 23.0534ZM18.8483 18.668C18.2816 18.747 17.9891 18.7758 17.3921 18.8298C17.3182 18.3451 17.2843 18.1028 17.2163 17.6278C17.7778 17.5879 18.0504 17.5642 18.5764 17.4985C18.6806 17.9432 18.736 18.1774 18.8512 18.6613L18.8483 18.668ZM23.5956 22.5798C23.0091 22.7536 22.4072 22.8701 21.7982 22.9278C21.6305 22.438 21.5411 22.1831 21.3608 21.6718C21.9194 21.5979 22.4695 21.4707 23.0039 21.2921C23.2484 21.8093 23.3696 22.0715 23.5986 22.5732L23.5956 22.5798ZM21.4975 18.0156C21.0853 18.1869 20.6585 18.3209 20.2224 18.416C20.0599 17.9388 19.983 17.7083 19.8456 17.282C20.2431 17.2003 20.6331 17.0854 21.0114 16.9385C21.1887 17.3256 21.2892 17.545 21.5005 18.009L21.4975 18.0156ZM26.8692 20.6353C26.4126 21.1746 26.1304 21.4184 25.4234 21.8262L24.6196 20.5969C25.2328 20.2416 25.4818 20.0251 25.8888 19.5456L26.8692 20.6353ZM23.3888 16.8011C23.165 17.0846 22.8892 17.3228 22.5761 17.5029C22.288 17.0737 22.1521 16.8727 21.9112 16.5218C22.1616 16.3686 22.3836 16.1731 22.5673 15.9441C22.8702 16.2411 23.0357 16.4169 23.3917 16.7944L23.3888 16.8011ZM28.1746 17.4852C28.0778 18.1811 28.001 18.5195 27.7476 19.1578L26.6837 18.2299C26.9172 17.664 26.9911 17.3611 27.0805 16.7471C27.5326 17.0449 27.7564 17.1963 28.1776 17.4785L28.1746 17.4852ZM24.2783 14.8891C24.2266 15.2383 24.1207 15.5773 23.9643 15.8939C23.5816 15.5762 23.4006 15.4299 23.0829 15.1831C23.2272 14.9239 23.3301 14.6437 23.3881 14.3528C23.7079 14.5249 23.8904 14.6365 24.2812 14.8825L24.2783 14.8891ZM28.1199 14.2597C28.2167 14.7192 28.2477 14.9792 28.2677 15.6597C27.837 15.4794 27.6102 15.3789 27.1595 15.178C27.1366 14.601 27.1056 14.3757 27.0118 13.9738C27.4558 14.089 27.6818 14.1489 28.1192 14.253L28.1199 14.2597ZM24.2783 13.2328C24.325 13.4724 24.3465 13.7163 24.3425 13.9605C23.954 13.8075 23.7722 13.7388 23.456 13.6458C23.4611 13.4498 23.4472 13.2539 23.4146 13.0606C23.7057 13.1015 23.9944 13.1572 24.2798 13.2276L24.2783 13.2328ZM27.3132 12.3573C27.4884 12.649 27.6475 12.9502 27.7897 13.2594C27.3538 13.201 27.1329 13.1655 26.6993 13.0909C26.5681 12.8187 26.4201 12.5549 26.256 12.3012C26.6734 12.3226 26.8854 12.3352 27.3147 12.3507L27.3132 12.3573ZM23.8409 12.0958C23.946 12.2634 24.0341 12.4411 24.1039 12.6262C23.7486 12.5693 23.5824 12.5457 23.2854 12.5176C23.2361 12.3534 23.1684 12.1953 23.0837 12.0463C23.3659 12.0515 23.5188 12.0625 23.8483 12.0891L23.8409 12.0958ZM25.8297 10.3781C26.1625 10.632 26.4518 10.9384 26.686 11.2854C26.2848 11.3363 26.089 11.3592 25.71 11.3962C25.512 11.1028 25.2686 10.8427 24.989 10.6256C25.3192 10.5281 25.4877 10.4793 25.8349 10.3715L25.8297 10.3781ZM23.1258 11.1324C23.2769 11.2681 23.4108 11.4216 23.5247 11.5897C23.2292 11.6178 23.0918 11.6318 22.8391 11.6636C22.7505 11.5387 22.6516 11.4213 22.5436 11.3127C22.7623 11.2329 22.8798 11.1982 23.131 11.1258L23.1258 11.1324ZM23.8151 9.33276C24.1675 9.43248 24.5087 9.5684 24.8331 9.73835C24.5487 9.88167 24.4113 9.94742 24.1497 10.0715C23.8777 9.92351 23.591 9.80417 23.2942 9.71545C23.4967 9.56621 23.6008 9.49086 23.8202 9.32611L23.8151 9.33276ZM22.2016 10.4941C22.3631 10.5696 22.5177 10.6594 22.6633 10.7623C22.4646 10.8583 22.3678 10.9041 22.1994 10.998C22.0938 10.9074 21.9825 10.8238 21.8662 10.7475C21.9962 10.6419 22.0627 10.5924 22.2067 10.4875L22.2016 10.4941ZM21.4377 9.07049C21.867 9.02747 22.3 9.03491 22.7276 9.09266C22.5724 9.25445 22.5 9.32907 22.3641 9.46944C21.9832 9.39558 21.5948 9.36731 21.2072 9.38521L21.4377 9.07049ZM20.7543 10.0412C21.0538 10.0695 21.3485 10.1358 21.6312 10.2385C21.5374 10.3427 21.4946 10.3922 21.414 10.4904C21.1624 10.3822 20.8976 10.3077 20.6265 10.2688C20.6782 10.172 20.7033 10.1247 20.7595 10.0346L20.7543 10.0412ZM19.1556 9.56548C19.4902 9.43105 19.8364 9.32768 20.1899 9.25667C20.1382 9.35862 20.116 9.40442 20.0695 9.4916C19.7508 9.53779 19.4372 9.61372 19.1327 9.7184C19.146 9.65561 19.1512 9.62606 19.1608 9.55883L19.1556 9.56548ZM19.0817 10.0494C19.33 10.0065 19.5818 9.98675 19.8338 9.99027C19.81 10.0516 19.7897 10.1142 19.7732 10.1779C19.54 10.1621 19.3059 10.1673 19.0736 10.1934C19.0824 10.1247 19.0839 10.0959 19.0884 10.0427L19.0817 10.0494ZM18.1501 10.0634C18.3422 9.96146 18.4331 9.91566 18.5934 9.83291C18.5986 9.88167 18.6 9.90236 18.603 9.94299C18.4382 10.0206 18.3459 10.0664 18.1531 10.1646C18.1597 10.1247 18.1597 10.1011 18.1597 10.0568L18.1501 10.0634ZM18.1375 10.3996C18.3304 10.3079 18.4279 10.2636 18.6111 10.192C18.6111 10.2348 18.6111 10.2584 18.6178 10.3131C18.4286 10.3826 18.3304 10.4254 18.1375 10.5141C18.1427 10.4564 18.1427 10.4343 18.1442 10.3929L18.1375 10.3996ZM17.1077 10.6419C17.3227 10.5185 17.432 10.4564 17.6426 10.3397C17.6477 10.3781 17.6485 10.3959 17.6507 10.4284C17.4461 10.5399 17.3419 10.5976 17.1409 10.7121C17.1358 10.6788 17.1299 10.6655 17.1143 10.6352L17.1077 10.6419ZM17.217 10.8872C17.381 10.7926 17.4719 10.7394 17.6603 10.6419C17.6603 10.6796 17.6655 10.7002 17.6714 10.7468C17.4926 10.8413 17.4076 10.8894 17.2584 10.9751C17.2451 10.9285 17.2377 10.9115 17.2237 10.8805L17.217 10.8872ZM16.2448 11.1346C16.4391 11.0283 16.5344 10.9765 16.6822 10.8916L16.7376 10.9514C16.5898 11.0386 16.4975 11.0925 16.3046 11.2019L16.2448 11.1346ZM16.4406 11.3607C16.6334 11.2447 16.7265 11.1878 16.8691 11.0984L16.9311 11.1723C16.7885 11.2602 16.6947 11.3201 16.5012 11.4331L16.4406 11.3607ZM15.3021 11.651C15.4536 11.5646 15.5503 11.5122 15.7454 11.405C15.7727 11.4383 15.7845 11.4538 15.8074 11.4826C15.6117 11.5934 15.5119 11.6481 15.3642 11.7367C15.3479 11.6983 15.3354 11.6813 15.3088 11.6444L15.3021 11.651ZM15.4942 11.9237L15.9441 11.657L16.001 11.7308C15.8023 11.8476 15.7055 11.9052 15.5467 11.9961C15.5311 11.9584 15.5208 11.9451 15.5001 11.917L15.4942 11.9237ZM14.502 12.0951C14.703 11.9887 14.8042 11.9347 14.9623 11.8468C14.9896 11.8838 15.0022 11.9008 15.0251 11.9333C14.8662 12.0197 14.7643 12.0736 14.5611 12.1815L14.502 12.0951ZM14.6852 12.3751C14.8936 12.262 14.9977 12.2044 15.1551 12.118C15.1751 12.1446 15.1847 12.1579 15.2053 12.1844C15.0472 12.2701 14.9409 12.3278 14.7303 12.4438C14.7185 12.4098 14.7096 12.3965 14.6919 12.3684L14.6852 12.3751ZM13.5978 12.5627L14.007 12.3492C14.0299 12.3869 14.0403 12.4053 14.061 12.4401L13.6532 12.6543C13.6325 12.6211 13.6214 12.6026 13.5978 12.5627ZM13.7736 12.8715C13.8896 12.8058 13.9804 12.7555 14.1747 12.6499L14.2146 12.7238C14.0189 12.8324 13.9273 12.8833 13.8127 12.9491C13.8009 12.9203 13.7898 12.9048 13.7736 12.8737V12.8715ZM12.9321 12.9025C13.1331 12.8035 13.2276 12.7548 13.351 12.692C13.3739 12.7289 13.385 12.7467 13.4064 12.7829C13.2771 12.8486 13.1796 12.8988 12.9728 13.0045C12.9572 12.9646 12.9491 12.9454 12.9321 12.9048V12.9025ZM13.0666 13.2549L13.532 13.0045L13.5749 13.085L13.1013 13.3525C13.088 13.3155 13.0806 13.2963 13.0666 13.2572V13.2549ZM11.8845 13.3717C12.0626 13.3067 12.1741 13.2579 12.3928 13.1582C12.4054 13.2025 12.4113 13.2239 12.4224 13.2682C12.2007 13.3709 12.0906 13.4204 11.9207 13.4847C11.9074 13.4411 11.9 13.4189 11.886 13.3754L11.8845 13.3717ZM12.0212 13.7891C12.169 13.7233 12.2761 13.6687 12.4977 13.5549C12.5095 13.5999 12.5154 13.6236 12.528 13.6701C12.3064 13.7913 12.2015 13.8482 12.0663 13.9161C12.0485 13.8659 12.0397 13.8408 12.0227 13.7913L12.0212 13.7891ZM11.0674 13.6059C11.2418 13.5682 11.326 13.5453 11.4893 13.498C11.5114 13.546 11.5225 13.5719 11.5447 13.6162C11.3814 13.6709 11.2935 13.6997 11.1103 13.7492C11.0911 13.6952 11.0822 13.6709 11.0674 13.6059ZM11.2307 14.0942C11.4376 14.0203 11.5344 13.9863 11.6969 13.9228L11.7626 14.055C11.5994 14.1237 11.4989 14.1651 11.2817 14.2456C11.2595 14.1806 11.2492 14.1511 11.2292 14.0942H11.2307ZM10.1432 13.7041C10.3017 13.7089 10.4603 13.7012 10.6175 13.6812C10.6227 13.7551 10.6257 13.7928 10.6323 13.8585C10.467 13.8908 10.2996 13.9108 10.1314 13.9184C10.1344 13.84 10.1366 13.7987 10.1418 13.7041H10.1432ZM10.11 14.389C10.303 14.3588 10.4939 14.3169 10.6818 14.2634C10.6899 14.3299 10.6944 14.3646 10.7032 14.4414C10.506 14.5049 10.3052 14.5567 10.1019 14.5966C10.107 14.5057 10.107 14.4658 10.107 14.389H10.11ZM9.08604 13.4382C9.26853 13.5176 9.45671 13.5833 9.64899 13.6347C9.63569 13.7381 9.6283 13.7824 9.61205 13.8755C9.39713 13.8327 9.18516 13.7762 8.97744 13.7063C9.02001 13.6198 9.05582 13.5302 9.08456 13.4382H9.08604ZM8.56151 14.4096C8.86545 14.4388 9.1709 14.4492 9.47611 14.4407C9.451 14.5338 9.4377 14.5825 9.41036 14.6911C9.06194 14.7238 8.71181 14.7346 8.36203 14.7236C8.44478 14.587 8.48172 14.5256 8.56151 14.4096ZM7.96457 12.808C8.13366 12.9374 8.31304 13.0528 8.50093 13.153C8.43198 13.2529 8.35619 13.348 8.27412 13.4374C8.03273 13.3352 7.8 13.2136 7.57819 13.0739C7.74663 12.9616 7.82494 12.9084 7.96457 12.808ZM6.2543 13.9036C6.64427 14.0543 7.04707 14.1696 7.45777 14.2479C7.31001 14.3867 7.23614 14.4591 7.0773 14.6128C6.59241 14.5499 6.11469 14.4405 5.65072 14.2863C5.89599 14.126 6.01715 14.0491 6.25134 13.9036H6.2543ZM7.03371 11.8889C7.17474 12.0848 7.33539 12.2658 7.51318 12.429C7.30632 12.5102 7.18738 12.5531 6.92954 12.6447C6.67985 12.4642 6.45484 12.2519 6.26021 12.013C6.60005 11.9636 6.75888 11.9399 7.03075 11.8889H7.03371ZM3.7262 12.3654C4.10012 12.7452 4.52715 13.0687 4.99394 13.3259C4.66371 13.4478 4.49453 13.512 4.15764 13.648C3.54963 13.3007 3.24082 13.0695 2.69265 12.5398C3.09454 12.4644 3.3051 12.4297 3.72325 12.3654H3.7262ZM6.35108 10.404C6.39172 10.6798 6.47864 10.9468 6.60818 11.1937C6.29124 11.1937 6.10211 11.1886 5.69283 11.176C5.52438 10.8797 5.41499 10.5536 5.37072 10.2156C5.81325 10.3028 6.01715 10.3419 6.34812 10.404H6.35108ZM2.08316 9.5736C2.20579 10.1942 2.34025 10.5022 2.68378 11.0689C2.19619 11.0563 1.95387 11.0519 1.50174 11.0519C1.1124 10.3996 0.961687 10.0457 0.828707 9.33128C1.29561 9.42141 1.55493 9.47165 2.0802 9.5736H2.08316ZM6.53282 8.92126C6.42526 9.14841 6.35731 9.39227 6.33187 9.64231C6.00829 9.5145 5.80586 9.43693 5.36112 9.26923C5.38541 8.96665 5.45618 8.66962 5.57093 8.3886C6.00533 8.6287 6.20554 8.73952 6.52986 8.92126H6.53282ZM2.36684 6.63622C2.21529 7.09312 2.11615 7.56577 2.07133 8.04507C1.55049 7.84929 1.29488 7.74956 0.834618 7.57447C0.888803 7.03055 1.00049 6.49391 1.16781 5.97353C1.61108 6.22176 1.85857 6.35696 2.36389 6.63622H2.36684ZM7.45925 7.64908C7.25657 7.8194 7.07745 8.01592 6.92659 8.23346L6.00016 7.56856C6.17237 7.30413 6.38302 7.06684 6.62517 6.8645C7.00416 7.22281 7.17482 7.38608 7.45629 7.64908H7.45925ZM3.86435 4.22928C3.49812 4.55374 3.18633 4.93487 2.94088 5.35813L1.80464 4.52996C2.13487 3.98474 2.33729 3.72839 2.84779 3.24892C3.22309 3.61166 3.43364 3.81482 3.86435 4.22928ZM9.01364 6.84234C8.5423 6.97162 8.3347 7.04402 8.04436 7.20582C7.82273 6.87928 7.68162 6.68498 7.37946 6.26831C7.73481 6.03781 7.97048 5.93733 8.49427 5.76003C8.72773 6.22176 8.83707 6.44266 9.01364 6.84234ZM6.77809 2.62243C6.05926 2.83816 5.72607 2.96892 5.14613 3.28733C4.7989 2.82338 4.62898 2.59584 4.33347 2.18582C4.99837 1.8349 5.36776 1.69601 6.15382 1.47068C6.38211 1.9073 6.51139 2.14592 6.77809 2.62243ZM11.7885 6.37395C11.2063 6.43158 10.902 6.46926 10.3324 6.56382C10.1964 6.10799 10.1152 5.86789 9.94154 5.38177C10.5643 5.2547 10.8968 5.20299 11.5454 5.12172C11.6496 5.62261 11.6991 5.87528 11.7885 6.37395ZM10.8281 1.97157C10.1211 2.01368 9.40445 2.08682 8.70483 2.19764C8.51349 1.71817 8.4204 1.48398 8.2527 1.04366C9.02011 0.938066 9.79238 0.871491 10.5665 0.844194C10.6692 1.2786 10.7224 1.5054 10.8318 1.97157H10.8281ZM14.901 6.33036C14.2235 6.33036 13.897 6.33036 13.2683 6.32519C13.2254 5.81248 13.2033 5.5576 13.1567 5.05523C13.8157 5.06779 14.1533 5.0737 14.85 5.08405C14.8751 5.57533 14.8855 5.82504 14.9047 6.32667L14.901 6.33036ZM14.7067 1.99373L12.8531 1.94571C12.8073 1.48693 12.7851 1.26234 12.743 0.827202C13.5121 0.837545 13.8933 0.843456 14.6572 0.856754C14.6793 1.29854 14.6875 1.52683 14.7104 1.99004L14.7067 1.99373ZM18.5417 6.33258C17.7637 6.33258 17.3877 6.32889 16.6593 6.33258C16.6533 5.84277 16.6497 5.59897 16.6423 5.1136C17.381 5.12394 17.7578 5.12985 18.5387 5.14315C18.5439 5.61301 18.5446 5.85164 18.5454 6.32889L18.5417 6.33258ZM18.5276 2.09347L16.5913 2.04397C16.5839 1.57706 16.581 1.34582 16.575 0.889998C17.3463 0.903296 17.7342 0.909945 18.5247 0.921765C18.5291 1.38498 18.5291 1.61991 18.5291 2.08978L18.5276 2.09347ZM22.5421 6.3348H20.5334V5.15275H22.5421C22.5444 5.62188 22.5451 5.85828 22.5458 6.3311L22.5421 6.3348ZM22.5355 2.11342H20.5268V0.93137H22.5355C22.5385 1.40049 22.5385 1.6369 22.5392 2.10972L22.5355 2.11342ZM26.5626 6.32889H24.5531C24.5531 5.85607 24.5531 5.61966 24.5531 5.14684H26.5626C26.5648 5.61818 26.5655 5.85238 26.5663 6.32519L26.5626 6.32889ZM26.5559 2.10677H24.5465C24.5465 1.63469 24.5465 1.39828 24.5465 0.924721H26.5559C26.5589 1.39458 26.5589 1.62878 26.5596 2.10307L26.5559 2.10677Z" fill="white"/>
</svg>
