<svg width="26" height="17" viewBox="0 0 26 17" transform="translate(2, -0.5) scale(0.85)" fill="none" xmlns="http://www.w3.org/2000/svg">
<path d="M15.0912 8.9295C15.0912 9.34796 14.9696 9.75703 14.7416 10.105C14.5137 10.4529 14.1897 10.7241 13.8107 10.8842C13.4316 11.0444 13.0145 11.0863 12.6121 11.0046C12.2098 10.923 11.8401 10.7215 11.55 10.4256C11.2599 10.1297 11.0623 9.75268 10.9823 9.34226C10.9023 8.93184 10.9433 8.50645 11.1003 8.11985C11.2574 7.73324 11.5232 7.40277 11.8644 7.17029C12.2055 6.93781 12.6066 6.81376 13.0168 6.81376C13.5664 6.81582 14.0929 7.03937 14.4814 7.43571C14.87 7.83205 15.0892 8.36899 15.0912 8.9295ZM25.7618 9.32767C24.4528 10.9594 19.3013 16.8539 13.0168 16.8539C6.73241 16.8539 1.61914 11.0063 0.287236 9.3433C0.185012 9.22609 0.12854 9.0747 0.12854 8.91782C0.12854 8.76095 0.185012 8.6095 0.287236 8.49229C1.68803 6.85277 7.1228 1.01296 13.1776 0.85682C19.2324 0.700674 24.4452 6.81373 25.7541 8.49229C25.8477 8.61018 25.8994 8.75693 25.9008 8.90863C25.9022 9.06032 25.8532 9.20803 25.7618 9.32767ZM17.0049 8.9295C17.0049 8.12501 16.771 7.33857 16.3328 6.66966C15.8946 6.00075 15.2717 5.4794 14.543 5.17154C13.8143 4.86367 13.0124 4.78315 12.2388 4.94009C11.4652 5.09704 10.7546 5.48443 10.1969 6.05329C9.63913 6.62215 9.2593 7.34692 9.10542 8.13595C8.95154 8.92499 9.03052 9.74283 9.33237 10.4861C9.63421 11.2293 10.1454 11.8646 10.8012 12.3116C11.457 12.7585 12.2281 12.9971 13.0168 12.9971C14.0739 12.995 15.0871 12.5658 15.8346 11.8035C16.5821 11.0411 17.0029 10.0077 17.0049 8.9295Z" fill="white" fill-opacity="0.9"/>
</svg>