<svg width="28" height="20" viewBox="0 0 28 20" fill="none" xmlns="http://www.w3.org/2000/svg">
<path d="M17.5184 2.18437L13.958 5.7682C12.9349 5.80685 11.9643 6.23057 11.2403 6.95449C10.5164 7.67841 10.0927 8.64909 10.054 9.67214L5.36932 14.3569C3.81127 13.1485 2.39199 11.7711 1.13746 10.2499C1.03319 10.1327 0.975586 9.98128 0.975586 9.8244C0.975586 9.66751 1.03319 9.5161 1.13746 9.39888C2.5663 7.75923 8.10988 1.91892 14.2859 1.76276C15.3792 1.72629 16.471 1.86869 17.5184 2.18437ZM27.1299 10.2031C25.7947 11.8349 20.54 17.7299 14.1298 17.7299C12.3001 17.7038 10.4994 17.269 8.85944 16.4572L6.22819 19.0884L4.85401 17.7064L7.07925 15.489L10.6553 11.9052L21.922 0.638428L23.304 2.02044L21.3208 4.00362C23.5224 5.484 25.4841 7.29299 27.1377 9.36762C27.2309 9.48728 27.2809 9.63499 27.2795 9.7867C27.2781 9.93841 27.2254 10.0852 27.1299 10.2031ZM18.1977 9.80486C18.1992 9.06424 17.9966 8.33751 17.6121 7.70454L16.1442 9.17242C16.2133 9.37603 16.2476 9.58984 16.2457 9.80486C16.2436 10.3654 16.02 10.9024 15.6237 11.2988C15.2273 11.6952 14.6903 11.9188 14.1298 11.9208C13.9147 11.9234 13.7008 11.889 13.4973 11.8193L12.0294 13.2872C12.6624 13.6717 13.3891 13.8743 14.1298 13.8728C15.208 13.8707 16.2415 13.4415 17.0039 12.6791C17.7663 11.9166 18.1956 10.8831 18.1977 9.80486Z" fill="white" fill-opacity="0.9"/>
</svg>