<svg width="25" height="25" viewBox="0 0 25 25" fill="none" xmlns="http://www.w3.org/2000/svg">
<path d="M23.06 12.9578C23.06 12.1778 22.99 11.4278 22.86 10.7078H12.5V14.9678H18.42C18.16 16.3378 17.38 17.4978 16.21 18.2778V21.0478H19.78C21.86 19.1278 23.06 16.3078 23.06 12.9578Z" fill="#4285F4"/>
<path d="M12.5001 23.7079C15.4701 23.7079 17.9601 22.7279 19.7801 21.0479L16.2101 18.2779C15.2301 18.9379 13.9801 19.3379 12.5001 19.3379C9.64005 19.3379 7.21005 17.4079 6.34005 14.8079H2.68005V17.6479C4.49005 21.2379 8.20005 23.7079 12.5001 23.7079Z" fill="#34A853"/>
<path d="M6.34 14.7978C6.12 14.1378 5.99 13.4378 5.99 12.7078C5.99 11.9778 6.12 11.2778 6.34 10.6178V7.77783H2.68C1.93 9.25783 1.5 10.9278 1.5 12.7078C1.5 14.4878 1.93 16.1578 2.68 17.6378L5.53 15.4178L6.34 14.7978Z" fill="#FBBC05"/>
<path d="M12.5001 6.08776C14.1201 6.08776 15.5601 6.64776 16.7101 7.72776L19.8601 4.57776C17.9501 2.79776 15.4701 1.70776 12.5001 1.70776C8.20005 1.70776 4.49005 4.17776 2.68005 7.77776L6.34005 10.6178C7.21005 8.01776 9.64005 6.08776 12.5001 6.08776Z" fill="#EA4335"/>
</svg>