<svg width="15" height="16" viewBox="0 0 15 16" fill="none" xmlns="http://www.w3.org/2000/svg">
<path d="M14 14.4889L10.4465 10.9354M12.0357 7.02881C12.0357 8.12013 11.712 9.18695 11.1057 10.0944C10.4994 11.0018 9.63766 11.709 8.62941 12.1266C7.62116 12.5443 6.51171 12.6535 5.44135 12.4406C4.371 12.2277 3.38782 11.7022 2.61614 10.9305C1.84445 10.1588 1.31893 9.17564 1.10603 8.10529C0.893119 7.03493 1.00239 5.92548 1.42002 4.91723C1.83765 3.90898 2.54489 3.04721 3.45229 2.44091C4.35969 1.8346 5.4265 1.51099 6.51783 1.51099C7.98125 1.51099 9.38473 2.09233 10.4195 3.12712C11.4543 4.16191 12.0357 5.56539 12.0357 7.02881Z" stroke="white" stroke-width="1.5" stroke-linecap="round" stroke-linejoin="round"/>
</svg>