<svg width="24" height="24" viewBox="0 0 24 24" fill="none" xmlns="http://www.w3.org/2000/svg">
<g clip-path="url(#clip0_1513_1271)">
<path d="M22.7165 12.8286C22.8706 12.6978 23.0424 12.5895 23.2268 12.5069C23.4035 12.4338 23.5606 12.3206 23.6858 12.1761C23.811 12.0317 23.9008 11.86 23.948 11.6748L23.9702 11.4362C23.9702 11.3918 23.9702 11.3502 23.9702 11.3059V11.1283C23.9702 11.0701 23.9702 11.0091 23.9702 10.9508C23.7566 8.27145 21.3823 6.51294 21.2742 6.42973C21.0827 6.2914 20.853 6.21582 20.6168 6.21338H17.9152H2.17179C1.90184 6.21383 1.63928 6.30159 1.42331 6.46356C1.20735 6.62554 1.04958 6.85302 0.973563 7.11205H0V11.0646L0.912542 11.0507V12.0631C0.909149 12.2766 0.950315 12.4886 1.03341 12.6853C1.11651 12.8821 1.23971 13.0594 1.39516 13.2058C1.72108 13.5025 2.15018 13.6598 2.59062 13.6441H8.73988C8.74488 14.6172 9.04043 15.5666 9.58863 16.3706C9.88666 16.8444 10.2994 17.2353 10.7885 17.5073C11.2777 17.7793 11.8276 17.9235 12.3873 17.9266H14.6534L15.4855 22.0234C15.5497 22.338 15.7211 22.6206 15.9705 22.823C16.2199 23.0253 16.5318 23.1348 16.8529 23.1329H22.4197C22.6525 23.1443 22.8848 23.1031 23.0995 23.0123C23.3141 22.9215 23.5056 22.7836 23.6595 22.6086C23.7896 22.4575 23.8861 22.2804 23.9425 22.0891C23.999 21.8978 24.0141 21.6967 23.9868 21.4992C23.5292 18.4869 22.833 13.8909 22.7165 12.8286ZM12.3873 15.6938C12.1487 15.6938 11.7882 15.6328 11.4109 15.0892C11.1241 14.6611 10.9671 14.1593 10.9588 13.6441H12.9004C13.1519 13.6465 13.395 13.7343 13.5901 13.893C13.7851 14.0518 13.9204 14.2721 13.9738 14.5178L14.2124 15.7077L12.3873 15.6938ZM20.4781 12.8453C20.5391 13.6496 21.3102 18.7393 21.6347 20.9111H17.5241L16.1373 14.0435V14.0158C15.9348 13.1143 14.9945 11.4251 12.906 11.4251H3.13149V9.31713H3.15091V8.42123H17.9097H19.3992H20.2313C20.6612 8.80955 21.5072 9.69158 21.7235 10.7983C21.1688 11.1478 20.492 11.7663 20.492 12.7399L20.4781 12.8453Z" fill="#E8EAED"/>
</g>
<defs>
<clipPath id="clip0_1513_1271">
<rect width="24" height="24" fill="white"/>
</clipPath>
</defs>
</svg>
