<svg width="24" height="24" viewBox="0 0 24 24" fill="none" xmlns="http://www.w3.org/2000/svg">
<g clip-path="url(#clip0_1513_1493)">
<path d="M12 16.75C13.045 16.75 13.9396 16.3779 14.6837 15.6337C15.4279 14.8896 15.8 13.995 15.8 12.95H8.2C8.2 13.995 8.57208 14.8896 9.31625 15.6337C10.0604 16.3779 10.955 16.75 12 16.75ZM7.25 9.15H11.05C11.05 8.6275 10.864 8.18021 10.4919 7.80813C10.1198 7.43604 9.6725 7.25 9.15 7.25C8.6275 7.25 8.18021 7.43604 7.80812 7.80813C7.43604 8.18021 7.25 8.6275 7.25 9.15ZM12.95 9.15H16.75C16.75 8.6275 16.564 8.18021 16.1919 7.80813C15.8198 7.43604 15.3725 7.25 14.85 7.25C14.3275 7.25 13.8802 7.43604 13.5081 7.80813C13.136 8.18021 12.95 8.6275 12.95 9.15ZM12 21.5C10.8125 21.5 9.70021 21.2744 8.66312 20.8231C7.62604 20.3719 6.72354 19.7623 5.95562 18.9944C5.18771 18.2265 4.57812 17.324 4.12687 16.2869C3.67562 15.2498 3.45 14.1375 3.45 12.95V2.5H20.55V12.95C20.55 14.1375 20.3244 15.2498 19.8731 16.2869C19.4219 17.324 18.8123 18.2265 18.0444 18.9944C17.2765 19.7623 16.374 20.3719 15.3369 20.8231C14.2998 21.2744 13.1875 21.5 12 21.5ZM12 19.6C13.8367 19.6 15.4042 18.9508 16.7025 17.6525C18.0008 16.3542 18.65 14.7867 18.65 12.95V4.4H5.35V12.95C5.35 14.7867 5.99917 16.3542 7.2975 17.6525C8.59583 18.9508 10.1633 19.6 12 19.6Z" fill="#E8EAED"/>
</g>
<defs>
<clipPath id="clip0_1513_1493">
<rect width="24" height="24" fill="white"/>
</clipPath>
</defs>
</svg>
