<svg width="24" height="24" viewBox="0 0 24 24" fill="none" xmlns="http://www.w3.org/2000/svg">
<g clip-path="url(#clip0_1630_2332)">
<path d="M21.0615 5.9579C19.0377 4.01053 16.0131 3.61053 13.5604 4.72632L12.5046 3.71579C12.0756 3.30526 11.3827 3.30526 10.9538 3.71579L10.8658 3.81053C10.7118 2.78947 9.7989 2 8.69904 2C7.48919 2 6.49931 2.94737 6.49931 4.10526C6.49931 4.2 6.49931 4.29474 6.53231 4.37895C5.86139 4.74737 5.39945 5.42105 5.39945 6.21053C5.39945 6.69474 5.57543 7.12632 5.86139 7.48421C5.58643 7.67368 5.39945 7.96842 5.39945 8.31579V9.73684C2.83677 10.6 1 12.9368 1 15.6842C1 19.1684 3.95863 22 7.59917 22C11.2397 22 14.1983 19.1684 14.1983 15.6842C14.1983 12.9368 12.3616 10.6 9.7989 9.73684V8.31579C9.7989 7.96842 9.61192 7.67368 9.33696 7.48421C9.62292 7.12632 9.7989 6.69474 9.7989 6.21053C9.7989 6.11579 9.7989 6.02105 9.7659 5.93684C9.96388 5.83158 10.1289 5.68421 10.2718 5.55789C11.2947 6.08421 11.9986 7.11579 11.9986 8.31579V8.4C12.1416 8.47368 12.2736 8.57895 12.4166 8.66316C12.6255 8.22105 12.9115 7.78947 13.2855 7.44211C15.0012 5.8 17.7949 5.8 19.5107 7.44211C21.2265 9.08421 21.2265 11.7579 19.5107 13.4C18.6308 14.2421 17.4979 14.6316 16.3211 14.6316C16.3981 14.9684 16.3981 15.3263 16.3981 15.6842C16.3981 16.0421 16.3651 16.3895 16.3211 16.7368C18.0479 16.7368 19.7527 16.1368 21.0615 14.8842C23.6462 12.4211 23.6462 8.42105 21.0615 5.9579ZM8.69904 3.05263C9.30396 3.05263 9.7989 3.52632 9.7989 4.10526C9.7989 4.45263 9.61192 4.74737 9.33696 4.93684C8.94101 4.43158 8.31409 4.10526 7.59917 4.10526C7.59917 3.52632 8.09411 3.05263 8.69904 3.05263ZM6.96125 5.37895C7.35721 5.88421 7.98413 6.21053 8.69904 6.21053C8.69904 6.78947 8.2041 7.26316 7.59917 7.26316C6.99425 7.26316 6.49931 6.78947 6.49931 6.21053C6.49931 5.86316 6.68629 5.56842 6.96125 5.37895ZM11.9986 15.6842C11.9986 18.0105 10.0299 19.8947 7.59917 19.8947C5.16848 19.8947 3.19972 18.0105 3.19972 15.6842C3.19972 13.3579 5.16848 11.4737 7.59917 11.4737C10.0299 11.4737 11.9986 13.3579 11.9986 15.6842Z" fill="white"/>
</g>
<defs>
<clipPath id="clip0_1630_2332">
<rect width="24" height="24" fill="white"/>
</clipPath>
</defs>
</svg>
