<svg width="24" height="24" viewBox="0 0 24 24" fill="none" xmlns="http://www.w3.org/2000/svg">
<g clip-path="url(#clip0_1513_1914)">
<path d="M3.4975 2.5V12.95C3.4975 14.09 3.6875 15.23 4.1625 16.275C4.6375 17.32 5.2075 18.175 5.9675 18.935C6.7275 19.695 7.6775 20.36 8.6275 20.74C9.7675 21.31 10.9075 21.5 12.0475 21.5C13.1875 21.5 14.3275 21.31 15.3725 20.835C16.4175 20.36 17.2725 19.79 18.0325 19.03C18.7925 18.27 19.4575 17.32 19.8375 16.37C20.3125 15.325 20.5025 14.185 20.5025 13.045V2.5H3.4975ZM18.6975 12.95C18.6975 14.755 18.0325 16.37 16.7975 17.7C15.5625 19.03 13.9475 19.6 12.0475 19.6C10.1475 19.6 8.6275 18.935 7.2975 17.7C5.9675 16.465 5.3975 14.85 5.3975 12.95V4.4H18.6975V12.95ZM11.0975 9.15H7.2975C7.2975 8.675 7.4875 8.2 7.8675 7.82C8.2475 7.44 8.7225 7.25 9.1975 7.25C9.6725 7.25 10.1475 7.44 10.5275 7.82C10.9075 8.2 11.0975 8.675 11.0975 9.15ZM15.8475 16.75H8.2475C8.2475 15.705 8.6275 14.85 9.3875 14.09C10.1475 13.33 11.0025 12.95 12.0475 12.95C13.0925 12.95 13.9475 13.33 14.7075 14.09C15.4675 14.85 15.8475 15.705 15.8475 16.75ZM16.7975 9.15H12.9975C12.9975 8.675 13.1875 8.2 13.5675 7.82C13.9475 7.44 14.4225 7.25 14.8975 7.25C15.3725 7.25 15.8475 7.44 16.2275 7.82C16.6075 8.2 16.7975 8.675 16.7975 9.15ZM16.7975 9.815C16.7975 9.815 16.0375 10.67 16.0375 11.24C16.0375 11.24 16.0375 12 16.7975 12C17.5575 12 17.5575 11.24 17.5575 11.145C17.5575 10.765 16.7975 9.815 16.7975 9.815Z" fill="#E8EAED"/>
</g>
<defs>
<clipPath id="clip0_1513_1914">
<rect width="24" height="24" fill="white"/>
</clipPath>
</defs>
</svg>
