<svg width="24" height="24" viewBox="0 0 24 24" fill="none" xmlns="http://www.w3.org/2000/svg">
<g clip-path="url(#clip0_1513_1271)">
<path d="M21.2913 17.57L6.80539 3.09833C6.36558 2.65996 5.76993 2.4138 5.14896 2.4138C4.52799 2.4138 3.93234 2.65996 3.49253 3.09833L2.06704 4.52383C1.84929 4.74123 1.67654 4.99943 1.55868 5.28366C1.44081 5.56788 1.38014 5.87256 1.38014 6.18026C1.38014 6.48795 1.44081 6.79263 1.55868 7.07686C1.67654 7.36108 1.84929 7.61928 2.06704 7.83668L16.5387 22.3083C16.7567 22.5275 17.0159 22.7015 17.3014 22.8202C17.5869 22.9389 17.8931 23 18.2022 23C18.5114 23 18.8176 22.9389 19.103 22.8202C19.3885 22.7015 19.6478 22.5275 19.8658 22.3083L21.2913 20.8828C21.7298 20.4425 21.9761 19.8464 21.9761 19.225C21.9761 18.6035 21.7298 18.0074 21.2913 17.5671V17.57ZM3.66074 6.18026C3.66078 6.17169 3.66257 6.16323 3.666 6.15538C3.66943 6.14754 3.67444 6.14048 3.6807 6.13464L5.1062 4.70914C5.11864 4.6978 5.13497 4.69167 5.15181 4.69204C5.16772 4.69211 5.18301 4.69822 5.19458 4.70914L7.57801 7.09257L6.06698 8.6036L3.68355 6.22017C3.67705 6.2156 3.67164 6.20965 3.6677 6.20275C3.66376 6.19586 3.66139 6.18817 3.66074 6.18026ZM19.6634 19.272L18.2379 20.6975C18.2323 20.7037 18.2254 20.7086 18.2178 20.7119C18.2102 20.7153 18.202 20.717 18.1937 20.717C18.1854 20.717 18.1771 20.7153 18.1695 20.7119C18.1619 20.7086 18.1551 20.7037 18.1495 20.6975L7.67779 10.2201L9.18882 8.70909L19.6634 19.1836C19.6692 19.1891 19.6737 19.1957 19.6767 19.2031C19.6797 19.2105 19.6809 19.2185 19.6805 19.2264C19.6808 19.2348 19.6795 19.2431 19.6765 19.2509C19.6736 19.2588 19.6691 19.2659 19.6634 19.272ZM14.1638 3.21807L12.7896 3.82248L12.1681 5.51597L11.5979 3.83389L10.2237 3.22948L11.5979 2.61651L12.228 1L12.7982 2.61651L14.1638 3.21807ZM7.60652 18.5906L5.57091 19.4858L4.62153 22.0004L3.76623 19.4858L1.71066 18.5849L3.76623 17.684L4.70706 15.2692L5.56236 17.684L7.60652 18.5906ZM22.6199 10.1146L20.9093 10.9186L20.1509 13.0626L19.3811 10.9585L17.6278 10.2429L19.3384 9.43609L20.0796 7.37767L20.8608 9.39903L22.6199 10.1146Z" fill="#E8EAED"/>
</g>
<defs>
<clipPath id="clip0_1513_1271">
<rect width="24" height="24" fill="white"/>
</clipPath>
</defs>
</svg>
