<svg width="24" height="24" viewBox="0 0 24 24" fill="none" xmlns="http://www.w3.org/2000/svg">
<g clip-path="url(#clip0_1634_2648)">
<path d="M16.1495 12.746L15.5013 12.0541C15.0684 11.5443 14.8826 11.0922 14.9544 10.7163C15.0114 10.4118 15.2437 10.0958 15.6237 9.79368C16.0027 9.50855 16.2637 9.07187 16.3501 8.57815C16.4029 8.28002 16.3656 7.97121 16.2437 7.69829C16.1218 7.42536 15.922 7.20312 15.6744 7.06508C15.1344 6.76046 14.525 6.63382 13.9204 6.70057C13.3157 6.76731 12.7418 7.02457 12.2685 7.44104C12.0901 7.60258 11.938 7.79599 11.8188 8.01305L9.85298 5.86108C9.67378 5.66401 9.46058 5.5077 9.22573 5.4012C8.99087 5.2947 8.73901 5.24013 8.48473 5.24063C8.23178 5.24031 7.98127 5.29454 7.74755 5.40022C7.51384 5.5059 7.30153 5.66095 7.1228 5.85647C6.75971 6.25462 6.55584 6.79371 6.55584 7.3557C6.55584 7.91769 6.75971 8.45678 7.1228 8.85493L9.07384 10.9861C8.96223 11.0651 8.85885 11.1571 8.76556 11.2606C8.53516 11.5105 8.36664 11.8202 8.27578 12.1607C8.18493 12.5012 8.17473 12.8613 8.24612 13.2073C8.02863 13.3116 7.83096 13.4594 7.66335 13.6432C7.43194 13.8962 7.26324 14.2093 7.17311 14.553C7.08298 14.8968 7.07439 15.26 7.14814 15.6084C6.93215 15.7131 6.73595 15.861 6.56959 16.0443C6.38904 16.241 6.24579 16.4747 6.14805 16.7319C6.05031 16.9892 6 17.265 6 17.5436C6 17.8221 6.05031 18.0979 6.14805 18.3552C6.24579 18.6124 6.38904 18.8461 6.56959 19.0428L8.48684 21.144C9.74107 22.5164 11.1938 23.2406 12.693 23.2406H12.788C13.4766 23.2224 14.1552 23.0552 14.7843 22.7488C15.4135 22.4423 15.9808 22.0027 16.4536 21.4554C18.3138 19.3426 18.8163 15.6753 16.1495 12.746ZM13.035 9.09711C13.0836 8.96759 13.1554 8.84996 13.2462 8.75114C13.4484 8.57377 13.6874 8.45345 13.9422 8.40076C14.197 8.34807 14.4598 8.36463 14.7073 8.44898C14.2124 8.81769 13.8213 9.32963 13.5777 9.92746L12.9675 9.26088L13.035 9.09711ZM15.3577 20.286C15.0238 20.6753 14.622 20.9879 14.176 21.2053C13.7301 21.4228 13.2488 21.5407 12.7605 21.5523C11.652 21.5753 10.554 21.0195 9.57849 19.9377L7.66124 17.8434C7.58799 17.7623 7.54693 17.6529 7.54693 17.5389C7.54693 17.425 7.58799 17.3156 7.66124 17.2345C7.73444 17.1549 7.83351 17.1102 7.93679 17.1102C8.04006 17.1102 8.13914 17.1549 8.21234 17.2345L8.95348 18.051C9.09863 18.2083 9.29482 18.2966 9.49931 18.2966C9.70379 18.2966 9.89998 18.2083 10.0451 18.051C10.1888 17.8917 10.2693 17.6772 10.2693 17.4536C10.2693 17.23 10.1888 17.0154 10.0451 16.8562L8.75711 15.4446C8.72034 15.4047 8.69115 15.3573 8.67124 15.3051C8.65132 15.2528 8.64107 15.1968 8.64107 15.1402C8.64107 15.0836 8.65132 15.0275 8.67124 14.9753C8.69115 14.923 8.72034 14.8756 8.75711 14.8357C8.82856 14.7604 8.9239 14.7183 9.02316 14.7181C9.07404 14.7181 9.12439 14.7294 9.1712 14.7512C9.218 14.773 9.2603 14.8048 9.29555 14.8449L10.6047 16.2727C10.6755 16.352 10.7603 16.4149 10.8539 16.4577C10.9475 16.5005 11.048 16.5223 11.1495 16.5218C11.3018 16.5217 11.4508 16.4723 11.5774 16.3797C11.7041 16.2872 11.8028 16.1558 11.8611 16.002C11.9194 15.8482 11.9347 15.679 11.905 15.5158C11.8753 15.3525 11.8019 15.2025 11.6942 15.0848L9.84031 13.0528C9.78535 12.9932 9.74775 12.9172 9.73222 12.8343C9.7167 12.7514 9.72394 12.6654 9.75305 12.587C9.78216 12.5086 9.83183 12.4414 9.89582 12.3938C9.95981 12.3461 10.0353 12.3202 10.1127 12.3193C10.1639 12.319 10.2147 12.3301 10.2619 12.3519C10.3091 12.3737 10.3517 12.4058 10.3872 12.4462L12.258 14.4967C12.332 14.5776 12.4204 14.6413 12.5177 14.6837C12.615 14.7262 12.7191 14.7465 12.8239 14.7434C12.9764 14.7432 13.1255 14.6936 13.2523 14.601C13.379 14.5083 13.4779 14.3768 13.5364 14.2229C13.5949 14.069 13.6103 13.8996 13.5809 13.7362C13.5514 13.5727 13.4783 13.4224 13.3708 13.3042L8.21023 7.65324C8.17191 7.61434 8.14112 7.56743 8.11971 7.51529C8.0983 7.46314 8.0867 7.40684 8.08559 7.3497C8.08448 7.29257 8.09389 7.23577 8.11326 7.18269C8.13262 7.1296 8.16156 7.0813 8.19834 7.04066C8.23512 7.00002 8.27899 6.96787 8.32737 6.9461C8.37574 6.92434 8.42762 6.91341 8.47993 6.91397C8.53225 6.91453 8.58392 6.92655 8.6319 6.94934C8.67988 6.97213 8.72317 7.00521 8.75922 7.04663L15.0557 13.9431C16.0587 15.0433 16.462 16.2242 16.462 17.3198C16.4542 18.4294 16.0531 19.4926 15.3429 20.286H15.3577Z" fill="white"/>
<path d="M12.0462 5.65005C12.0001 5.65032 11.9545 5.63974 11.9132 5.61916C11.8063 5.56928 9.3 4.32919 9.3 2.29327C9.29874 1.98995 9.38781 1.69311 9.55587 1.44059C9.72393 1.18807 9.96336 0.991307 10.2437 0.875366C10.524 0.759425 10.8324 0.729559 11.1298 0.789575C11.4271 0.849591 11.6998 0.996771 11.9132 1.21236L12.0557 1.3549L12.1983 1.21236C12.4117 0.996771 12.6844 0.849591 12.9817 0.789575C13.2791 0.729559 13.5875 0.759425 13.8678 0.875366C14.1481 0.991307 14.3876 1.18807 14.5556 1.44059C14.7237 1.69311 14.8127 1.98995 14.8115 2.29327C14.8115 4.32207 12.3052 5.56928 12.1983 5.61916C12.1512 5.64275 12.0988 5.65341 12.0462 5.65005Z" fill="white"/>
</g>
<defs>
<clipPath id="clip0_1634_2648">
<rect width="24" height="24" fill="white"/>
</clipPath>
</defs>
</svg>
