<svg width="24" height="24" viewBox="0 0 24 24" fill="none" xmlns="http://www.w3.org/2000/svg">
<g clip-path="url(#clip0_1513_1564)">
<path d="M18.8505 12.0224C18.75 12.0038 16.3693 11.5383 14.1924 12.4641C13.3423 12.8559 12.5905 13.4324 11.9916 14.1517V12.5196C13.3016 12.3565 14.4978 11.693 15.3298 10.668C17.8083 7.62875 16.7052 2.07922 16.6523 1.8438L16.4778 1H5.36813L5.19355 1.8438C5.14593 2.07922 4.0429 7.62875 6.51612 10.668C7.34809 11.693 8.54427 12.3565 9.8543 12.5196V21H11.9704V18.048C12.6786 18.289 13.4206 18.4157 14.1685 18.4236C15.0829 18.4375 15.982 18.1877 16.7582 17.7041C17.5312 17.1941 18.1892 16.5284 18.6903 15.7495C19.1913 14.9707 19.5242 14.0958 19.6678 13.1809L19.808 12.2154L18.8505 12.0224ZM9.87547 10.3691C9.20469 10.231 8.60209 9.86568 8.16934 9.33488C7.01341 7.92501 6.9367 5.38566 7.08483 3.65044C8.25663 4.36199 9.86488 5.73747 9.86488 7.92765L9.87547 10.3691ZM9.87547 3.11877H14.7161C14.9224 4.82225 14.9647 7.77159 13.6871 9.33488C13.2566 9.86314 12.6583 10.2281 11.9916 10.3691V7.92765C11.99 7.02267 11.8004 6.12788 11.4348 5.30005C11.0691 4.47222 10.5354 3.72942 9.86753 3.11877H9.87547ZM15.6393 15.9187C14.8748 16.4107 13.9464 16.3816 13.0999 16.1832C13.576 15.5087 14.2585 14.7495 15.0256 14.4215C15.732 14.1404 16.4873 14.0029 17.2475 14.0168H17.266C16.9226 14.797 16.3568 15.4585 15.6393 15.9187Z" fill="#E8EAED"/>
</g>
<defs>
<clipPath id="clip0_1513_1564">
<rect width="24" height="24" fill="white"/>
</clipPath>
</defs>
</svg>
