<svg width="24" height="24" viewBox="0 0 24 24" fill="none" xmlns="http://www.w3.org/2000/svg">
<g clip-path="url(#clip0_1513_1043)">
<path d="M4 15.5C3.16667 15.5 2.45833 15.2083 1.875 14.625C1.29167 14.0417 1 13.3333 1 12.5C1 11.6667 1.29167 10.9583 1.875 10.375C2.45833 9.79167 3.16667 9.5 4 9.5V7.5C4 6.95 4.19583 6.47917 4.5875 6.0875C4.97917 5.69583 5.45 5.5 6 5.5H9C9 4.66667 9.29167 3.95833 9.875 3.375C10.4583 2.79167 11.1667 2.5 12 2.5C12.8333 2.5 13.5417 2.79167 14.125 3.375C14.7083 3.95833 15 4.66667 15 5.5H18C18.55 5.5 19.0208 5.69583 19.4125 6.0875C19.8042 6.47917 20 6.95 20 7.5V9.5C20.8333 9.5 21.5417 9.79167 22.125 10.375C22.7083 10.9583 23 11.6667 23 12.5C23 13.3333 22.7083 14.0417 22.125 14.625C21.5417 15.2083 20.8333 15.5 20 15.5V19.5C20 20.05 19.8042 20.5208 19.4125 20.9125C19.0208 21.3042 18.55 21.5 18 21.5H6C5.45 21.5 4.97917 21.3042 4.5875 20.9125C4.19583 20.5208 4 20.05 4 19.5V15.5ZM9 13.5C9.41667 13.5 9.77083 13.3542 10.0625 13.0625C10.3542 12.7708 10.5 12.4167 10.5 12C10.5 11.5833 10.3542 11.2292 10.0625 10.9375C9.77083 10.6458 9.41667 10.5 9 10.5C8.58333 10.5 8.22917 10.6458 7.9375 10.9375C7.64583 11.2292 7.5 11.5833 7.5 12C7.5 12.4167 7.64583 12.7708 7.9375 13.0625C8.22917 13.3542 8.58333 13.5 9 13.5ZM15 13.5C15.4167 13.5 15.7708 13.3542 16.0625 13.0625C16.3542 12.7708 16.5 12.4167 16.5 12C16.5 11.5833 16.3542 11.2292 16.0625 10.9375C15.7708 10.6458 15.4167 10.5 15 10.5C14.5833 10.5 14.2292 10.6458 13.9375 10.9375C13.6458 11.2292 13.5 11.5833 13.5 12C13.5 12.4167 13.6458 12.7708 13.9375 13.0625C14.2292 13.3542 14.5833 13.5 15 13.5ZM8 17.5H16V15.5H8V17.5ZM6 19.5H18V7.5H6V19.5Z" fill="#E8EAED"/>
</g>
<defs>
<clipPath id="clip0_1513_1043">
<rect width="24" height="24" fill="white"/>
</clipPath>
</defs>
</svg>
