<svg width="24" height="24" viewBox="0 0 24 24" fill="none" xmlns="http://www.w3.org/2000/svg">
<g clip-path="url(#clip0_1632_2414)">
<path d="M23.0768 10.7264C23.0024 10.5713 22.886 10.4401 22.7409 10.3478C22.5957 10.2555 22.4276 10.2058 22.2556 10.2042C22.0931 10.2023 21.9334 10.2465 21.795 10.3315C21.6566 10.4166 21.5451 10.5392 21.4734 10.685C21.3676 10.8138 20.5532 11.7156 17.8203 12.3137L16.7207 5.80341C16.6608 5.39703 16.499 5.01241 16.2504 4.68539C16.0018 4.35837 15.6745 4.09958 15.299 3.93314C15.0307 3.81824 14.7419 3.75877 14.4501 3.75831C14.0263 3.77278 13.6141 3.90027 13.2561 4.12758C12.8982 4.3549 12.6075 4.67376 12.4142 5.05116C12.2141 5.44914 11.8184 5.91154 11.6619 5.95064C11.4319 5.95064 11.2663 5.90693 10.8545 5.03046C10.6632 4.61984 10.3502 4.27798 9.95804 4.05123C9.56587 3.82449 9.11346 3.72383 8.66214 3.76291C8.12181 3.76796 7.60209 3.97094 7.20135 4.33342C6.8135 4.69896 6.56194 5.18586 6.48821 5.7137L5.48751 12.155C3.36188 11.5477 2.72005 10.7862 2.63264 10.662C2.56987 10.5142 2.46658 10.3872 2.33469 10.2956C2.2028 10.204 2.0477 10.1516 1.88729 10.1444C1.7163 10.134 1.54582 10.1716 1.39504 10.2529C1.24425 10.3342 1.11915 10.4559 1.03382 10.6045C0.481707 11.4763 0.343679 12.6749 0.672645 13.9102C1.15344 15.7506 2.56362 17.4 4.53742 18.4582C6.72389 19.6168 9.15988 20.2248 11.6343 20.2296C11.754 20.2296 12.0346 20.2549 12.4326 20.2549C14.1303 20.2549 17.9882 19.965 20.8684 17.5611C24.066 14.8856 23.7095 11.9226 23.0768 10.7264ZM8.30557 5.98745C8.31796 5.87476 8.36636 5.76908 8.4436 5.68609C8.47993 5.65351 8.52257 5.62874 8.56887 5.61331C8.61517 5.59788 8.66414 5.59211 8.71275 5.59637C8.74793 5.59997 8.78339 5.59997 8.81857 5.59637C8.89495 5.58866 8.97182 5.60517 9.03829 5.64356C9.10476 5.68196 9.15747 5.7403 9.18895 5.81032C9.53632 6.55106 10.1091 7.78871 11.6619 7.78871C13.0284 7.78871 13.898 6.19449 14.0475 5.89543C14.0475 5.89543 14.2224 5.59637 14.4501 5.59637C14.4952 5.59667 14.5398 5.60606 14.5812 5.62398C14.6709 5.67384 14.7473 5.74465 14.8038 5.83036C14.8602 5.91607 14.8952 6.01416 14.9056 6.11628L16.0052 12.622L16.1892 13.7078H7.10703L7.29107 12.5254L8.30557 5.98745ZM19.6882 16.144C16.5596 18.755 11.7816 18.3915 11.7333 18.3869H11.6159C9.45109 18.3738 7.32101 17.8413 5.40469 16.8341C3.88179 16.0152 2.80517 14.7775 2.4532 13.4363C2.39693 13.2271 2.36073 13.0129 2.34508 12.7968C3.23418 13.3218 4.19742 13.7095 5.20225 13.947L5.12173 14.4692C5.10098 14.6015 5.10932 14.7366 5.14617 14.8653C5.18303 14.994 5.24751 15.1131 5.33512 15.2143C5.42273 15.3154 5.53136 15.3963 5.65343 15.4512C5.7755 15.5061 5.90808 15.5337 6.04192 15.5321H17.2797C17.4135 15.5319 17.5457 15.5026 17.667 15.4462C17.7883 15.3898 17.8959 15.3075 17.9822 15.2052C18.0685 15.103 18.1314 14.9831 18.1666 14.854C18.2018 14.7249 18.2085 14.5897 18.186 14.4577L18.1285 14.1127C19.3633 13.8806 20.5531 13.4527 21.6528 12.8451C21.5999 13.7055 21.1858 14.8925 19.6882 16.144Z" fill="white"/>
<path d="M13.9278 10.1792C13.9015 10.0964 13.8565 10.0207 13.7962 9.95805C13.736 9.89542 13.6621 9.8475 13.5804 9.81801L12.6924 9.49135L12.1081 8.7483C12.0543 8.67945 11.9856 8.62377 11.907 8.58547C11.8285 8.54717 11.7423 8.52727 11.6549 8.52727C11.5676 8.52727 11.4813 8.54717 11.4028 8.58547C11.3243 8.62377 11.2555 8.67945 11.2017 8.7483L10.6197 9.49135L9.73173 9.81801C9.64984 9.8479 9.57581 9.896 9.51524 9.9587C9.45467 10.0214 9.40915 10.097 9.38211 10.1799C9.35508 10.2628 9.34724 10.3507 9.35919 10.4371C9.37113 10.5235 9.40255 10.606 9.45108 10.6784L9.97788 11.4628L10.0147 12.4083C10.0202 12.5368 10.0685 12.6598 10.1518 12.7577C10.2352 12.8556 10.3488 12.9229 10.4748 12.9489C10.5148 12.9582 10.5557 12.9628 10.5967 12.9627C10.6266 12.965 10.6566 12.965 10.6864 12.9627L10.7554 12.9466L11.6549 12.6752L12.5751 12.9328C12.6589 12.9566 12.7469 12.961 12.8327 12.9458C12.9184 12.9305 12.9995 12.896 13.07 12.8448C13.1404 12.7937 13.1983 12.7272 13.2393 12.6504C13.2803 12.5735 13.3033 12.4884 13.3066 12.4014L13.3412 11.4559L13.868 10.6715C13.9142 10.5992 13.9435 10.5174 13.9539 10.4321C13.9643 10.3469 13.9553 10.2605 13.9278 10.1792ZM12.2944 10.959C12.2358 11.0482 12.2025 11.1515 12.1978 11.2581L12.184 11.6331L11.8113 11.525C11.7089 11.4973 11.6009 11.4973 11.4985 11.525L11.1442 11.6331L11.1304 11.2581C11.1268 11.1513 11.0934 11.0477 11.0338 10.959L10.8245 10.6462L11.1787 10.5151C11.2781 10.4775 11.3655 10.414 11.4318 10.331L11.6618 10.0343L11.8919 10.331C11.9585 10.4146 12.0469 10.4782 12.1472 10.5151L12.5015 10.6462L12.2944 10.959Z" fill="white"/>
</g>
<defs>
<clipPath id="clip0_1632_2414">
<rect width="24" height="24" fill="white"/>
</clipPath>
</defs>
</svg>
