<svg width="15" height="16" viewBox="0 0 15 16" fill="none" xmlns="http://www.w3.org/2000/svg">
<path d="M3.35179 1V2.68688M5.55017 1V2.68688M7.71373 1V2.68688M9.94258 1V2.68688M12.1366 1V2.68688M0.905273 4.81779H13.9998M11.7688 15H3.13631C2.5446 15 1.97713 14.7649 1.55873 14.3465C1.14033 13.9281 0.905273 13.3607 0.905273 12.769V4.13433C0.90585 3.543 1.14116 2.97609 1.5595 2.55816C1.97783 2.14023 2.54498 1.90547 3.13631 1.90547H11.7688C12.3601 1.90547 12.9272 2.14023 13.3456 2.55816C13.7639 2.97609 13.9992 3.543 13.9998 4.13433V12.769C13.9998 13.3607 13.7647 13.9281 13.3463 14.3465C12.9279 14.7649 12.3605 15 11.7688 15ZM5.02779 6.9291H4.00478V8.01741H5.02779V6.9291ZM7.96404 6.9291H6.94103V8.01741H7.96404V6.9291ZM10.9025 6.9291H9.87946V8.01741H10.9025V6.9291ZM5.02561 9.4801H4.0026V10.5684H5.02561V9.4801ZM7.96186 9.4801H6.93885V10.5684H7.96186V9.4801ZM10.9003 9.4801H9.87729V10.5684H10.9003V9.4801ZM5.02343 12.0311H4.00042V13.1194H5.02343V12.0311ZM7.95969 12.0311H6.93668V13.1194H7.95969V12.0311ZM10.8981 12.0311H9.87511V13.1194H10.8981V12.0311Z" stroke="black" stroke-linecap="round" stroke-linejoin="round"/>
</svg>