<svg width="16" height="16" viewBox="0 0 16 16" fill="none" xmlns="http://www.w3.org/2000/svg">
<path d="M3.15349 0.5V2.30737M5.5089 0.5V2.30737M7.827 0.5V2.30737M10.2151 0.5V2.30737M12.5658 0.5V2.30737M0.532227 4.59048H14.5621M14.5621 6.6194V3.85821C14.5615 3.22464 14.3093 2.61723 13.8611 2.16945C13.4129 1.72167 12.8053 1.47015 12.1717 1.47015H2.92262C2.28905 1.47015 1.6814 1.72167 1.23318 2.16945C0.784961 2.61723 0.532845 3.22464 0.532227 3.85821V13.1096C0.532227 13.7436 0.784071 14.3516 1.23236 14.7999C1.68064 15.2482 2.28865 15.5 2.92262 15.5H7.82001M7.74071 10.514L11.1549 7.20709M11.1549 7.20709L14.5621 10.514M11.1549 7.20709V15.5M3.65956 6.6194H2.56348V7.78545H3.65956V6.6194ZM6.25984 6.6194H5.16376V7.78545H6.25984V6.6194ZM3.65956 9.35261H2.56348V10.5187H3.65956V9.35261ZM6.25984 9.35261H5.16376V10.5187H6.25984V9.35261ZM3.65956 12.0858H2.56348V13.2519H3.65956V12.0858ZM6.25984 12.0858H5.16376V13.2519H6.25984V12.0858Z" stroke="black" stroke-linecap="round" stroke-linejoin="round"/>
</svg>