<svg width="16" height="16" viewBox="0 0 16 16" fill="none" xmlns="http://www.w3.org/2000/svg">
<path d="M3.1535 0.5V2.30737M5.50891 0.502332V2.30737M7.827 0.502332V2.30737M10.2151 0.502332V2.30737M12.5658 0.502332V2.30737M0.532227 4.59049H14.5621M14.5621 6.6194V3.85821C14.5621 3.22424 14.3102 2.61623 13.8619 2.16795C13.4137 1.71966 12.8057 1.46782 12.1717 1.46782H2.92262C2.28865 1.46782 1.68064 1.71966 1.23236 2.16795C0.784071 2.61623 0.532227 3.22424 0.532227 3.85821V13.1096C0.532227 13.7436 0.784071 14.3516 1.23236 14.7999C1.68064 15.2482 2.28865 15.5 2.92262 15.5H7.82001M7.74072 12.1908L11.1549 15.5M11.1549 15.5L14.5621 12.1908M11.1549 15.5V7.20476M3.65956 6.6194H2.56348V7.78545H3.65956V6.6194ZM6.25984 6.6194H5.16376V7.78545H6.25984V6.6194ZM3.65956 9.35028H2.56348V10.5163H3.65956V9.35028ZM6.25984 9.35028H5.16376V10.5163H6.25984V9.35028ZM3.65956 12.0835H2.56348V13.2495H3.65956V12.0835ZM6.25984 12.0835H5.16376V13.2495H6.25984V12.0835Z" stroke="black" stroke-linecap="round" stroke-linejoin="round"/>
</svg>