<svg width="17" height="16" viewBox="0 0 17 16" fill="none" xmlns="http://www.w3.org/2000/svg">
<path d="M8.54712 0.5C7.06376 0.5 5.61371 0.939867 4.38035 1.76398C3.14698 2.58809 2.18568 3.75943 1.61803 5.12987C1.05037 6.50032 0.901844 8.00832 1.19123 9.46317C1.48062 10.918 2.19493 12.2544 3.24382 13.3033C4.29271 14.3522 5.62909 15.0665 7.08394 15.3559C8.5388 15.6453 10.0468 15.4968 11.4172 14.9291C12.7877 14.3614 13.959 13.4001 14.7831 12.1668C15.6073 10.9334 16.0471 9.48336 16.0471 8C16.0471 6.01087 15.2569 4.10322 13.8504 2.6967C12.4439 1.29018 10.5362 0.5 8.54712 0.5ZM8.54712 0.5C6.42605 0.5 4.70775 3.85796 4.70775 8C4.70775 12.142 6.42605 15.5 8.54712 15.5C10.6682 15.5 12.3865 12.142 12.3865 8C12.3865 3.85796 10.6682 0.5 8.54712 0.5ZM8.54712 0.5V15.4952M1.04712 8.10724H16.0471M3.04188 2.90467C3.04188 2.90467 4.75065 4.36082 8.54712 4.36082C12.3436 4.36082 13.9547 2.80219 13.9547 2.80219M14.0023 13.3575C14.0023 13.3575 12.3936 11.7965 8.59717 11.7965C4.8007 11.7965 3.09193 13.2431 3.09193 13.2431" stroke="white" stroke-opacity="0.5" stroke-miterlimit="10"/>
</svg>