<svg width="17" height="16" viewBox="0 0 17 16" fill="none" xmlns="http://www.w3.org/2000/svg">
<path d="M8.98291 0.5C7.49955 0.5 6.0495 0.939867 4.81614 1.76398C3.58277 2.58809 2.62147 3.75943 2.05382 5.12987C1.48616 6.50032 1.33763 8.00832 1.62702 9.46317C1.91641 10.918 2.63072 12.2544 3.67961 13.3033C4.72851 14.3522 6.06488 15.0665 7.51974 15.3559C8.97459 15.6453 10.4826 15.4968 11.853 14.9291C13.2235 14.3614 14.3948 13.4001 15.2189 12.1668C16.043 10.9334 16.4829 9.48336 16.4829 8C16.4829 6.01087 15.6927 4.10322 14.2862 2.6967C12.8797 1.29018 10.972 0.5 8.98291 0.5ZM8.98291 0.5C6.86185 0.5 5.14354 3.85796 5.14354 8C5.14354 12.142 6.86185 15.5 8.98291 15.5C11.104 15.5 12.8223 12.142 12.8223 8C12.8223 3.85796 11.104 0.5 8.98291 0.5ZM8.98291 0.5V15.4952M1.48291 8.10724H16.4829M3.47767 2.90467C3.47767 2.90467 5.18644 4.36082 8.98291 4.36082C12.7794 4.36082 14.3904 2.80219 14.3904 2.80219M14.4381 13.3575C14.4381 13.3575 12.8294 11.7965 9.03296 11.7965C5.23649 11.7965 3.52772 13.2431 3.52772 13.2431" stroke="black" stroke-miterlimit="10"/>
</svg>