<svg width="29" height="12" viewBox="0 0 29 12" transform="scale(0.8)" fill="none" xmlns="http://www.w3.org/2000/svg">
<path d="M16.0329 5.31034H25.882C26.5571 5.28808 27.1972 5.00425 27.6669 4.51881C28.1366 4.03337 28.3992 3.38434 28.3992 2.70886C28.3992 2.03339 28.1366 1.38436 27.6669 0.898921C27.1972 0.413481 26.5571 0.129648 25.882 0.107393H16.0329C15.6841 0.095894 15.3365 0.154672 15.0108 0.280232C14.6851 0.405792 14.388 0.595569 14.1372 0.838274C13.8864 1.08098 13.6869 1.37165 13.5507 1.69301C13.4145 2.01436 13.3443 2.35983 13.3443 2.70886C13.3443 3.0579 13.4145 3.40337 13.5507 3.72472C13.6869 4.04608 13.8864 4.33675 14.1372 4.57946C14.388 4.82216 14.6851 5.01194 15.0108 5.1375C15.3365 5.26306 15.6841 5.32184 16.0329 5.31034ZM3.075 11.9348H14.3966C15.0717 11.9126 15.7117 11.6287 16.1814 11.1433C16.6511 10.6579 16.9137 10.0088 16.9137 9.33336C16.9137 8.65788 16.6511 8.00886 16.1814 7.52342C15.7117 7.03798 15.0717 6.75414 14.3966 6.73189H3.075C2.39989 6.75414 1.75987 7.03798 1.29017 7.52342C0.820464 8.00886 0.557872 8.65788 0.557872 9.33336C0.557872 10.0088 0.820464 10.6579 1.29017 11.1433C1.75987 11.6287 2.39989 11.9126 3.075 11.9348ZM2.00389 5.21707H3.15413V1.02024H4.64069V0H0.517334V1.01741H2.00389V5.21707ZM6.14137 5.21707H7.29162V1.21524H7.30575L8.63121 5.21425H9.5158L10.8837 1.21524V5.21425H12.048V0H10.3015L9.10883 3.40268H9.08057L7.87945 0.0113043H6.14137V5.21707ZM22.9174 8.19866C22.7638 7.87845 22.5361 7.59943 22.2533 7.38473C21.9566 7.16844 21.6191 7.0146 21.2613 6.93255C20.8722 6.83482 20.4727 6.78452 20.0715 6.78276H18.3475V11.997H20.2269C20.6038 12.0001 20.9788 11.9429 21.3376 11.8274C21.6773 11.7247 21.9947 11.5588 22.273 11.3385C22.5482 11.1177 22.7711 10.8388 22.9259 10.5218C23.0921 10.1686 23.1734 9.78148 23.1633 9.3913C23.1738 8.98016 23.0897 8.5721 22.9174 8.19866ZM21.8265 10.1007C21.7398 10.2978 21.6058 10.4706 21.4365 10.6037C21.2612 10.7323 21.061 10.8227 20.8487 10.8694C20.607 10.9264 20.3593 10.9539 20.111 10.9513H19.5119V7.85952H20.1902C20.4223 7.85799 20.6536 7.88939 20.8769 7.95279C21.0806 8.01276 21.272 8.10845 21.4422 8.2354C21.6025 8.35666 21.7338 8.51209 21.8265 8.69041C21.9271 8.89715 21.9774 9.1247 21.9735 9.35456C21.9789 9.61095 21.9287 9.86547 21.8265 10.1007ZM28.403 10.0837C28.3522 9.94138 28.2734 9.81069 28.1712 9.69935C28.0716 9.58333 27.9507 9.48741 27.8151 9.41673C27.6678 9.34248 27.5093 9.29284 27.346 9.26977V9.25564C27.599 9.18288 27.8257 9.03863 27.9988 8.8402C28.1684 8.63263 28.2568 8.37047 28.2475 8.10257C28.2571 7.86275 28.1972 7.62526 28.0751 7.41864C27.9657 7.24871 27.8137 7.11036 27.6342 7.01733C27.4374 6.92522 27.2261 6.86786 27.0097 6.84776C26.785 6.8161 26.5583 6.80004 26.3314 6.79972H24.387V11.9998H26.5207C26.7541 12.0021 26.9871 11.9804 27.216 11.9348C27.4389 11.8907 27.6523 11.8074 27.8462 11.689C28.032 11.5809 28.189 11.4296 28.304 11.2481C28.4289 11.0403 28.4907 10.8007 28.4821 10.5585C28.4827 10.3967 28.455 10.236 28.4001 10.0837H28.403ZM25.5372 7.76343H26.3144C26.4092 7.76525 26.5038 7.7747 26.597 7.7917C26.6834 7.807 26.7672 7.8346 26.8457 7.87365C26.9193 7.91291 26.9815 7.97031 27.0266 8.0404C27.0794 8.12479 27.1041 8.22371 27.0973 8.32301C27.0996 8.41543 27.0782 8.5069 27.0351 8.58867C26.995 8.65918 26.9389 8.71922 26.8712 8.76389C26.7993 8.81016 26.7199 8.84362 26.6366 8.86281C26.5511 8.88074 26.464 8.8902 26.3766 8.89107H25.5372V7.76343ZM27.2612 10.7083C27.2177 10.7854 27.1567 10.8512 27.0831 10.9005C27.0078 10.9506 26.9233 10.9851 26.8344 11.0022C26.742 11.025 26.647 11.0355 26.5518 11.0333H25.5372V9.85478H26.4049C26.4995 9.85581 26.5939 9.86337 26.6875 9.87739C26.7914 9.89167 26.893 9.91922 26.9899 9.95935C27.0804 9.99644 27.1601 10.0557 27.2216 10.1317C27.2831 10.2129 27.315 10.3126 27.3121 10.4144C27.3234 10.5152 27.3057 10.6171 27.2612 10.7083Z" fill="black"/>
</svg>