<svg width="24" height="24" viewBox="0 0 24 24" fill="none" xmlns="http://www.w3.org/2000/svg" transform="scale(.92)" >
<path stroke-width="1.5px" d="M17.6549 10.1413L5.67237 22.1238L5.67107 22.1251C5.66274 22.1335 5.65222 22.1395 5.64069 22.1422L5.64069 22.1422L5.63497 22.1436L0.601055 23.4155L0.60042 23.4157C0.586683 23.4192 0.572283 23.419 0.558669 23.4151C0.54504 23.4113 0.532669 23.4039 0.522801 23.3938C0.512938 23.3836 0.505914 23.371 0.502448 23.3573C0.498983 23.3436 0.499201 23.3292 0.503073 23.3156L1.88561 18.47L1.88563 18.47L1.88684 18.4656C1.88982 18.4548 1.89558 18.445 1.90356 18.4371L1.90601 18.4347L13.9229 6.41781L17.6549 10.1413ZM23.4689 4.21553L23.4689 4.21558L23.4754 4.22184C23.4907 4.23663 23.4995 4.25689 23.5 4.27818C23.5004 4.29833 23.4932 4.31787 23.48 4.33298L19.8028 7.99487L16.0793 4.2714L19.7452 0.605478C19.7453 0.605408 19.7454 0.605338 19.7455 0.605268C19.7605 0.590383 19.7809 0.582031 19.8021 0.582031C19.8233 0.582031 19.8436 0.590387 19.8587 0.605278C19.8588 0.605344 19.8588 0.605411 19.8589 0.605478L23.4689 4.21553Z" stroke="white" stroke-linecap="round" stroke-linejoin="round"/>
</svg>