<svg width="12" height="21" viewBox="0 0 12 21" fill="none" xmlns="http://www.w3.org/2000/svg">
<path d="M1.52881 5.59766C1.63113 4.52609 2.12835 3.53087 2.92375 2.80557C3.71915 2.08026 4.75589 1.67671 5.83233 1.67339C6.81632 1.56056 7.80842 1.80008 8.63252 2.34948C9.45662 2.89888 10.0593 3.72261 10.3336 4.67431C10.4937 5.27912 10.5145 5.91233 10.3945 6.52634C10.2746 7.14036 10.017 7.7192 9.64116 8.21932C9.04799 8.9106 8.36604 9.52047 7.61306 10.0331C6.81865 10.5146 6.19064 11.2276 5.81336 12.0765C5.43608 12.9254 5.32761 13.8694 5.50254 14.7817M5.50254 18.64C5.36697 18.64 5.23696 18.6939 5.1411 18.7897C5.04524 18.8856 4.9914 19.0156 4.9914 19.1512C4.99136 19.2176 5.00466 19.2832 5.03055 19.3444C5.05643 19.4055 5.09436 19.4607 5.14205 19.5069C5.18975 19.553 5.24623 19.5891 5.30816 19.613C5.37009 19.6369 5.4362 19.648 5.50254 19.6458C5.56812 19.6481 5.63345 19.6369 5.6945 19.6129C5.75556 19.5888 5.81104 19.5525 5.85744 19.5061C5.90384 19.4597 5.94017 19.4042 5.96421 19.3432C5.98826 19.2821 5.99948 19.2168 5.99717 19.1512C6.00174 19.0227 5.9561 18.8974 5.86992 18.802C5.78373 18.7066 5.66379 18.6485 5.5355 18.64H5.50254Z" stroke="white" stroke-width="1.5" stroke-miterlimit="10" stroke-linecap="round"/>
</svg>