<svg width="21" height="16" viewBox="0 0 21 16" fill="none" xmlns="http://www.w3.org/2000/svg">
<path d="M9.67078 13.3724C9.88203 13.8471 10.6463 14.7111 11.0949 14.8606C12.9937 15.5086 15.5809 13.8234 17.6292 11.3407C19.5281 8.84608 19.9363 7.0683 19.8888 6.22807C19.8414 5.38784 19.2076 5.18847 18.6404 4.8989C18.0731 4.60933 15.8942 4.53812 15.8942 4.53812C15.8942 4.53812 14.9709 4.66629 13.8909 3.85929C13.4779 3.38458 12.538 2.5942 11.9921 2.52062M12.5072 7.24157C12.7763 7.21608 13.0312 7.10929 13.2382 6.93539C13.2876 6.89953 13.3288 6.85368 13.3593 6.80083C13.3897 6.74797 13.4087 6.68929 13.415 6.62861C13.4213 6.56792 13.4147 6.5066 13.3957 6.44863C13.3767 6.39066 13.3456 6.33735 13.3047 6.29216C13.1314 6.07379 12.4288 6.25893 12.3885 6.29216M11.1685 11.5756C11.757 11.5668 12.3416 11.6732 12.8893 11.8889C13.3213 12.0788 14.1544 12.7933 14.425 12.957C14.6956 13.1208 14.5982 12.4823 14.5508 12.1263C14.4451 11.6787 14.2194 11.2685 13.898 10.9395C13.2406 10.2488 11.7975 10.2797 11.7975 10.2797M6.87714 2.33548C6.87714 2.33548 8.71662 1.17008 9.34798 1.08938C9.97934 1.00868 10.6155 0.814048 11.1281 1.48576C11.6408 2.15747 12.2959 3.85929 12.1369 6.98523C11.8402 10.1895 10.6534 13.0377 8.71662 13.5718C6.77982 14.1058 4.25438 11.2956 3.92921 10.8802C3.40941 10.2204 2.04937 8.0818 1.55568 6.47017C1.06198 4.85855 0.862607 3.85929 1.55568 3.22556C2.24875 2.59182 3.53283 2.49451 4.85964 2.67252C6.20305 2.73186 6.87714 2.33548 6.87714 2.33548ZM4.15944 6.80722C4.32796 6.68854 4.22828 6.78585 4.85014 6.45119C5.25546 6.25043 5.68013 6.09137 6.11761 5.97648C6.33597 5.87679 6.00842 5.73913 5.46489 5.48041C4.92135 5.2217 4.62466 5.24306 4.16894 5.59909C3.71322 5.95512 3.51622 6.79772 3.51622 6.79772C3.53283 7.18223 3.99804 6.92589 4.16656 6.80722H4.15944ZM7.92386 5.71302C8.06865 5.71302 8.56947 5.47567 8.92075 5.4543C9.27203 5.43294 9.36223 5.49465 10.0339 5.4543C10.7056 5.41395 10.1526 4.86092 10.0339 4.74224C9.76912 4.46614 9.40747 4.3036 9.02518 4.2889C8.39145 4.22244 7.70787 5.41395 7.70075 5.50177C7.68651 5.69878 7.7862 5.7059 7.93099 5.71302H7.92386ZM6.3692 10.987C6.99581 11.362 7.76958 11.5685 8.24192 11.4285C8.92787 11.2244 9.526 10.5574 9.81794 10.0708C10.0869 9.59565 10.2489 9.06752 10.2927 8.52328C10.2915 8.49602 10.2834 8.4695 10.2692 8.44621C10.2549 8.42292 10.235 8.40361 10.2113 8.3901C10.1876 8.37658 10.1609 8.3693 10.1336 8.36893C10.1063 8.36856 10.0794 8.37512 10.0553 8.38799C9.58059 8.65857 8.56472 9.29705 7.8669 9.45608C6.96927 9.64154 6.04768 9.68161 5.13734 9.57476C4.75995 9.61511 5.90399 10.7093 6.3692 10.987ZM15.3459 8.38561C15.5833 8.58974 15.6236 8.77487 16.4045 8.79386C17.1854 8.81285 17.1166 8.48768 16.967 8.31916C16.8175 8.15064 16.1671 7.84445 15.7803 7.32702C15.3934 6.80959 14.9994 6.91402 14.9994 6.91402C14.1591 7.02321 15.2486 8.27643 15.3459 8.36663V8.38561Z" stroke="black" stroke-linecap="round" stroke-linejoin="round"/>
<path d="M9.67078 13.3724C9.88203 13.8471 10.6463 14.7111 11.0949 14.8606C12.9937 15.5086 15.5809 13.8234 17.6292 11.3407C19.5281 8.84608 19.9363 7.0683 19.8888 6.22807C19.8414 5.38784 19.2076 5.18847 18.6404 4.8989C18.0731 4.60933 15.8942 4.53812 15.8942 4.53812C15.8942 4.53812 14.9709 4.66629 13.8909 3.85929C13.4779 3.38458 12.538 2.5942 11.9921 2.52062M12.5072 7.24157C12.7763 7.21608 13.0312 7.10929 13.2382 6.93539C13.2876 6.89953 13.3288 6.85368 13.3593 6.80083C13.3897 6.74797 13.4087 6.68929 13.415 6.62861C13.4213 6.56792 13.4147 6.5066 13.3957 6.44863C13.3767 6.39066 13.3456 6.33735 13.3047 6.29216C13.1314 6.07379 12.4288 6.25893 12.3885 6.29216M11.1685 11.5756C11.757 11.5668 12.3416 11.6732 12.8893 11.8889C13.3213 12.0788 14.1544 12.7933 14.425 12.957C14.6956 13.1208 14.5982 12.4823 14.5508 12.1263C14.4451 11.6787 14.2194 11.2685 13.898 10.9395C13.2406 10.2488 11.7975 10.2797 11.7975 10.2797M6.87714 2.33548C6.87714 2.33548 8.71662 1.17008 9.34798 1.08938C9.97934 1.00868 10.6155 0.814048 11.1281 1.48576C11.6408 2.15747 12.2959 3.85929 12.1369 6.98523C11.8402 10.1895 10.6534 13.0377 8.71662 13.5718C6.77982 14.1058 4.25438 11.2956 3.92921 10.8802C3.40941 10.2204 2.04937 8.0818 1.55568 6.47017C1.06198 4.85855 0.862607 3.85929 1.55568 3.22556C2.24875 2.59182 3.53283 2.49451 4.85964 2.67252C6.20305 2.73186 6.87714 2.33548 6.87714 2.33548ZM4.15944 6.80722C4.32796 6.68854 4.22828 6.78585 4.85014 6.45119C5.25546 6.25043 5.68013 6.09137 6.11761 5.97648C6.33597 5.87679 6.00842 5.73913 5.46489 5.48041C4.92135 5.2217 4.62466 5.24306 4.16894 5.59909C3.71322 5.95512 3.51622 6.79772 3.51622 6.79772C3.53283 7.18223 3.99804 6.92589 4.16656 6.80722H4.15944ZM7.92386 5.71302C8.06865 5.71302 8.56947 5.47567 8.92075 5.4543C9.27203 5.43294 9.36223 5.49465 10.0339 5.4543C10.7056 5.41395 10.1526 4.86092 10.0339 4.74224C9.76912 4.46614 9.40747 4.3036 9.02518 4.2889C8.39145 4.22244 7.70787 5.41395 7.70075 5.50177C7.68651 5.69878 7.7862 5.7059 7.93099 5.71302H7.92386ZM6.3692 10.987C6.99581 11.362 7.76958 11.5685 8.24192 11.4285C8.92787 11.2244 9.526 10.5574 9.81794 10.0708C10.0869 9.59565 10.2489 9.06752 10.2927 8.52328C10.2915 8.49602 10.2834 8.4695 10.2692 8.44621C10.2549 8.42292 10.235 8.40361 10.2113 8.3901C10.1876 8.37658 10.1609 8.3693 10.1336 8.36893C10.1063 8.36856 10.0794 8.37512 10.0553 8.38799C9.58059 8.65857 8.56472 9.29705 7.8669 9.45608C6.96927 9.64154 6.04768 9.68161 5.13734 9.57476C4.75995 9.61511 5.90399 10.7093 6.3692 10.987ZM15.3459 8.38561C15.5833 8.58974 15.6236 8.77487 16.4045 8.79386C17.1854 8.81285 17.1166 8.48768 16.967 8.31916C16.8175 8.15064 16.1671 7.84445 15.7803 7.32702C15.3934 6.80959 14.9994 6.91402 14.9994 6.91402C14.1591 7.02321 15.2486 8.27643 15.3459 8.36663V8.38561Z" stroke="white" stroke-opacity="0.5" stroke-linecap="round" stroke-linejoin="round" />
</svg>
