<svg width="21" height="16" viewBox="0 0 21 16" fill="none" xmlns="http://www.w3.org/2000/svg">
<path d="M9.67066 13.3724C9.88191 13.8471 10.6462 14.7111 11.0948 14.8606C12.9936 15.5086 15.5808 13.8234 17.6291 11.3407C19.5279 8.84608 19.9362 7.06831 19.8887 6.22807C19.8412 5.38784 19.2075 5.18847 18.6402 4.8989C18.073 4.60933 15.8941 4.53812 15.8941 4.53812C15.8941 4.53812 14.9708 4.66629 13.8908 3.85929C13.4778 3.38458 12.5379 2.5942 11.992 2.52062M12.507 7.24157C12.7761 7.21608 13.0311 7.10929 13.2381 6.93539C13.2874 6.89953 13.3287 6.85368 13.3591 6.80083C13.3896 6.74797 13.4086 6.68929 13.4149 6.62861C13.4211 6.56792 13.4145 6.5066 13.3955 6.44863C13.3765 6.39066 13.3455 6.33735 13.3045 6.29216C13.1313 6.07379 12.4287 6.25893 12.3884 6.29216M11.1684 11.5756C11.7569 11.5668 12.3415 11.6732 12.8892 11.8889C13.3212 12.0788 14.1543 12.7933 14.4248 12.957C14.6954 13.1208 14.5981 12.4823 14.5506 12.1263C14.445 11.6787 14.2193 11.2685 13.8979 10.9395C13.2405 10.2488 11.7973 10.2797 11.7973 10.2797M6.87702 2.33548C6.87702 2.33548 8.7165 1.17008 9.34786 1.08938C9.97922 1.00868 10.6153 0.814048 11.128 1.48576C11.6407 2.15747 12.2958 3.85929 12.1368 6.98523C11.8401 10.1895 10.6533 13.0377 8.7165 13.5718C6.7797 14.1058 4.25426 11.2956 3.92909 10.8802C3.40929 10.2204 2.04925 8.0818 1.55556 6.47018C1.06186 4.85855 0.862485 3.85929 1.55556 3.22556C2.24863 2.59182 3.53271 2.49451 4.85951 2.67252C6.20293 2.73186 6.87702 2.33548 6.87702 2.33548ZM4.15932 6.80722C4.32784 6.68854 4.22815 6.78585 4.85002 6.45119C5.25534 6.25043 5.68001 6.09137 6.11749 5.97648C6.33585 5.87679 6.0083 5.73913 5.46476 5.48041C4.92122 5.2217 4.62453 5.24306 4.16882 5.59909C3.7131 5.95512 3.51609 6.79772 3.51609 6.79772C3.53271 7.18223 3.99792 6.92589 4.16644 6.80722H4.15932ZM7.92374 5.71302C8.06853 5.71302 8.56934 5.47567 8.92063 5.4543C9.27191 5.43294 9.3621 5.49465 10.0338 5.4543C10.7055 5.41395 10.1525 4.86092 10.0338 4.74224C9.769 4.46614 9.40735 4.3036 9.02506 4.2889C8.39133 4.22244 7.70775 5.41395 7.70063 5.50177C7.68639 5.69878 7.78608 5.7059 7.93086 5.71302H7.92374ZM6.36908 10.987C6.99569 11.362 7.76946 11.5685 8.2418 11.4285C8.92775 11.2244 9.52588 10.5574 9.81782 10.0708C10.0868 9.59565 10.2488 9.06752 10.2925 8.52328C10.2913 8.49602 10.2833 8.4695 10.269 8.44621C10.2548 8.42292 10.2349 8.40361 10.2112 8.3901C10.1875 8.37658 10.1608 8.3693 10.1335 8.36893C10.1062 8.36856 10.0792 8.37512 10.0552 8.38799C9.58047 8.65857 8.5646 9.29705 7.86678 9.45608C6.96915 9.64154 6.04756 9.68161 5.13722 9.57476C4.75982 9.61511 5.90387 10.7093 6.36908 10.987ZM15.3458 8.38561C15.5831 8.58974 15.6235 8.77488 16.4044 8.79386C17.1853 8.81285 17.1164 8.48768 16.9669 8.31916C16.8174 8.15064 16.167 7.84445 15.7801 7.32702C15.3933 6.80959 14.9992 6.91403 14.9992 6.91403C14.159 7.02321 15.2485 8.27643 15.3458 8.36663V8.38561Z" stroke="black" stroke-linecap="round" stroke-linejoin="round"/>
</svg>
