<svg width="17" height="14" viewBox="0 0 17 14" fill="none" xmlns="http://www.w3.org/2000/svg">
<path d="M12.2239 11.71L14.6001 13.2386C14.7003 13.3054 14.8142 13.349 14.9334 13.3662C15.0526 13.3834 15.1742 13.3739 15.2892 13.3382C15.4043 13.3025 15.5099 13.2417 15.5985 13.1601C15.6871 13.0785 15.7564 12.9781 15.8013 12.8664C15.8227 12.8034 15.8343 12.7375 15.8356 12.671V6.85479C15.828 6.72165 15.7879 6.5924 15.7189 6.47829C15.6498 6.36417 15.554 6.26865 15.4396 6.20004C15.3506 6.14927 15.2494 6.12389 15.147 6.12669C15.0446 6.12948 14.9449 6.16033 14.8588 6.21588L12.1395 7.86596M10.4418 13.5H2.87259C2.64805 13.5 2.42571 13.4557 2.2183 13.3697C2.01088 13.2837 1.82246 13.1577 1.66381 12.9988C1.50515 12.8399 1.37939 12.6512 1.2937 12.4437C1.20801 12.2361 1.16408 12.0137 1.16443 11.7892V7.87388C1.16443 7.42085 1.3444 6.98637 1.66474 6.66603C1.98508 6.34569 2.41956 6.16572 2.87259 6.16572H10.4418C10.8949 6.16572 11.3294 6.34569 11.6497 6.66603C11.97 6.98637 12.15 7.42085 12.15 7.87388V11.7892C12.15 12.2425 11.9701 12.6772 11.6499 12.998C11.3296 13.3187 10.8951 13.4993 10.4418 13.5ZM3.90225 1.60358C3.47082 1.60358 3.04909 1.73154 2.69041 1.97128C2.33173 2.21102 2.05222 2.55176 1.88725 2.9504C1.72227 3.34903 1.67924 3.78764 1.7636 4.21074C1.84795 4.63383 2.05591 5.0224 2.36116 5.32728C2.66641 5.63215 3.05523 5.83964 3.47842 5.92349C3.90162 6.00734 4.34018 5.96377 4.73861 5.79831C5.13705 5.63285 5.47745 5.35293 5.71675 4.99396C5.95606 4.63499 6.08351 4.21311 6.08299 3.78168C6.08299 3.49543 6.02657 3.21198 5.91694 2.94755C5.80732 2.68311 5.64664 2.44288 5.44411 2.24059C5.24157 2.0383 5.00115 1.87792 4.73658 1.76862C4.47202 1.65931 4.1885 1.60323 3.90225 1.60358ZM9.95342 0.500001C9.40306 0.500001 8.86505 0.663204 8.40744 0.96897C7.94983 1.27474 7.59316 1.70933 7.38255 2.21781C7.17193 2.72628 7.11682 3.28579 7.2242 3.82558C7.33157 4.36537 7.59659 4.86119 7.98576 5.25036C8.37493 5.63953 8.87076 5.90455 9.41055 6.01193C9.95034 6.1193 10.5098 6.06419 11.0183 5.85357C11.5268 5.64296 11.9614 5.28629 12.2672 4.82868C12.5729 4.37107 12.7361 3.83306 12.7361 3.2827C12.7365 2.91717 12.6647 2.55516 12.525 2.21739C12.3853 1.87963 12.1803 1.57273 11.9219 1.31426C11.6634 1.05579 11.3565 0.850835 11.0187 0.711114C10.681 0.571394 10.319 0.499654 9.95342 0.500001Z" stroke="black" stroke-miterlimit="10" />
</svg>
