<svg width="17" height="14" viewBox="0 0 17 14" fill="none" xmlns="http://www.w3.org/2000/svg">
<path d="M12.3183 11.71L14.6944 13.2386C14.7947 13.3054 14.9085 13.349 15.0278 13.3662C15.147 13.3834 15.2685 13.3739 15.3836 13.3382C15.4986 13.3025 15.6043 13.2417 15.6929 13.1601C15.7815 13.0785 15.8507 12.9781 15.8957 12.8664C15.9171 12.8034 15.9287 12.7375 15.93 12.671V6.85479C15.9223 6.72165 15.8822 6.5924 15.8132 6.47829C15.7442 6.36417 15.6483 6.26865 15.534 6.20004C15.445 6.14927 15.3438 6.12389 15.2413 6.12669C15.1389 6.12948 15.0392 6.16033 14.9531 6.21588L12.2338 7.86596M10.5362 13.5H2.96695C2.74241 13.5 2.52007 13.4557 2.31266 13.3697C2.10524 13.2837 1.91682 13.1577 1.75817 12.9988C1.59951 12.8399 1.47375 12.6512 1.38806 12.4437C1.30237 12.2361 1.25844 12.0137 1.25879 11.7892V7.87388C1.25879 7.42085 1.43876 6.98637 1.7591 6.66603C2.07944 6.34569 2.51392 6.16572 2.96695 6.16572H10.5362C10.9892 6.16572 11.4237 6.34569 11.7441 6.66603C12.0644 6.98637 12.2444 7.42085 12.2444 7.87388V11.7892C12.2444 12.2425 12.0645 12.6772 11.7442 12.998C11.424 13.3187 10.9895 13.4993 10.5362 13.5ZM3.99661 1.60358C3.56518 1.60358 3.14345 1.73154 2.78477 1.97128C2.42609 2.21102 2.14658 2.55176 1.98161 2.9504C1.81663 3.34903 1.7736 3.78764 1.85796 4.21074C1.94231 4.63383 2.15027 5.0224 2.45552 5.32728C2.76077 5.63215 3.14959 5.83964 3.57278 5.92349C3.99598 6.00734 4.43454 5.96377 4.83297 5.79831C5.23141 5.63285 5.57181 5.35293 5.81112 4.99396C6.05042 4.63499 6.17788 4.21311 6.17735 3.78168C6.17735 3.49543 6.12093 3.21198 6.0113 2.94755C5.90168 2.68311 5.741 2.44288 5.53847 2.24059C5.33593 2.0383 5.09551 1.87792 4.83094 1.76862C4.56638 1.65931 4.28286 1.60323 3.99661 1.60358ZM10.0478 0.500001C9.49742 0.500001 8.95941 0.663204 8.5018 0.96897C8.04419 1.27474 7.68752 1.70933 7.47691 2.21781C7.26629 2.72628 7.21118 3.28579 7.31856 3.82558C7.42593 4.36537 7.69095 4.86119 8.08012 5.25036C8.46929 5.63953 8.96512 5.90455 9.50491 6.01193C10.0447 6.1193 10.6042 6.06419 11.1127 5.85357C11.6211 5.64296 12.0557 5.28629 12.3615 4.82868C12.6673 4.37107 12.8305 3.83306 12.8305 3.2827C12.8308 2.91717 12.7591 2.55516 12.6194 2.21739C12.4796 1.87963 12.2747 1.57273 12.0162 1.31426C11.7578 1.05579 11.4509 0.850835 11.1131 0.711114C10.7753 0.571394 10.4133 0.499654 10.0478 0.500001Z" stroke="black" stroke-miterlimit="10"/>
<path d="M12.3183 11.71L14.6944 13.2386C14.7947 13.3054 14.9085 13.349 15.0278 13.3662C15.147 13.3834 15.2685 13.3739 15.3836 13.3382C15.4986 13.3025 15.6043 13.2417 15.6929 13.1601C15.7815 13.0785 15.8507 12.9781 15.8957 12.8664C15.9171 12.8034 15.9287 12.7375 15.93 12.671V6.85479C15.9223 6.72165 15.8822 6.5924 15.8132 6.47829C15.7442 6.36417 15.6483 6.26865 15.534 6.20004C15.445 6.14927 15.3438 6.12389 15.2413 6.12669C15.1389 6.12948 15.0392 6.16033 14.9531 6.21588L12.2338 7.86596M10.5362 13.5H2.96695C2.74241 13.5 2.52007 13.4557 2.31266 13.3697C2.10524 13.2837 1.91682 13.1577 1.75817 12.9988C1.59951 12.8399 1.47375 12.6512 1.38806 12.4437C1.30237 12.2361 1.25844 12.0137 1.25879 11.7892V7.87388C1.25879 7.42085 1.43876 6.98637 1.7591 6.66603C2.07944 6.34569 2.51392 6.16572 2.96695 6.16572H10.5362C10.9892 6.16572 11.4237 6.34569 11.7441 6.66603C12.0644 6.98637 12.2444 7.42085 12.2444 7.87388V11.7892C12.2444 12.2425 12.0645 12.6772 11.7442 12.998C11.424 13.3187 10.9895 13.4993 10.5362 13.5ZM3.99661 1.60358C3.56518 1.60358 3.14345 1.73154 2.78477 1.97128C2.42609 2.21102 2.14658 2.55176 1.98161 2.9504C1.81663 3.34903 1.7736 3.78764 1.85796 4.21074C1.94231 4.63383 2.15027 5.0224 2.45552 5.32728C2.76077 5.63215 3.14959 5.83964 3.57278 5.92349C3.99598 6.00734 4.43454 5.96377 4.83297 5.79831C5.23141 5.63285 5.57181 5.35293 5.81112 4.99396C6.05042 4.63499 6.17788 4.21311 6.17735 3.78168C6.17735 3.49543 6.12093 3.21198 6.0113 2.94755C5.90168 2.68311 5.741 2.44288 5.53847 2.24059C5.33593 2.0383 5.09551 1.87792 4.83094 1.76862C4.56638 1.65931 4.28286 1.60323 3.99661 1.60358ZM10.0478 0.500001C9.49742 0.500001 8.95941 0.663204 8.5018 0.96897C8.04419 1.27474 7.68752 1.70933 7.47691 2.21781C7.26629 2.72628 7.21118 3.28579 7.31856 3.82558C7.42593 4.36537 7.69095 4.86119 8.08012 5.25036C8.46929 5.63953 8.96512 5.90455 9.50491 6.01193C10.0447 6.1193 10.6042 6.06419 11.1127 5.85357C11.6211 5.64296 12.0557 5.28629 12.3615 4.82868C12.6673 4.37107 12.8305 3.83306 12.8305 3.2827C12.8308 2.91717 12.7591 2.55516 12.6194 2.21739C12.4796 1.87963 12.2747 1.57273 12.0162 1.31426C11.7578 1.05579 11.4509 0.850835 11.1131 0.711114C10.7753 0.571394 10.4133 0.499654 10.0478 0.500001Z" stroke="white" stroke-opacity="0.5" stroke-miterlimit="10" />
</svg>