<svg width="28" height="28" viewBox="0 0 28 28" fill="none" xmlns="http://www.w3.org/2000/svg">
<path fill-rule="evenodd" clip-rule="evenodd" d="M14 0C6.265 0 0 6.265 0 14C0 20.195 4.0075 25.4275 9.5725 27.2825C10.2725 27.405 10.535 26.985 10.535 26.6175C10.535 26.285 10.5175 25.1825 10.5175 24.01C7 24.6575 6.09 23.1525 5.81 22.365C5.6525 21.9625 4.97 20.72 4.375 20.3875C3.885 20.125 3.185 19.4775 4.3575 19.46C5.46 19.4425 6.2475 20.475 6.51 20.895C7.77 23.0125 9.7825 22.4175 10.5875 22.0492C10.71 21.1392 11.0775 20.5267 11.48 20.1767C8.365 19.8267 5.10891 18.6181 5.10891 13.2642C5.10891 11.7417 5.65141 10.4817 6.54391 9.50168C6.40391 9.15168 5.915 7.71668 6.68391 5.79168C6.68391 5.79168 7.85641 5.42418 10.5339 7.22668C12.8247 6.59667 15.2431 6.59667 17.5339 7.22668C20.2114 5.40668 21.3839 5.79168 21.3839 5.79168C22.1539 7.71668 21.6639 9.15168 21.5239 9.50168C22.4164 10.4817 22.9589 11.7242 22.9589 13.2642C22.9589 18.6367 19.6864 19.8267 16.5714 20.1767C17.0789 20.6142 17.5164 21.4542 17.5164 22.7667C17.5164 24.6392 17.4989 26.1442 17.4989 26.6167C17.4989 26.9842 17.7614 27.4217 18.4614 27.2817C23.9925 25.4275 28 20.1775 28 14C28 6.265 21.735 0 14 0Z" fill="white"/>
</svg>
