<svg width="36" height="36" viewBox="0 0 36 36" fill="none" xmlns="http://www.w3.org/2000/svg">
<rect width="36" height="36" rx="18" fill="#2D2E32"/>
<path d="M7.05451 22V14.7273H7.93519V21.2188H11.3159V22H7.05451ZM14.7818 22.1136C14.2894 22.1136 13.8573 21.9964 13.4856 21.7621C13.1163 21.5277 12.8275 21.1998 12.6191 20.7784C12.4132 20.357 12.3102 19.8646 12.3102 19.3011C12.3102 18.733 12.4132 18.237 12.6191 17.8132C12.8275 17.3894 13.1163 17.0604 13.4856 16.826C13.8573 16.5916 14.2894 16.4744 14.7818 16.4744C15.2742 16.4744 15.7051 16.5916 16.0744 16.826C16.4461 17.0604 16.7349 17.3894 16.9409 17.8132C17.1492 18.237 17.2534 18.733 17.2534 19.3011C17.2534 19.8646 17.1492 20.357 16.9409 20.7784C16.7349 21.1998 16.4461 21.5277 16.0744 21.7621C15.7051 21.9964 15.2742 22.1136 14.7818 22.1136ZM14.7818 21.3608C15.1558 21.3608 15.4636 21.2649 15.7051 21.0732C15.9466 20.8814 16.1253 20.6293 16.2413 20.3168C16.3573 20.0043 16.4153 19.6657 16.4153 19.3011C16.4153 18.9366 16.3573 18.5968 16.2413 18.282C16.1253 17.9671 15.9466 17.7126 15.7051 17.5185C15.4636 17.3243 15.1558 17.2273 14.7818 17.2273C14.4077 17.2273 14.1 17.3243 13.8585 17.5185C13.617 17.7126 13.4383 17.9671 13.3223 18.282C13.2063 18.5968 13.1483 18.9366 13.1483 19.3011C13.1483 19.6657 13.2063 20.0043 13.3223 20.3168C13.4383 20.6293 13.617 20.8814 13.8585 21.0732C14.1 21.2649 14.4077 21.3608 14.7818 21.3608ZM20.7344 24.1591C20.3295 24.1591 19.9815 24.107 19.6903 24.0028C19.3991 23.901 19.1565 23.7661 18.9624 23.598C18.7706 23.4323 18.6179 23.2547 18.5043 23.0653L19.1719 22.5966C19.2476 22.696 19.3435 22.8097 19.4595 22.9375C19.5755 23.0677 19.7341 23.1802 19.9354 23.2749C20.139 23.3719 20.4053 23.4205 20.7344 23.4205C21.1747 23.4205 21.5381 23.3139 21.8246 23.1009C22.111 22.8878 22.2543 22.554 22.2543 22.0994V20.9915H22.1832C22.1217 21.0909 22.0341 21.214 21.9205 21.3608C21.8092 21.5052 21.6482 21.6342 21.4375 21.7479C21.2292 21.8591 20.9474 21.9148 20.5923 21.9148C20.152 21.9148 19.7566 21.8106 19.4062 21.6023C19.0582 21.3939 18.7824 21.0909 18.5788 20.6932C18.3776 20.2955 18.277 19.8125 18.277 19.2443C18.277 18.6856 18.3752 18.1991 18.5717 17.7848C18.7682 17.3681 19.0417 17.0462 19.392 16.8189C19.7424 16.5893 20.1473 16.4744 20.6065 16.4744C20.9616 16.4744 21.2434 16.5336 21.4517 16.652C21.6624 16.768 21.8234 16.9006 21.9347 17.0497C22.0483 17.1965 22.1359 17.3172 22.1974 17.4119H22.2827V16.5455H23.0923V22.1562C23.0923 22.625 22.9858 23.0062 22.7727 23.2997C22.562 23.5956 22.2779 23.8123 21.9205 23.9496C21.5653 24.0893 21.17 24.1591 20.7344 24.1591ZM20.706 21.1619C21.0421 21.1619 21.3262 21.085 21.5582 20.9311C21.7902 20.7772 21.9666 20.5559 22.0874 20.267C22.2081 19.9782 22.2685 19.6326 22.2685 19.2301C22.2685 18.8371 22.2093 18.4903 22.0909 18.1896C21.9725 17.889 21.7973 17.6534 21.5653 17.483C21.3333 17.3125 21.0469 17.2273 20.706 17.2273C20.3509 17.2273 20.0549 17.3172 19.8182 17.4972C19.5838 17.6771 19.4074 17.9186 19.2891 18.2216C19.1731 18.5246 19.1151 18.8608 19.1151 19.2301C19.1151 19.6089 19.1742 19.9439 19.2926 20.2351C19.4134 20.5239 19.5909 20.7512 19.8253 20.9169C20.062 21.0803 20.3556 21.1619 20.706 21.1619ZM26.8423 22.1136C26.3499 22.1136 25.9179 21.9964 25.5462 21.7621C25.1768 21.5277 24.888 21.1998 24.6797 20.7784C24.4737 20.357 24.3707 19.8646 24.3707 19.3011C24.3707 18.733 24.4737 18.237 24.6797 17.8132C24.888 17.3894 25.1768 17.0604 25.5462 16.826C25.9179 16.5916 26.3499 16.4744 26.8423 16.4744C27.3348 16.4744 27.7656 16.5916 28.1349 16.826C28.5066 17.0604 28.7955 17.3894 29.0014 17.8132C29.2098 18.237 29.3139 18.733 29.3139 19.3011C29.3139 19.8646 29.2098 20.357 29.0014 20.7784C28.7955 21.1998 28.5066 21.5277 28.1349 21.7621C27.7656 21.9964 27.3348 22.1136 26.8423 22.1136ZM26.8423 21.3608C27.2164 21.3608 27.5241 21.2649 27.7656 21.0732C28.0071 20.8814 28.1858 20.6293 28.3018 20.3168C28.4179 20.0043 28.4759 19.6657 28.4759 19.3011C28.4759 18.9366 28.4179 18.5968 28.3018 18.282C28.1858 17.9671 28.0071 17.7126 27.7656 17.5185C27.5241 17.3243 27.2164 17.2273 26.8423 17.2273C26.4683 17.2273 26.1605 17.3243 25.919 17.5185C25.6776 17.7126 25.4988 17.9671 25.3828 18.282C25.2668 18.5968 25.2088 18.9366 25.2088 19.3011C25.2088 19.6657 25.2668 20.0043 25.3828 20.3168C25.4988 20.6293 25.6776 20.8814 25.919 21.0732C26.1605 21.2649 26.4683 21.3608 26.8423 21.3608Z" fill="white"/>
</svg>
