<svg width="36" height="36" viewBox="0 0 36 36" fill="none" xmlns="http://www.w3.org/2000/svg">
<rect width="36" height="36" rx="18" fill="#2D2E32"/>
<path d="M21.1083 13.5107C21.1083 14.2161 20.8991 14.9057 20.5072 15.4923C20.1152 16.0788 19.5582 16.536 18.9065 16.8059C18.2547 17.0759 17.5376 17.1465 16.8457 17.0089C16.1538 16.8713 15.5183 16.5316 15.0195 16.0328C14.5207 15.5339 14.181 14.8984 14.0433 14.2065C13.9057 13.5147 13.9764 12.7975 14.2463 12.1458C14.5163 11.494 14.9734 10.937 15.56 10.5451C16.1465 10.1532 16.8361 9.94397 17.5415 9.94397C18.4875 9.94397 19.3947 10.3197 20.0636 10.9886C20.7325 11.6575 21.1083 12.5647 21.1083 13.5107ZM17.6471 25.0087C24.7923 25.0087 24.1206 23.9528 24.1206 23.9528C24.1206 23.9528 24.7483 17.7462 17.6471 17.7462C10.5459 17.7462 10.9507 23.9528 10.9507 23.9528C10.9507 23.9528 10.5019 25.0087 17.6471 25.0087Z" stroke="white" stroke-width="1.5" stroke-linecap="round" stroke-linejoin="round"/>
</svg>