<svg width="28" height="28" viewBox="0 0 28 28" fill="none" xmlns="http://www.w3.org/2000/svg">
<path d="M28 14C28 16.7689 27.1789 19.4757 25.6406 21.778C24.1022 24.0803 21.9157 25.8747 19.3576 26.9343C16.7994 27.9939 13.9845 28.2712 11.2687 27.731C8.55301 27.1908 6.05845 25.8574 4.10051 23.8995C2.14258 21.9416 0.809205 19.447 0.269012 16.7313C-0.271181 14.0155 0.00606611 11.2006 1.06569 8.64243C2.12532 6.08427 3.91973 3.89776 6.22202 2.35942C8.52431 0.821085 11.2311 0 14 0C17.713 0 21.274 1.475 23.8995 4.1005C26.525 6.72601 28 10.287 28 14ZM14 3.85263C13.1373 3.85208 12.2937 4.10741 11.5761 4.58633C10.8585 5.06525 10.2991 5.74623 9.96852 6.54315C9.63798 7.34006 9.55122 8.2171 9.71919 9.06334C9.88717 9.90957 10.3023 10.687 10.9122 11.2972C11.5221 11.9075 12.2992 12.3231 13.1453 12.4917C13.9915 12.6602 14.8686 12.574 15.6657 12.2439C16.4628 11.9139 17.1441 11.3549 17.6235 10.6376C18.1029 9.92025 18.3588 9.07689 18.3588 8.21414C18.3591 7.64151 18.2466 7.07442 18.0278 6.54527C17.8089 6.01613 17.4879 5.53529 17.0831 5.13025C16.6783 4.72521 16.1977 4.4039 15.6687 4.18468C15.1397 3.96546 14.5726 3.85263 14 3.85263ZM14.1272 22.2722C22.8669 22.2722 22.0454 20.9834 22.0454 20.9834C22.0454 20.9834 22.8115 13.3915 14.1272 13.3915C5.44292 13.3915 5.94074 20.9834 5.94074 20.9834C5.94074 20.9834 5.3876 22.2722 14.1272 22.2722Z" fill="white" fill-opacity="0.95"/>
</svg>