<svg width="18" height="16" viewBox="0 0 18 16" fill="none" xmlns="http://www.w3.org/2000/svg">
<path d="M15.0997 12.3914C14.8961 11.7471 14.5409 11.161 14.0639 10.6823C13.8204 10.9117 13.4974 11.0379 13.1628 11.0345C12.9774 11.0331 12.7941 10.9949 12.6236 10.9221C12.4531 10.8493 12.2988 10.7433 12.1696 10.6103C12.0404 10.4773 11.939 10.3199 11.8712 10.1473C11.8035 9.97474 11.7707 9.79041 11.7748 9.60505C11.0895 9.50048 10.3947 9.47269 9.7032 9.52218H5.63248C4.728 9.45307 3.8183 9.50884 2.92903 9.68791C2.28707 9.89008 1.70402 10.2456 1.23031 10.7237C0.750763 11.2004 0.39515 11.7871 0.194506 12.4328C0.0153404 13.3186 -0.0404312 14.2248 0.0287771 15.1259H15.2551C15.3436 14.2118 15.2912 13.2895 15.0997 12.3914ZM9.061 4.10492H11.7127V4.04277C11.7127 3.50943 11.6071 2.98137 11.4019 2.48906C11.0161 1.56099 10.2982 0.810055 9.38845 0.382932C8.47866 -0.0441904 7.44232 -0.116824 6.48184 0.179217C5.76616 0.400335 5.12581 0.815605 4.632 1.37886C4.1382 1.94212 3.81027 2.63129 3.68469 3.36975C3.55911 4.10822 3.64079 4.86705 3.92065 5.56187C4.20051 6.2567 4.66759 6.86029 5.26995 7.30556C6.08219 7.89202 7.07941 8.16433 8.07699 8.07205C8.99664 7.98086 9.85654 7.57469 10.5111 6.92231H9.061C8.86655 6.93903 8.67075 6.91516 8.48602 6.85222C8.30128 6.78928 8.13163 6.68864 7.98784 6.55668C7.84405 6.42472 7.72925 6.26433 7.65071 6.08566C7.57217 5.90699 7.53162 5.71396 7.53162 5.51879C7.53162 5.32363 7.57217 5.13059 7.65071 4.95193C7.72925 4.77326 7.84405 4.61286 7.98784 4.4809C8.13163 4.34894 8.30128 4.2483 8.48602 4.18536C8.67075 4.12242 8.86655 4.09856 9.061 4.11528V4.10492ZM18 5.51361C17.9973 5.69959 17.9223 5.87719 17.7907 6.0087C17.6592 6.14022 17.4816 6.21528 17.2957 6.21796H13.8879V9.60505C13.8879 9.79185 13.8136 9.971 13.6816 10.1031C13.5495 10.2352 13.3703 10.3094 13.1835 10.3094C12.9967 10.3094 12.8175 10.2352 12.6855 10.1031C12.5534 9.971 12.4792 9.79185 12.4792 9.60505V6.22832H9.061C8.8742 6.22832 8.69504 6.15411 8.56295 6.02202C8.43086 5.88993 8.35665 5.71078 8.35665 5.52397C8.35665 5.33717 8.43086 5.15801 8.56295 5.02592C8.69504 4.89383 8.8742 4.81962 9.061 4.81962H12.4792V1.41183C12.4792 1.31933 12.4974 1.22774 12.5328 1.14228C12.5682 1.05683 12.6201 0.979181 12.6855 0.913776C12.7509 0.848371 12.8285 0.796489 12.914 0.761093C12.9994 0.725696 13.091 0.707477 13.1835 0.707477C13.276 0.707477 13.3676 0.725696 13.453 0.761093C13.5385 0.796489 13.6161 0.848371 13.6816 0.913776C13.747 0.979181 13.7988 1.05683 13.8342 1.14228C13.8696 1.22774 13.8879 1.31933 13.8879 1.41183V4.81962H17.2957C17.3881 4.81962 17.4797 4.83784 17.5652 4.87324C17.6507 4.90864 17.7283 4.96052 17.7937 5.02592C17.8591 5.09133 17.911 5.16897 17.9464 5.25443C17.9818 5.33988 18 5.43148 18 5.52397V5.51361Z" fill="#D9D9D9"/>
</svg>