<svg width="18" height="20" transform="scale(1.125)" viewBox="0 0 22 20" fill="none" xmlns="http://www.w3.org/2000/svg">
<path d="M18 1.76722V14.6517C18.0007 14.7492 17.9913 14.8465 17.9717 14.9421V15.5268C17.9721 15.7328 17.9132 15.9346 17.802 16.108C17.6908 16.2814 17.532 16.4191 17.3446 16.5047L10.7189 19.5172C10.5554 19.5922 10.3756 19.625 10.1961 19.6124C10.0167 19.5998 9.84323 19.5422 9.69182 19.445C9.54041 19.3478 9.41587 19.2141 9.32968 19.0562C9.24349 18.8982 9.19841 18.7212 9.19859 18.5412V16.293H5.16589C4.73059 16.293 4.31311 16.1201 4.00531 15.8123C3.6975 15.5045 3.52458 15.087 3.52458 14.6517V12.0042C3.52458 11.8425 3.58884 11.6873 3.70323 11.5729C3.81762 11.4585 3.97276 11.3943 4.13453 11.3943C4.29629 11.3943 4.45143 11.4585 4.56582 11.5729C4.68021 11.6873 4.74447 11.8425 4.74447 12.0042V14.6517C4.745 14.7633 4.78957 14.8702 4.86849 14.9491C4.9474 15.028 5.05428 15.0726 5.16589 15.0731H9.19859V4.72924C9.19863 4.52385 9.25753 4.32277 9.3683 4.14981C9.47908 3.97685 9.6371 3.83926 9.82366 3.75333L15.0904 1.34581H5.17597C5.06577 1.34843 4.96094 1.39392 4.88376 1.47261C4.80657 1.55131 4.76311 1.657 4.76262 1.76722V4.44897C4.76262 4.61074 4.69836 4.76588 4.58397 4.88027C4.46958 4.99465 4.31444 5.05892 4.15267 5.05892C3.9909 5.05892 3.83576 4.99465 3.72138 4.88027C3.60699 4.76588 3.54273 4.61074 3.54273 4.44897V1.76722C3.54326 1.33209 3.71635 0.914923 4.02404 0.607233C4.33173 0.299544 4.7489 0.126449 5.18403 0.125916H16.3586C16.7938 0.126449 17.2109 0.299544 17.5186 0.607233C17.8263 0.914923 17.9994 1.33209 18 1.76722ZM7.91821 7.81627L6.13172 6.03987C6.01728 5.92543 5.86206 5.86114 5.70022 5.86114C5.53838 5.86114 5.38316 5.92543 5.26872 6.03987C5.15428 6.15431 5.08999 6.30952 5.08999 6.47137C5.08999 6.63321 5.15428 6.78843 5.26872 6.90287L5.97243 7.60052H0.604905C0.444474 7.60052 0.290614 7.66426 0.177173 7.7777C0.0637309 7.89114 0 8.045 0 8.20543C0 8.36586 0.0637309 8.51972 0.177173 8.63316C0.290614 8.7466 0.444474 8.81033 0.604905 8.81033H6.04905L5.26267 9.59469C5.20482 9.65176 5.15876 9.71966 5.12715 9.79452C5.09553 9.86938 5.07897 9.94973 5.07841 10.031C5.07785 10.1122 5.0933 10.1928 5.12388 10.2681C5.15445 10.3434 5.19956 10.4119 5.25662 10.4698C5.31369 10.5276 5.38159 10.5737 5.45644 10.6053C5.5313 10.6369 5.61166 10.6535 5.69292 10.6541C5.77418 10.6546 5.85475 10.6392 5.93004 10.6086C6.00533 10.578 6.07386 10.5329 6.13172 10.4758L7.91619 8.69137C7.97473 8.63494 8.0213 8.56729 8.05311 8.49246C8.08491 8.41763 8.10131 8.33715 8.10131 8.25584C8.10131 8.17453 8.08491 8.09405 8.05311 8.01922C8.0213 7.94439 7.97473 7.87673 7.91619 7.82031L7.91821 7.81627Z" fill="#D9D9D9"/>
</svg>