<svg width="18" height="19" viewBox="0 0 18 19" fill="none" xmlns="http://www.w3.org/2000/svg">
<path d="M9 2.8917C10.3084 2.8917 11.5873 3.27967 12.6752 4.00656C13.763 4.73344 14.6109 5.76659 15.1116 6.97535C15.6123 8.18411 15.7433 9.5142 15.4881 10.7974C15.2328 12.0806 14.6028 13.2593 13.6776 14.1845C12.7525 15.1096 11.5738 15.7397 10.2906 15.9949C9.00734 16.2502 7.67725 16.1192 6.46849 15.6185C5.25973 15.1178 4.22658 14.2699 3.49969 13.1821C2.77281 12.0942 2.38484 10.8152 2.38484 9.50687C2.38727 7.75316 3.085 6.07198 4.32506 4.83192C5.56511 3.59186 7.2463 2.89413 9 2.8917ZM9 0.506866C7.21997 0.506866 5.47991 1.03471 3.99987 2.02364C2.51983 3.01257 1.36628 4.41818 0.685088 6.06271C0.00389951 7.70725 -0.17433 9.51685 0.172936 11.2627C0.520203 13.0085 1.37737 14.6122 2.63604 15.8708C3.89472 17.1295 5.49836 17.9867 7.24419 18.3339C8.99002 18.6812 10.7996 18.503 12.4442 17.8218C14.0887 17.1406 15.4943 15.987 16.4832 14.507C17.4722 13.027 18 11.2869 18 9.50687C17.9995 7.12007 17.0511 4.83116 15.3634 3.14344C13.6757 1.45572 11.3868 0.507353 9 0.506866ZM12.8212 8.31445H5.17876V10.6993H12.8212V8.31445Z" fill="#D9D9D9"/>
</svg>