<svg width="18" height="20" viewBox="0 0 18 20" fill="none" xmlns="http://www.w3.org/2000/svg">
<path d="M1.6401 0.368408H12.8243C13.2591 0.368941 13.676 0.541904 13.9834 0.849359C14.2909 1.15681 14.4639 1.57366 14.4644 2.00847V4.68817C14.4644 4.84848 14.4007 5.00222 14.2874 5.11557C14.174 5.22893 14.0203 5.29261 13.8599 5.29261C13.6996 5.29261 13.5459 5.22893 13.4325 5.11557C13.3192 5.00222 13.2555 4.84848 13.2555 4.68817V2.00847C13.2552 1.95239 13.2438 1.89692 13.222 1.84529C13.2001 1.79365 13.1681 1.74689 13.128 1.7077C13.0879 1.66852 13.0404 1.63771 12.9883 1.61705C12.9361 1.59639 12.8804 1.5863 12.8243 1.58737H2.90742L8.16608 3.99306C8.35325 4.07834 8.51198 4.21557 8.62342 4.38844C8.73486 4.56131 8.79431 4.76255 8.7947 4.96823V15.3042H12.8243C12.9327 15.2991 13.0349 15.2525 13.1099 15.1741C13.1849 15.0958 13.2269 14.9916 13.2273 14.8831V12.2377C13.2273 12.0774 13.291 11.9236 13.4043 11.8103C13.5177 11.6969 13.6714 11.6332 13.8317 11.6332C13.992 11.6332 14.1458 11.6969 14.2591 11.8103C14.3725 11.9236 14.4362 12.0774 14.4362 12.2377V14.8831C14.4362 15.3132 14.2673 15.7262 13.9658 16.033C13.6643 16.3397 13.2544 16.5158 12.8243 16.5232H8.7947V18.7697C8.79458 18.949 8.74949 19.1253 8.66358 19.2826C8.57767 19.44 8.45367 19.5732 8.30294 19.6703C8.1522 19.7673 7.97954 19.8249 7.80076 19.838C7.62197 19.851 7.44278 19.819 7.27957 19.7449L0.65486 16.7347C0.467609 16.6492 0.308942 16.5116 0.197824 16.3383C0.0867064 16.165 0.0278372 15.9634 0.0282531 15.7576V15.1733C0.00870947 15.0778 -0.000744923 14.9806 4.57777e-05 14.8831V2.00847C0.000578956 1.57366 0.173541 1.15681 0.480996 0.849359C0.788451 0.541904 1.2053 0.368941 1.6401 0.368408ZM17.815 8.05694L16.0319 6.27786C15.9176 6.16323 15.7624 6.09874 15.6004 6.09855C15.4385 6.09836 15.2832 6.16249 15.1686 6.27685C15.0539 6.3912 14.9894 6.5464 14.9893 6.70831C14.9891 6.87022 15.0532 7.02557 15.1676 7.1402L15.8687 7.83934H10.5073C10.347 7.83934 10.1932 7.90302 10.0799 8.01637C9.96653 8.12973 9.90285 8.28347 9.90285 8.44378C9.90285 8.60409 9.96653 8.75783 10.0799 8.87119C10.1932 8.98454 10.347 9.04822 10.5073 9.04822H15.9473L15.1595 9.83199C15.043 9.94768 14.9772 10.1049 14.9767 10.2691C14.9764 10.3504 14.9921 10.4309 15.023 10.5061C15.0538 10.5813 15.0992 10.6497 15.1565 10.7074C15.2138 10.7651 15.2818 10.8109 15.3568 10.8423C15.4318 10.8737 15.5123 10.89 15.5936 10.8902C15.7577 10.8908 15.9154 10.8261 16.0319 10.7104L17.815 8.92734C17.8735 8.87095 17.9201 8.80335 17.9518 8.72857C17.9836 8.6538 18 8.57338 18 8.49214C18 8.41089 17.9836 8.33047 17.9518 8.2557C17.9201 8.18092 17.8735 8.11332 17.815 8.05694Z" fill="#D9D9D9"/>
</svg>