<svg width="17" height="19" viewBox="0 0 17 19" fill="none" xmlns="http://www.w3.org/2000/svg">
<path d="M8.41698 15.3669H0.526345C0.0703671 15.3669 -0.168743 14.8775 0.137096 14.5736L2.05554 12.6718C2.10253 12.6259 2.13999 12.5711 2.16576 12.5107C2.19152 12.4503 2.20509 12.3853 2.20568 12.3196V8.02305C2.2009 7.34598 2.29074 6.67156 2.47259 6.01935C2.65795 5.36874 2.97491 4.63102 3.49947 4.10461C4.68019 2.91833 5.9814 2.39933 6.78214 2.39933V1.69127C6.7784 1.48315 6.83506 1.27842 6.94525 1.10183C7.13061 0.820089 7.50132 0.506836 8.28353 0.506836H8.24646C9.03052 0.506836 9.40679 0.820089 9.58473 1.10183C9.69492 1.27842 9.75158 1.48315 9.74785 1.69127V2.40489C10.5486 2.40489 11.8498 2.92389 13.0305 4.11017C13.5551 4.63658 13.8702 5.37431 14.0574 6.02491C14.2387 6.67533 14.3286 7.34784 14.3243 8.02305V12.3196C14.3249 12.3853 14.3385 12.4503 14.3642 12.5107C14.39 12.5711 14.4275 12.6259 14.4744 12.6718L16.3929 14.5736C16.6987 14.8775 16.4596 15.3669 16.0036 15.3669H8.41698ZM6.21494 16.6533C6.21494 17.6764 7.14173 18.5068 8.26499 18.5068C9.38825 18.5068 10.315 17.6783 10.315 16.6533H6.21494Z" fill="#D9D9D9"/>
</svg>