<svg width="19" height="19" viewBox="0 0 19 19" fill="none" xmlns="http://www.w3.org/2000/svg">
<path d="M12.2395 9.68531C12.2395 10.2887 12.0606 10.8785 11.7254 11.3802C11.3901 11.8819 10.9137 12.273 10.3562 12.5039C9.79874 12.7348 9.18533 12.7952 8.59353 12.6775C8.00174 12.5598 7.45814 12.2692 7.03147 11.8426C6.60481 11.4159 6.31425 10.8723 6.19654 10.2805C6.07882 9.6887 6.13924 9.07528 6.37014 8.51782C6.60105 7.96036 6.99208 7.48389 7.49378 7.14867C7.99548 6.81344 8.58532 6.63451 9.18871 6.63451C9.58954 6.63383 9.98656 6.71228 10.357 6.86535C10.7275 7.01843 11.064 7.24312 11.3475 7.52655C11.6309 7.80998 11.8556 8.14657 12.0087 8.51702C12.1617 8.88746 12.2402 9.28448 12.2395 9.68531ZM8.47271 0.506977C8.15542 0.503131 7.84499 0.599349 7.58549 0.781965C7.44587 0.875083 7.33091 1.00068 7.25049 1.14797C7.17006 1.29527 7.12656 1.45988 7.12372 1.62768C7.12372 2.52009 6.91618 2.80026 6.636 2.94554C6.44934 3.06003 6.22625 3.0996 6.01159 3.05628C5.79694 3.01297 5.60664 2.88998 5.47898 2.71206L5.13136 2.36444C4.93188 2.15842 4.66043 2.03756 4.37385 2.02719C4.11726 2.02284 3.86738 2.1092 3.66822 2.27104C3.13487 2.72381 2.64185 3.22205 2.19471 3.76013C2.02179 3.94851 1.93023 4.19755 1.93995 4.45308C1.94967 4.70861 2.05987 4.94997 2.24659 5.12468C2.87958 5.8355 2.93665 6.95101 1.85746 7.46467C1.74344 7.51863 1.62017 7.55032 1.49427 7.55806C1.07401 7.59956 0 7.79154 0 8.74102V10.2975C0 11.247 1.07401 11.439 1.49427 11.4753C1.61977 11.4855 1.7426 11.5171 1.85746 11.5687C2.93665 12.0876 2.89515 13.2031 2.24659 13.9087C2.05695 14.0806 1.9429 14.3204 1.9293 14.576C1.91569 14.8316 2.00363 15.0822 2.17395 15.2733C2.62189 15.8122 3.11484 16.3121 3.64747 16.7675C3.84662 16.9294 4.09651 17.0157 4.3531 17.0114C4.63967 16.9965 4.91012 16.8742 5.11061 16.6689L5.45823 16.3213C5.58666 16.1442 5.77731 16.0223 5.99191 15.98C6.20651 15.9376 6.42919 15.978 6.61525 16.093C6.89543 16.2383 7.10296 16.5185 7.10296 17.4057C7.10497 17.5744 7.14807 17.74 7.22854 17.8883C7.309 18.0366 7.4244 18.163 7.56473 18.2566C7.83443 18.4314 8.1516 18.5184 8.47271 18.5056H9.87877C10.1951 18.5079 10.5045 18.4138 10.766 18.2359C10.9063 18.1422 11.0217 18.0158 11.1022 17.8675C11.1827 17.7193 11.2258 17.5536 11.2278 17.3849C11.2278 16.4977 11.4353 16.2175 11.7155 16.0723C11.9015 15.9573 12.1242 15.9169 12.3388 15.9592C12.5534 16.0015 12.7441 16.1235 12.8725 16.3006L13.2201 16.6482C13.4206 16.8535 13.6911 16.9758 13.9776 16.9906C14.2369 17.0046 14.4927 16.9255 14.6988 16.7675C15.23 16.3106 15.7229 15.8108 16.1723 15.2733C16.3427 15.0822 16.4306 14.8316 16.417 14.576C16.4034 14.3204 16.2893 14.0806 16.0997 13.9087C15.4667 13.2031 15.4096 12.0876 16.4888 11.5687C16.6037 11.5171 16.7265 11.4855 16.852 11.4753C17.2412 11.439 18.3307 11.2418 18.3307 10.2975V8.74102C18.3307 7.79154 17.2515 7.59956 16.8365 7.55806C16.7106 7.55032 16.5873 7.51863 16.4733 7.46467C15.3941 6.94582 15.4356 5.8355 16.0841 5.12468C16.2738 4.9528 16.3878 4.71294 16.4014 4.45736C16.415 4.20178 16.3271 3.95117 16.1568 3.76013C15.7131 3.22408 15.2254 2.72599 14.6988 2.27104C14.4997 2.1092 14.2498 2.02284 13.9932 2.02719C13.7066 2.03756 13.4352 2.15842 13.2357 2.36444L12.8881 2.71206C12.7604 2.88998 12.5701 3.01297 12.3555 3.05628C12.1408 3.0996 11.9177 3.06003 11.731 2.94554C11.4509 2.80026 11.2433 2.52009 11.2433 1.62768C11.2405 1.45988 11.197 1.29527 11.1166 1.14797C11.0361 1.00068 10.9212 0.875083 10.7816 0.781965C10.5218 0.599985 10.2115 0.503832 9.89434 0.506977H8.47271Z" fill="#D9D9D9"/>
</svg>