<svg width="18" height="19" viewBox="0 0 18 19" fill="none" xmlns="http://www.w3.org/2000/svg">
<path d="M17.97 18.505C18.0472 17.4414 17.9753 16.3722 17.7564 15.3285C17.5291 14.5761 17.1201 13.8913 16.5655 13.3344C16.0108 12.7775 15.3276 12.3657 14.5762 12.1354C13.529 11.9288 12.4591 11.8607 11.3942 11.9329H6.60637C5.54263 11.8592 4.47381 11.9273 3.42803 12.1354C2.67313 12.3627 1.98619 12.7731 1.42842 13.3303C0.870644 13.8874 0.459375 14.5739 0.231266 15.3285C0.0232108 16.3743 -0.0449057 17.4431 0.0287062 18.5069L17.97 18.505ZM13.7696 5.50436C13.7719 6.68578 13.3348 7.82584 12.5432 8.70288C11.7517 9.57992 10.6623 10.1313 9.48679 10.2497C8.31132 10.3682 7.1338 10.0453 6.18316 9.34385C5.23253 8.64239 4.57671 7.61248 4.34322 6.45435C4.10972 5.29623 4.31524 4.09267 4.91982 3.07765C5.52439 2.06264 6.48481 1.30871 7.61436 0.962455C8.7439 0.616199 9.96184 0.702356 11.0314 1.20418C12.1009 1.706 12.9457 2.58762 13.4013 3.67763C13.6433 4.2563 13.7685 4.87712 13.7696 5.50436Z" fill="#D9D9D9"/>
</svg>