<svg width="20" height="21" viewBox="0 0 20 21" fill="none" xmlns="http://www.w3.org/2000/svg">
<path d="M1.28592 9.53832H18.6667M5.14206 7.07546L3.93174 9.50313M8.81524 7.07546L7.59085 9.54535M12.3336 7.07546L11.074 9.51017M14.5924 9.51017L15.8098 7.07546M3.22806 4.06373L4.97318 6.23105M6.85199 3.23339L8.61821 5.42886M10.5252 2.39602L12.3195 4.61963M13.9098 1.63605L15.7042 3.85966M18.6667 19.5516H1.28592V7.00509H18.6667V19.5516ZM1.22259 7.07546L18.2937 3.27561L17.7308 0.784607L0.666687 4.6126L1.22259 7.07546ZM9.93408 16.5751C9.93408 16.5751 11.834 14.8159 12.601 14.1122C13.368 13.4085 13.6565 12.4163 12.601 11.5368C11.3555 10.5094 9.94816 12.1419 9.94816 12.1419C9.94816 12.1419 8.54081 10.5094 7.30234 11.5368C6.24683 12.4163 6.54237 13.4156 7.30234 14.1122L9.93408 16.5751Z" stroke="white" stroke-linecap="round" stroke-linejoin="round"/>
</svg>
