<svg width="21" height="22" viewBox="0 0 21 22" fill="none" xmlns="http://www.w3.org/2000/svg">
<path d="M20.3333 21.5018H1.02137V7.56118H20.3333V21.5018ZM0.950999 7.63937L19.9189 3.41732L19.2935 0.649536L0.333328 4.90286L0.950999 7.63937ZM10.6304 18.1945C10.6304 18.1945 12.7415 16.2398 13.5937 15.458C14.4459 14.6761 14.7665 13.5737 13.5937 12.5964C12.2098 11.4549 10.6461 13.2688 10.6461 13.2688C10.6461 13.2688 9.08235 11.4549 7.70628 12.5964C6.53348 13.5737 6.86187 14.6839 7.70628 15.458L10.6304 18.1945ZM1.02137 10.3759H20.3333H1.02137ZM5.30596 7.63937L3.96116 10.3368L5.30596 7.63937ZM9.38728 7.63937L8.02684 10.3837L9.38728 7.63937ZM13.2966 7.63937L11.897 10.3446L13.2966 7.63937ZM15.8064 10.3446L17.159 7.63937L15.8064 10.3446ZM3.1793 4.29301L5.11832 6.70114L3.1793 4.29301ZM7.20588 3.37041L9.16835 5.80982L7.20588 3.37041ZM11.2872 2.43999L13.2809 4.91067L11.2872 2.43999ZM15.0479 1.59559L17.0417 4.06627L15.0479 1.59559Z" fill="white"/>
</svg>