<svg width="20" height="20" viewBox="0 0 20 20" fill="none" xmlns="http://www.w3.org/2000/svg">
<path d="M19.3333 19.1528L14.4131 14.2326M16.6135 8.82342C16.6135 10.3345 16.1654 11.8116 15.3259 13.068C14.4864 14.3244 13.2932 15.3037 11.8971 15.8819C10.5011 16.4602 8.96494 16.6115 7.48291 16.3167C6.00088 16.0219 4.63955 15.2942 3.57107 14.2258C2.50259 13.1573 1.77494 11.7959 1.48015 10.3139C1.18536 8.83189 1.33665 7.29573 1.91491 5.89969C2.49317 4.50365 3.47242 3.31043 4.72882 2.47093C5.98522 1.63143 7.46235 1.18335 8.97341 1.18335C10.9997 1.18335 12.943 1.98828 14.3758 3.42107C15.8085 4.85386 16.6135 6.79714 16.6135 8.82342Z" stroke="white" stroke-linecap="round" stroke-linejoin="round"/>
</svg>