<svg width="22" height="22" viewBox="0 0 22 22" fill="none" xmlns="http://www.w3.org/2000/svg">
<path d="M19.6667 20.0604L14.7465 15.1402M16.9468 9.73099C16.9468 11.2421 16.4987 12.7192 15.6592 13.9756C14.8197 15.232 13.6265 16.2112 12.2305 16.7895C10.8344 17.3678 9.29825 17.5191 7.81622 17.2243C6.3342 16.9295 4.97287 16.2018 3.90438 15.1333C2.8359 14.0649 2.10826 12.7035 1.81346 11.2215C1.51867 9.73947 1.66997 8.20331 2.24823 6.80727C2.82648 5.41123 3.80573 4.21801 5.06213 3.37851C6.31853 2.53901 7.79566 2.09093 9.30673 2.09093C11.333 2.09093 13.2763 2.89586 14.7091 4.32865C16.1419 5.76144 16.9468 7.70472 16.9468 9.73099Z" stroke="white" stroke-width="3" stroke-linecap="round" stroke-linejoin="round"/>
</svg>