<svg width="36" height="37" viewBox="0 0 36 37" fill="none" xmlns="http://www.w3.org/2000/svg">
<path d="M23.6193 26.1863C22.1247 24.7041 20.105 23.8724 18 23.8724C15.895 23.8724 13.8753 24.7041 12.3807 26.1863L12.5668 26.3141H12.596C12.6884 26.3749 12.7797 26.4332 12.8697 26.4892C12.9144 26.5226 12.962 26.5519 13.012 26.5768C13.1762 26.6789 13.3477 26.7738 13.5192 26.8614C13.589 26.9015 13.6609 26.938 13.7344 26.9709C13.833 27.0219 13.9351 27.0657 14.0373 27.1132L14.3037 27.2263C14.3949 27.2664 14.4898 27.3029 14.5846 27.3357L14.862 27.4379C15.2768 27.5804 15.7011 27.6938 16.1318 27.7773L16.42 27.8283C16.5331 27.8502 16.6499 27.8648 16.763 27.8794C16.8761 27.894 16.9199 27.9013 16.9966 27.905H17.1826C17.2885 27.905 17.3943 27.9232 17.5038 27.9269H17.5658C17.7117 27.9269 17.8577 27.9269 18.0037 27.9269C18.1496 27.9269 18.2956 27.9269 18.4415 27.9269H18.5035C18.613 27.9269 18.7188 27.9269 18.8247 27.905H19.0107C19.0874 27.905 19.1676 27.905 19.2443 27.8794C19.3209 27.8539 19.4742 27.8502 19.5873 27.8283L19.8755 27.7773C20.3062 27.6938 20.7305 27.5804 21.1453 27.4379L21.4227 27.3357C21.5175 27.3029 21.6124 27.2664 21.7036 27.2263L21.97 27.1132C22.0722 27.0657 22.1743 27.0219 22.2729 26.9709C22.3464 26.938 22.4183 26.9015 22.4881 26.8614C22.6596 26.7738 22.8311 26.6789 22.9953 26.5768C23.0453 26.5519 23.0929 26.5226 23.1376 26.4892C23.2301 26.4332 23.3213 26.3749 23.4113 26.3141H23.4405L23.6266 26.1863H23.6193ZM18 8.51839C16.1221 8.51704 14.2839 9.05948 12.7076 10.0802C11.1312 11.1009 9.88419 12.5562 9.11705 14.2703C8.34991 15.9844 8.0955 17.884 8.38457 19.7395C8.67364 21.5951 9.49381 23.3273 10.746 24.7268C11.6923 23.763 12.8211 22.9974 14.0666 22.4748C15.3121 21.9522 16.6493 21.683 18 21.683C19.3507 21.683 20.6879 21.9522 21.9334 22.4748C23.1789 22.9974 24.3077 23.763 25.254 24.7268C26.5062 23.3273 27.3264 21.5951 27.6154 19.7395C27.9045 17.884 27.6501 15.9844 26.883 14.2703C26.1158 12.5562 24.8688 11.1009 23.2924 10.0802C21.7161 9.05948 19.8779 8.51704 18 8.51839ZM18 19.3447C17.1997 19.3447 16.4173 19.1073 15.7518 18.6627C15.0864 18.218 14.5677 17.586 14.2614 16.8466C13.9551 16.1072 13.875 15.2936 14.0311 14.5086C14.1873 13.7236 14.5727 13.0026 15.1386 12.4366C15.7045 11.8707 16.4256 11.4853 17.2105 11.3292C17.9955 11.173 18.8092 11.2532 19.5486 11.5594C20.288 11.8657 20.92 12.3844 21.3646 13.0499C21.8093 13.7153 22.0466 14.4977 22.0466 15.298C22.0457 16.371 21.619 17.3997 20.8603 18.1584C20.1017 18.917 19.0729 19.3437 18 19.3447ZM18 13.4408C17.6327 13.4408 17.2736 13.5497 16.9681 13.7538C16.6627 13.9578 16.4247 14.2479 16.2841 14.5873C16.1435 14.9267 16.1067 15.3001 16.1784 15.6604C16.2501 16.0207 16.427 16.3516 16.6867 16.6113C16.9464 16.8711 17.2774 17.048 17.6377 17.1196C17.9979 17.1913 18.3714 17.1545 18.7108 17.0139C19.0501 16.8734 19.3402 16.6353 19.5443 16.3299C19.7484 16.0245 19.8573 15.6654 19.8573 15.298C19.8573 14.8055 19.6616 14.333 19.3133 13.9847C18.965 13.6364 18.4926 13.4408 18 13.4408ZM18 8.51839C16.1221 8.51704 14.2839 9.05948 12.7076 10.0802C11.1312 11.1009 9.88419 12.5562 9.11705 14.2703C8.34991 15.9844 8.0955 17.884 8.38457 19.7395C8.67364 21.5951 9.49381 23.3273 10.746 24.7268C11.6923 23.763 12.8211 22.9974 14.0666 22.4748C15.3121 21.9522 16.6493 21.683 18 21.683C19.3507 21.683 20.6879 21.9522 21.9334 22.4748C23.1789 22.9974 24.3077 23.763 25.254 24.7268C26.5062 23.3273 27.3264 21.5951 27.6154 19.7395C27.9045 17.884 27.6501 15.9844 26.883 14.2703C26.1158 12.5562 24.8688 11.1009 23.2924 10.0802C21.7161 9.05948 19.8779 8.51704 18 8.51839ZM18 19.3447C17.1997 19.3447 16.4173 19.1073 15.7518 18.6627C15.0864 18.218 14.5677 17.586 14.2614 16.8466C13.9551 16.1072 13.875 15.2936 14.0311 14.5086C14.1873 13.7236 14.5727 13.0026 15.1386 12.4366C15.7045 11.8707 16.4256 11.4853 17.2105 11.3292C17.9955 11.173 18.8092 11.2532 19.5486 11.5594C20.288 11.8657 20.92 12.3844 21.3646 13.0499C21.8093 13.7153 22.0466 14.4977 22.0466 15.298C22.0457 16.371 21.619 17.3997 20.8603 18.1584C20.1017 18.917 19.0729 19.3437 18 19.3447ZM18 23.8729C16.9571 23.8693 15.9238 24.0718 14.9595 24.4688C13.9951 24.8658 13.1187 25.4495 12.3807 26.1863L12.5668 26.3141H12.596C12.6884 26.3749 12.7797 26.4332 12.8697 26.4892C12.9144 26.5226 12.962 26.5519 13.012 26.5768C13.1762 26.6789 13.3477 26.7738 13.5192 26.8614C13.589 26.9015 13.6609 26.938 13.7344 26.9709C13.833 27.0219 13.9351 27.0657 14.0373 27.1132L14.3037 27.2263C14.3949 27.2664 14.4898 27.3029 14.5846 27.3357L14.862 27.4379C15.2768 27.5804 15.7011 27.6938 16.1318 27.7773L16.42 27.8283C16.5331 27.8502 16.6499 27.8648 16.763 27.8794C16.8761 27.894 16.9199 27.9013 16.9966 27.905H17.1826C17.2885 27.905 17.3943 27.9232 17.5038 27.9269H17.5658C17.7117 27.9269 17.8577 27.9269 18.0037 27.9269C18.1496 27.9269 18.2956 27.9269 18.4415 27.9269H18.5035C18.613 27.9269 18.7188 27.9269 18.8247 27.905H19.0107C19.0874 27.905 19.1676 27.905 19.2443 27.8794C19.3209 27.8539 19.4742 27.8502 19.5873 27.8283L19.8755 27.7773C20.3062 27.6938 20.7305 27.5804 21.1453 27.4379L21.4227 27.3357C21.5175 27.3029 21.6124 27.2664 21.7036 27.2263L21.97 27.1132C22.0722 27.0657 22.1743 27.0219 22.2729 26.9709C22.3464 26.938 22.4183 26.9015 22.4881 26.8614C22.6596 26.7738 22.8311 26.6789 22.9953 26.5768C23.0453 26.5519 23.0929 26.5226 23.1376 26.4892C23.2301 26.4332 23.3213 26.3749 23.4113 26.3141H23.4405L23.6266 26.1863C22.8877 25.4487 22.0101 24.8645 21.0445 24.4674C20.0788 24.0704 19.0441 23.8683 18 23.8729ZM18 13.4408C17.6327 13.4408 17.2736 13.5497 16.9681 13.7538C16.6627 13.9578 16.4247 14.2479 16.2841 14.5873C16.1435 14.9267 16.1067 15.3001 16.1784 15.6604C16.2501 16.0207 16.427 16.3516 16.6867 16.6113C16.9464 16.8711 17.2774 17.048 17.6377 17.1196C17.9979 17.1913 18.3714 17.1545 18.7108 17.0139C19.0501 16.8734 19.3402 16.6353 19.5443 16.3299C19.7484 16.0245 19.8573 15.6654 19.8573 15.298C19.8573 14.8055 19.6616 14.333 19.3133 13.9847C18.965 13.6364 18.4926 13.4408 18 13.4408ZM18 0.25C14.4399 0.25 10.9598 1.30568 7.99974 3.28355C5.03966 5.26141 2.73255 8.07263 1.37018 11.3617C0.00779905 14.6508 -0.348661 18.27 0.345873 21.7616C1.04041 25.2533 2.75474 28.4606 5.27208 30.9779C7.78943 33.4953 10.9967 35.2096 14.4884 35.9041C17.98 36.5987 21.5992 36.2422 24.8883 34.8798C28.1774 33.5174 30.9886 31.2103 32.9665 28.2503C34.9443 25.2902 36 21.8101 36 18.25C35.999 13.4764 34.1023 8.89859 30.7269 5.52314C27.3514 2.1477 22.7736 0.250967 18 0.25ZM26.6588 26.4381C26.429 26.6862 26.1845 26.9234 25.9291 27.1679C23.7465 29.1141 20.9243 30.1897 18 30.1897C15.0757 30.1897 12.2535 29.1141 10.071 27.1679C9.81553 26.9417 9.57106 26.7045 9.34118 26.4381C7.73991 24.7459 6.66959 22.6216 6.26248 20.3277C5.85538 18.0339 6.12934 15.671 7.05051 13.5311C7.97167 11.3912 9.49967 9.56817 11.4456 8.28724C13.3916 7.00632 15.6703 6.32367 18 6.32367C20.3297 6.32367 22.6084 7.00632 24.5544 8.28724C26.5003 9.56817 28.0283 11.3912 28.9495 13.5311C29.8707 15.671 30.1446 18.0339 29.7375 20.3277C29.3304 22.6216 28.2601 24.7459 26.6588 26.4381ZM18 8.51839C16.1221 8.51704 14.2839 9.05948 12.7076 10.0802C11.1312 11.1009 9.88419 12.5562 9.11705 14.2703C8.34991 15.9844 8.0955 17.884 8.38457 19.7395C8.67364 21.5951 9.49381 23.3273 10.746 24.7268C11.6923 23.763 12.8211 22.9974 14.0666 22.4748C15.3121 21.9522 16.6493 21.683 18 21.683C19.3507 21.683 20.6879 21.9522 21.9334 22.4748C23.1789 22.9974 24.3077 23.763 25.254 24.7268C26.5062 23.3273 27.3264 21.5951 27.6154 19.7395C27.9045 17.884 27.6501 15.9844 26.883 14.2703C26.1158 12.5562 24.8688 11.1009 23.2924 10.0802C21.7161 9.05948 19.8779 8.51704 18 8.51839ZM18 19.3447C17.1997 19.3447 16.4173 19.1073 15.7518 18.6627C15.0864 18.218 14.5677 17.586 14.2614 16.8466C13.9551 16.1072 13.875 15.2936 14.0311 14.5086C14.1873 13.7236 14.5727 13.0026 15.1386 12.4366C15.7045 11.8707 16.4256 11.4853 17.2105 11.3292C17.9955 11.173 18.8092 11.2532 19.5486 11.5594C20.288 11.8657 20.92 12.3844 21.3646 13.0499C21.8093 13.7153 22.0466 14.4977 22.0466 15.298C22.0457 16.371 21.619 17.3997 20.8603 18.1584C20.1017 18.917 19.0729 19.3437 18 19.3447ZM18 23.8729C16.9571 23.8693 15.9238 24.0718 14.9595 24.4688C13.9951 24.8658 13.1187 25.4495 12.3807 26.1863L12.5668 26.3141H12.596C12.6884 26.3749 12.7797 26.4332 12.8697 26.4892C12.9144 26.5226 12.962 26.5519 13.012 26.5768C13.1762 26.6789 13.3477 26.7738 13.5192 26.8614C13.589 26.9015 13.6609 26.938 13.7344 26.9709C13.833 27.0219 13.9351 27.0657 14.0373 27.1132L14.3037 27.2263C14.3949 27.2664 14.4898 27.3029 14.5846 27.3357L14.862 27.4379C15.2768 27.5804 15.7011 27.6938 16.1318 27.7773L16.42 27.8283C16.5331 27.8502 16.6499 27.8648 16.763 27.8794C16.8761 27.894 16.9199 27.9013 16.9966 27.905H17.1826C17.2885 27.905 17.3943 27.9232 17.5038 27.9269H17.5658C17.7117 27.9269 17.8577 27.9269 18.0037 27.9269C18.1496 27.9269 18.2956 27.9269 18.4415 27.9269H18.5035C18.613 27.9269 18.7188 27.9269 18.8247 27.905H19.0107C19.0874 27.905 19.1676 27.905 19.2443 27.8794C19.3209 27.8539 19.4742 27.8502 19.5873 27.8283L19.8755 27.7773C20.3062 27.6938 20.7305 27.5804 21.1453 27.4379L21.4227 27.3357C21.5175 27.3029 21.6124 27.2664 21.7036 27.2263L21.97 27.1132C22.0722 27.0657 22.1743 27.0219 22.2729 26.9709C22.3464 26.938 22.4183 26.9015 22.4881 26.8614C22.6596 26.7738 22.8311 26.6789 22.9953 26.5768C23.0453 26.5519 23.0929 26.5226 23.1376 26.4892C23.2301 26.4332 23.3213 26.3749 23.4113 26.3141H23.4405L23.6266 26.1863C22.8877 25.4487 22.0101 24.8645 21.0445 24.4674C20.0788 24.0704 19.0441 23.8683 18 23.8729ZM18 13.4408C17.6327 13.4408 17.2736 13.5497 16.9681 13.7538C16.6627 13.9578 16.4247 14.2479 16.2841 14.5873C16.1435 14.9267 16.1067 15.3001 16.1784 15.6604C16.2501 16.0207 16.427 16.3516 16.6867 16.6113C16.9464 16.8711 17.2774 17.048 17.6377 17.1196C17.9979 17.1913 18.3714 17.1545 18.7108 17.0139C19.0501 16.8734 19.3402 16.6353 19.5443 16.3299C19.7484 16.0245 19.8573 15.6654 19.8573 15.298C19.8573 14.8055 19.6616 14.333 19.3133 13.9847C18.965 13.6364 18.4926 13.4408 18 13.4408Z" fill="#84DB84"/>
</svg>