<svg width="36" height="37" viewBox="0 0 36 37" fill="none" xmlns="http://www.w3.org/2000/svg">
<path d="M18 0.25C14.4399 0.25 10.9598 1.30568 7.99974 3.28355C5.03966 5.26141 2.73255 8.07263 1.37018 11.3617C0.00779903 14.6508 -0.348661 18.27 0.345873 21.7616C1.04041 25.2533 2.75474 28.4606 5.27208 30.9779C7.78943 33.4953 10.9967 35.2096 14.4884 35.9041C17.98 36.5987 21.5992 36.2422 24.8883 34.8798C28.1774 33.5174 30.9886 31.2103 32.9665 28.2503C34.9443 25.2902 36 21.8101 36 18.25C36.0005 15.8861 35.5352 13.5452 34.6308 11.3611C33.7264 9.17705 32.4005 7.19256 30.729 5.52101C29.0574 3.84946 27.0729 2.52361 24.8889 1.61919C22.7048 0.714778 20.3639 0.249521 18 0.25ZM29.2495 11.8681L16.3434 26.2301C16.1391 26.4589 15.8545 26.6002 15.5487 26.6246C15.243 26.6491 14.9395 26.5548 14.7014 26.3615L6.88912 20.0307C6.64283 19.8313 6.48582 19.5423 6.45263 19.2271C6.41944 18.912 6.51279 18.5966 6.71215 18.3503C6.91151 18.104 7.20054 17.947 7.51566 17.9139C7.83078 17.8807 8.14617 17.974 8.39247 18.1734L15.3254 23.789L27.4871 10.2699C27.6991 10.0342 27.9959 9.89241 28.3124 9.87565C28.4691 9.86735 28.6259 9.88999 28.7739 9.94229C28.9219 9.99459 29.0581 10.0755 29.1747 10.1805C29.2914 10.2854 29.3863 10.4123 29.4539 10.5539C29.5216 10.6955 29.5607 10.849 29.569 11.0058C29.5773 11.1625 29.5546 11.3193 29.5023 11.4672C29.45 11.6152 29.3691 11.7514 29.2641 11.8681H29.2495Z" fill="#84DB84"/>
</svg>