<svg width="36" height="37" viewBox="0 0 36 37" fill="none" xmlns="http://www.w3.org/2000/svg">
<path d="M18.0037 9.08046L8.78841 25.0375H27.2189L18.0037 9.08046ZM16.8508 14.6074C16.8508 14.3017 16.9723 14.0084 17.1885 13.7923C17.4047 13.5761 17.6979 13.4546 18.0037 13.4546C18.3094 13.4546 18.6026 13.5761 18.8188 13.7923C19.035 14.0084 19.1565 14.3017 19.1565 14.6074V19.2479C19.1565 19.5536 19.035 19.8468 18.8188 20.063C18.6026 20.2792 18.3094 20.4007 18.0037 20.4007C17.6979 20.4007 17.4047 20.2792 17.1885 20.063C16.9723 19.8468 16.8508 19.5536 16.8508 19.2479V14.6074ZM18.0037 23.5746C17.7582 23.5753 17.518 23.5032 17.3135 23.3673C17.1091 23.2315 16.9495 23.038 16.8551 22.8114C16.7607 22.5848 16.7356 22.3353 16.783 22.0945C16.8305 21.8536 16.9483 21.6323 17.1216 21.4584C17.295 21.2846 17.516 21.1661 17.7567 21.1179C17.9974 21.0698 18.247 21.0941 18.4738 21.1879C18.7007 21.2817 18.8946 21.4407 19.0311 21.6447C19.1675 21.8488 19.2404 22.0887 19.2404 22.3342C19.2404 22.6625 19.1102 22.9775 18.8784 23.21C18.6465 23.4425 18.332 23.5736 18.0037 23.5746ZM18.0037 0.5C14.4433 0.499279 10.9627 1.55444 8.00202 3.53203C5.04137 5.50961 2.7337 8.32079 1.37087 11.61C0.00804496 14.8992 -0.348722 18.5187 0.345695 22.0107C1.04011 25.5027 2.75452 28.7104 5.27208 31.2279C7.78965 33.7455 10.9973 35.4599 14.4893 36.1543C17.9813 36.8487 21.6008 36.492 24.89 35.1291C28.1792 33.7663 30.9904 31.4586 32.968 28.498C34.9456 25.5373 36.0007 22.0567 36 18.4963C36 13.7234 34.104 9.14598 30.729 5.77101C27.354 2.39604 22.7766 0.5 18.0037 0.5ZM30.5971 26.9893C30.4832 27.1873 30.3189 27.3517 30.1209 27.4658C29.9229 27.5798 29.6983 27.6394 29.4698 27.6386H6.5375C6.3092 27.6383 6.08499 27.578 5.88735 27.4638C5.6897 27.3495 5.52556 27.1853 5.41138 26.9876C5.2972 26.7899 5.23699 26.5657 5.23678 26.3374C5.23658 26.1091 5.29639 25.8848 5.41022 25.6869L16.8764 5.82996C16.99 5.63133 17.1541 5.46625 17.3521 5.35144C17.55 5.23664 17.7748 5.17617 18.0037 5.17617C18.2325 5.17617 18.4573 5.23664 18.6552 5.35144C18.8532 5.46625 19.0173 5.63133 19.1309 5.82996L30.5971 25.6905C30.7118 25.8877 30.7722 26.1118 30.7722 26.3399C30.7722 26.568 30.7118 26.7921 30.5971 26.9893Z" fill="#EFD583"/>
</svg>