<svg width="24" height="24" viewBox="0 0 24 24" fill="none" xmlns="http://www.w3.org/2000/svg">
<rect width="24" height="24" rx="12" fill="#2D2E32"/>
<mask id="mask0_1662_2615" style="mask-type:alpha" maskUnits="userSpaceOnUse" x="4" y="4" width="16" height="16">
<rect x="4" y="4" width="16" height="16" fill="#D9D9D9"/>
</mask>
<g mask="url(#mask0_1662_2615)">
<path d="M12 14.6666C12.8333 14.6666 13.5417 14.375 14.125 13.7916C14.7083 13.2083 15 12.5 15 11.6666C15 10.8333 14.7083 10.125 14.125 9.54163C13.5417 8.95829 12.8333 8.66663 12 8.66663C11.1667 8.66663 10.4583 8.95829 9.875 9.54163C9.29166 10.125 9 10.8333 9 11.6666C9 12.5 9.29166 13.2083 9.875 13.7916C10.4583 14.375 11.1667 14.6666 12 14.6666ZM12 13.4666C11.5 13.4666 11.075 13.2916 10.725 12.9416C10.375 12.5916 10.2 12.1666 10.2 11.6666C10.2 11.1666 10.375 10.7416 10.725 10.3916C11.075 10.0416 11.5 9.86663 12 9.86663C12.5 9.86663 12.925 10.0416 13.275 10.3916C13.625 10.7416 13.8 11.1666 13.8 11.6666C13.8 12.1666 13.625 12.5916 13.275 12.9416C12.925 13.2916 12.5 13.4666 12 13.4666ZM12 16.6666C10.3778 16.6666 8.9 16.2138 7.56666 15.3083C6.23333 14.4027 5.26666 13.1888 4.66666 11.6666C5.26666 10.1444 6.23333 8.93052 7.56666 8.02496C8.9 7.1194 10.3778 6.66663 12 6.66663C13.6222 6.66663 15.1 7.1194 16.4333 8.02496C17.7667 8.93052 18.7333 10.1444 19.3333 11.6666C18.7333 13.1888 17.7667 14.4027 16.4333 15.3083C15.1 16.2138 13.6222 16.6666 12 16.6666ZM12 15.3333C13.2556 15.3333 14.4083 15.0027 15.4583 14.3416C16.5083 13.6805 17.3111 12.7888 17.8667 11.6666C17.3111 10.5444 16.5083 9.65274 15.4583 8.99163C14.4083 8.33051 13.2556 7.99996 12 7.99996C10.7444 7.99996 9.59166 8.33051 8.54166 8.99163C7.49166 9.65274 6.68889 10.5444 6.13333 11.6666C6.68889 12.7888 7.49166 13.6805 8.54166 14.3416C9.59166 15.0027 10.7444 15.3333 12 15.3333Z" fill="#B2BFFF"/>
</g>
</svg>
