<svg width="17" height="16" viewBox="0 0 17 16" fill="none" xmlns="http://www.w3.org/2000/svg">
<path d="M8.5 0.5C7.01664 0.5 5.56659 0.939867 4.33323 1.76398C3.09986 2.58809 2.13856 3.75943 1.57091 5.12987C1.00325 6.50032 0.854725 8.00832 1.14411 9.46317C1.4335 10.918 2.14781 12.2544 3.1967 13.3033C4.2456 14.3522 5.58197 15.0665 7.03683 15.3559C8.49168 15.6453 9.99968 15.4968 11.3701 14.9291C12.7406 14.3614 13.9119 13.4001 14.736 12.1668C15.5601 10.9334 16 9.48336 16 8C16 6.01087 15.2098 4.10322 13.8033 2.6967C12.3968 1.29018 10.4891 0.5 8.5 0.5ZM8.5 0.5C6.37894 0.5 4.66063 3.85796 4.66063 8C4.66063 12.142 6.37894 15.5 8.5 15.5C10.6211 15.5 12.3394 12.142 12.3394 8C12.3394 3.85796 10.6211 0.5 8.5 0.5ZM8.5 0.5V15.4952M1 8.10724H16M2.99476 2.90467C2.99476 2.90467 4.70353 4.36082 8.5 4.36082C12.2965 4.36082 13.9075 2.80219 13.9075 2.80219M13.9552 13.3575C13.9552 13.3575 12.3465 11.7965 8.55005 11.7965C4.75358 11.7965 3.04481 13.2431 3.04481 13.2431" stroke="white" stroke-opacity="0.5" stroke-miterlimit="10"/>
</svg>
