<svg width="16" height="16" viewBox="0 0 16 16" fill="none" xmlns="http://www.w3.org/2000/svg">
<path d="M8 0.5C6.51664 0.5 5.06659 0.939867 3.83323 1.76398C2.59986 2.58809 1.63856 3.75943 1.07091 5.12987C0.503249 6.50032 0.354725 8.00832 0.644114 9.46317C0.933503 10.918 1.64781 12.2544 2.6967 13.3033C3.7456 14.3522 5.08197 15.0665 6.53683 15.3559C7.99168 15.6453 9.49968 15.4968 10.8701 14.9291C12.2406 14.3614 13.4119 13.4001 14.236 12.1668C15.0601 10.9334 15.5 9.48336 15.5 8C15.5 6.01087 14.7098 4.10322 13.3033 2.6967C11.8968 1.29018 9.98913 0.5 8 0.5ZM8 0.5C5.87893 0.5 4.16063 3.85796 4.16063 8C4.16063 12.142 5.87893 15.5 8 15.5C10.1211 15.5 11.8394 12.142 11.8394 8C11.8394 3.85796 10.1211 0.5 8 0.5ZM8 0.5V15.4952M0.500004 8.10724H15.5M2.49476 2.90467C2.49476 2.90467 4.20353 4.36082 8 4.36082C11.7965 4.36082 13.4075 2.80219 13.4075 2.80219M13.4552 13.3575C13.4552 13.3575 11.8465 11.7965 8.05005 11.7965C4.25358 11.7965 2.54481 13.2431 2.54481 13.2431" stroke="black" stroke-miterlimit="10"/>
</svg>
