<svg width="16" height="16" viewBox="0 0 16 16" fill="none" xmlns="http://www.w3.org/2000/svg">
<path d="M3.89964 1V2.68688M6.09802 1V2.68688M8.26158 1V2.68688M10.4904 1V2.68688M12.6845 1V2.68688M1.45312 4.81779H14.5477M12.3166 15H3.68416C3.09245 15 2.52498 14.7649 2.10658 14.3465C1.68818 13.9281 1.45312 13.3607 1.45312 12.769V4.13433C1.4537 3.543 1.68901 2.97609 2.10735 2.55816C2.52569 2.14023 3.09283 1.90547 3.68416 1.90547H12.3166C12.9079 1.90547 13.4751 2.14023 13.8934 2.55816C14.3118 2.97609 14.5471 3.543 14.5477 4.13433V12.769C14.5477 13.3607 14.3126 13.9281 13.8942 14.3465C13.4758 14.7649 12.9083 15 12.3166 15ZM5.57564 6.9291H4.55263V8.01741H5.57564V6.9291ZM8.51189 6.9291H7.48888V8.01741H8.51189V6.9291ZM11.4503 6.9291H10.4273V8.01741H11.4503V6.9291ZM5.57346 9.4801H4.55045V10.5684H5.57346V9.4801ZM8.50972 9.4801H7.48671V10.5684H8.50972V9.4801ZM11.4481 9.4801H10.4251V10.5684H11.4481V9.4801ZM5.57128 12.0311H4.54827V13.1194H5.57128V12.0311ZM8.50754 12.0311H7.48453V13.1194H8.50754V12.0311ZM11.446 12.0311H10.423V13.1194H11.446V12.0311Z" stroke="black" stroke-linecap="round" stroke-linejoin="round"/>
</svg>
