<svg width="17" height="16" viewBox="0 0 17 16" fill="none" xmlns="http://www.w3.org/2000/svg">
<path d="M8.96533 0.5C7.48197 0.5 6.03193 0.939867 4.79856 1.76398C3.56519 2.58809 2.6039 3.75943 2.03624 5.12987C1.46858 6.50032 1.32006 8.00832 1.60945 9.46317C1.89883 10.918 2.61314 12.2544 3.66203 13.3033C4.71093 14.3522 6.0473 15.0665 7.50216 15.3559C8.95701 15.6453 10.465 15.4968 11.8355 14.9291C13.2059 14.3614 14.3772 13.4001 15.2014 12.1668C16.0255 10.9334 16.4653 9.48336 16.4653 8C16.4653 6.01087 15.6752 4.10322 14.2686 2.6967C12.8621 1.29018 10.9545 0.5 8.96533 0.5ZM8.96533 0.5C6.84427 0.5 5.12596 3.85796 5.12596 8C5.12596 12.142 6.84427 15.5 8.96533 15.5C11.0864 15.5 12.8047 12.142 12.8047 8C12.8047 3.85796 11.0864 0.5 8.96533 0.5ZM8.96533 0.5V15.4952M1.46534 8.10724H16.4653M3.46009 2.90467C3.46009 2.90467 5.16886 4.36082 8.96533 4.36082C12.7618 4.36082 14.3729 2.80219 14.3729 2.80219M14.4205 13.3575C14.4205 13.3575 12.8119 11.7965 9.01538 11.7965C5.21891 11.7965 3.51014 13.2431 3.51014 13.2431" stroke="black" stroke-miterlimit="10"/>
</svg>
