<svg width="17" height="16" viewBox="0 0 17 16" fill="none" xmlns="http://www.w3.org/2000/svg">
<path d="M8.48242 0.5C6.99906 0.5 5.54902 0.939867 4.31565 1.76398C3.08228 2.58809 2.12099 3.75943 1.55333 5.12987C0.985671 6.50032 0.837147 8.00832 1.12654 9.46317C1.41592 10.918 2.13023 12.2544 3.17912 13.3033C4.22802 14.3522 5.56439 15.0665 7.01925 15.3559C8.4741 15.6453 9.9821 15.4968 11.3525 14.9291C12.723 14.3614 13.8943 13.4001 14.7184 12.1668C15.5426 10.9334 15.9824 9.48336 15.9824 8C15.9824 6.01087 15.1922 4.10322 13.7857 2.6967C12.3792 1.29018 10.4715 0.5 8.48242 0.5ZM8.48242 0.5C6.36136 0.5 4.64305 3.85796 4.64305 8C4.64305 12.142 6.36136 15.5 8.48242 15.5C10.6035 15.5 12.3218 12.142 12.3218 8C12.3218 3.85796 10.6035 0.5 8.48242 0.5ZM8.48242 0.5V15.4952M0.982425 8.10724H15.9824M2.97718 2.90467C2.97718 2.90467 4.68595 4.36082 8.48242 4.36082C12.2789 4.36082 13.89 2.80219 13.89 2.80219M13.9376 13.3575C13.9376 13.3575 12.3289 11.7965 8.53247 11.7965C4.736 11.7965 3.02723 13.2431 3.02723 13.2431" stroke="white" stroke-opacity="0.5" stroke-miterlimit="10"/>
</svg>
