<svg width="29" height="12" viewBox="0 0 29 12" fill="none" xmlns="http://www.w3.org/2000/svg">
<path d="M16.0156 5.31034H25.8647C26.5398 5.28808 27.1798 5.00425 27.6495 4.51881C28.1192 4.03337 28.3818 3.38434 28.3818 2.70886C28.3818 2.03339 28.1192 1.38436 27.6495 0.898921C27.1798 0.413481 26.5398 0.129648 25.8647 0.107393H16.0156C15.6667 0.095894 15.3191 0.154672 14.9935 0.280232C14.6678 0.405792 14.3707 0.595569 14.1199 0.838274C13.869 1.08098 13.6696 1.37165 13.5333 1.69301C13.3971 2.01436 13.3269 2.35983 13.3269 2.70886C13.3269 3.0579 13.3971 3.40337 13.5333 3.72472C13.6696 4.04608 13.869 4.33675 14.1199 4.57946C14.3707 4.82216 14.6678 5.01194 14.9935 5.1375C15.3191 5.26306 15.6667 5.32184 16.0156 5.31034ZM3.05767 11.9348H14.3792C15.0543 11.9126 15.6944 11.6287 16.1641 11.1433C16.6338 10.6579 16.8964 10.0088 16.8964 9.33336C16.8964 8.65788 16.6338 8.00886 16.1641 7.52342C15.6944 7.03798 15.0543 6.75414 14.3792 6.73189H3.05767C2.38255 6.75414 1.74253 7.03798 1.27283 7.52342C0.80313 8.00886 0.540538 8.65788 0.540538 9.33336C0.540538 10.0088 0.80313 10.6579 1.27283 11.1433C1.74253 11.6287 2.38255 11.9126 3.05767 11.9348ZM1.98655 5.21707H3.1368V1.02024H4.62335V0H0.5V1.01741H1.98655V5.21707ZM6.12404 5.21707H7.27428V1.21524H7.28841L8.61388 5.21425H9.49846L10.8663 1.21524V5.21425H12.0307V0H10.2841L9.0915 3.40268H9.06323L7.86212 0.0113043H6.12404V5.21707ZM22.9001 8.19866C22.7465 7.87845 22.5188 7.59943 22.2359 7.38473C21.9393 7.16844 21.6018 7.0146 21.2439 6.93255C20.8548 6.83482 20.4553 6.78452 20.0541 6.78276H18.3302V11.997H20.2096C20.5865 12.0001 20.9614 11.9429 21.3202 11.8274C21.66 11.7247 21.9774 11.5588 22.2557 11.3385C22.5308 11.1177 22.7538 10.8388 22.9085 10.5218C23.0748 10.1686 23.1561 9.78148 23.1459 9.3913C23.1565 8.98016 23.0724 8.5721 22.9001 8.19866ZM21.8092 10.1007C21.7225 10.2978 21.5885 10.4706 21.4192 10.6037C21.2439 10.7323 21.0436 10.8227 20.8313 10.8694C20.5897 10.9264 20.342 10.9539 20.0937 10.9513H19.4946V7.85952H20.1728C20.405 7.85799 20.6362 7.88939 20.8596 7.95279C21.0633 8.01276 21.2546 8.10845 21.4248 8.2354C21.5851 8.35666 21.7164 8.51209 21.8092 8.69041C21.9097 8.89715 21.9601 9.1247 21.9561 9.35456C21.9615 9.61095 21.9114 9.86547 21.8092 10.1007ZM28.3856 10.0837C28.3348 9.94138 28.256 9.81069 28.1539 9.69935C28.0543 9.58333 27.9334 9.48741 27.7978 9.41673C27.6505 9.34248 27.492 9.29284 27.3286 9.26977V9.25564C27.5817 9.18288 27.8084 9.03863 27.9815 8.8402C28.1511 8.63263 28.2395 8.37047 28.2302 8.10257C28.2398 7.86275 28.1799 7.62526 28.0578 7.41864C27.9483 7.24871 27.7964 7.11036 27.6169 7.01733C27.4201 6.92522 27.2087 6.86786 26.9923 6.84776C26.7676 6.8161 26.541 6.80004 26.3141 6.79972H24.3697V11.9998H26.5034C26.7368 12.0021 26.9698 11.9804 27.1986 11.9348C27.4216 11.8907 27.6349 11.8074 27.8289 11.689C28.0146 11.5809 28.1717 11.4296 28.2867 11.2481C28.4116 11.0403 28.4734 10.8007 28.4648 10.5585C28.4654 10.3967 28.4377 10.236 28.3828 10.0837H28.3856ZM25.5199 7.76343H26.2971C26.3919 7.76525 26.4864 7.7747 26.5797 7.7917C26.6661 7.807 26.7499 7.8346 26.8284 7.87365C26.9019 7.91291 26.9642 7.97031 27.0093 8.0404C27.0621 8.12479 27.0868 8.22371 27.0799 8.32301C27.0823 8.41543 27.0609 8.5069 27.0178 8.58867C26.9777 8.65918 26.9215 8.71922 26.8538 8.76389C26.782 8.81016 26.7026 8.84362 26.6193 8.86281C26.5337 8.88074 26.4467 8.8902 26.3593 8.89107H25.5199V7.76343ZM27.2439 10.7083C27.2004 10.7854 27.1394 10.8512 27.0658 10.9005C26.9905 10.9506 26.9059 10.9851 26.8171 11.0022C26.7247 11.025 26.6297 11.0355 26.5345 11.0333H25.5199V9.85478H26.3875C26.4821 9.85581 26.5766 9.86337 26.6701 9.87739C26.774 9.89167 26.8757 9.91922 26.9725 9.95935C27.0631 9.99644 27.1427 10.0557 27.2043 10.1317C27.2658 10.2129 27.2977 10.3126 27.2947 10.4144C27.306 10.5152 27.2884 10.6171 27.2439 10.7083Z" fill="white" fill-opacity="0.5"/>
</svg>
