<svg width="28" height="12" viewBox="0 0 28 12" fill="none" xmlns="http://www.w3.org/2000/svg">
<path d="M15.5327 5.31034H25.3818C26.0569 5.28808 26.6969 5.00425 27.1666 4.51881C27.6363 4.03337 27.8989 3.38434 27.8989 2.70886C27.8989 2.03339 27.6363 1.38436 27.1666 0.898921C26.6969 0.413481 26.0569 0.129648 25.3818 0.107393H15.5327C15.1838 0.095894 14.8362 0.154672 14.5105 0.280232C14.1849 0.405792 13.8878 0.595569 13.637 0.838274C13.3861 1.08098 13.1867 1.37165 13.0504 1.69301C12.9142 2.01436 12.844 2.35983 12.844 2.70886C12.844 3.0579 12.9142 3.40337 13.0504 3.72472C13.1867 4.04608 13.3861 4.33675 13.637 4.57946C13.8878 4.82216 14.1849 5.01194 14.5105 5.1375C14.8362 5.26306 15.1838 5.32184 15.5327 5.31034ZM2.57476 11.9348H13.8963C14.5714 11.9126 15.2114 11.6287 15.6811 11.1433C16.1509 10.6579 16.4134 10.0088 16.4134 9.33336C16.4134 8.65788 16.1509 8.00886 15.6811 7.52342C15.2114 7.03798 14.5714 6.75414 13.8963 6.73189H2.57476C1.89964 6.75414 1.25962 7.03798 0.789921 7.52342C0.32022 8.00886 0.0576277 8.65788 0.0576277 9.33336C0.0576277 10.0088 0.32022 10.6579 0.789921 11.1433C1.25962 11.6287 1.89964 11.9126 2.57476 11.9348ZM1.50364 5.21707H2.65389V1.02024H4.14044V0H0.0170898V1.01741H1.50364V5.21707ZM5.64113 5.21707H6.79137V1.21524H6.8055L8.13097 5.21425H9.01555L10.3834 1.21524V5.21425H11.5478V0H9.80122L8.60859 3.40268H8.58032L7.37921 0.0113043H5.64113V5.21707ZM22.4172 8.19866C22.2636 7.87845 22.0359 7.59943 21.753 7.38473C21.4564 7.16844 21.1189 7.0146 20.761 6.93255C20.3719 6.83482 19.9724 6.78452 19.5712 6.78276H17.8473V11.997H19.7267C20.1036 12.0001 20.4785 11.9429 20.8373 11.8274C21.1771 11.7247 21.4944 11.5588 21.7728 11.3385C22.0479 11.1177 22.2709 10.8388 22.4256 10.5218C22.5919 10.1686 22.6732 9.78148 22.663 9.3913C22.6736 8.98016 22.5895 8.5721 22.4172 8.19866ZM21.3263 10.1007C21.2395 10.2978 21.1056 10.4706 20.9363 10.6037C20.761 10.7323 20.5607 10.8227 20.3484 10.8694C20.1067 10.9264 19.8591 10.9539 19.6108 10.9513H19.0116V7.85952H19.6899C19.9221 7.85799 20.1533 7.88939 20.3767 7.95279C20.5803 8.01276 20.7717 8.10845 20.9419 8.2354C21.1022 8.35666 21.2335 8.51209 21.3263 8.69041C21.4268 8.89715 21.4772 9.1247 21.4732 9.35456C21.4786 9.61095 21.4285 9.86547 21.3263 10.1007ZM27.9027 10.0837C27.8519 9.94138 27.7731 9.81069 27.671 9.69935C27.5713 9.58333 27.4505 9.48741 27.3149 9.41673C27.1676 9.34248 27.0091 9.29284 26.8457 9.26977V9.25564C27.0988 9.18288 27.3255 9.03863 27.4986 8.8402C27.6682 8.63263 27.7566 8.37047 27.7473 8.10257C27.7569 7.86275 27.697 7.62527 27.5749 7.41864C27.4654 7.24871 27.3134 7.11036 27.134 7.01733C26.9371 6.92522 26.7258 6.86786 26.5094 6.84776C26.2847 6.8161 26.0581 6.80004 25.8311 6.79972H23.8868V11.9998H26.0205C26.2539 12.0021 26.4868 11.9804 26.7157 11.9348C26.9387 11.8907 27.152 11.8074 27.346 11.689C27.5317 11.5809 27.6888 11.4296 27.8038 11.2481C27.9287 11.0403 27.9905 10.8007 27.9818 10.5585C27.9825 10.3967 27.9547 10.236 27.8999 10.0837H27.9027ZM25.037 7.76343H25.8142C25.909 7.76525 26.0035 7.7747 26.0968 7.7917C26.1832 7.807 26.2669 7.8346 26.3455 7.87365C26.419 7.91291 26.4813 7.97031 26.5264 8.0404C26.5791 8.12479 26.6039 8.22371 26.597 8.32301C26.5994 8.41543 26.578 8.5069 26.5349 8.58867C26.4948 8.65918 26.4386 8.71922 26.3709 8.76389C26.299 8.81016 26.2197 8.84362 26.1364 8.86281C26.0508 8.88074 25.9638 8.8902 25.8764 8.89107H25.037V7.76343ZM26.761 10.7083C26.7175 10.7854 26.6565 10.8512 26.5829 10.9005C26.5076 10.9506 26.423 10.9851 26.3342 11.0022C26.2418 11.025 26.1468 11.0355 26.0516 11.0333H25.037V9.85478H25.9046C25.9992 9.85581 26.0937 9.86337 26.1872 9.87739C26.2911 9.89167 26.3928 9.91922 26.4896 9.95935C26.5801 9.99644 26.6598 10.0557 26.7214 10.1317C26.7829 10.2129 26.8148 10.3126 26.8118 10.4144C26.8231 10.5152 26.8055 10.6171 26.761 10.7083Z" fill="black"/>
</svg>
