<svg width="36" height="36" viewBox="0 0 36 36" fill="none" xmlns="http://www.w3.org/2000/svg">
<rect width="36" height="36" rx="6" fill="#1E2034"/>
<path d="M4.75923 22.7737V29.9606C8.2965 29.9606 11.8338 29.9798 15.3703 29.9428C18.6047 29.9096 21.9343 30.1416 25.1517 29.8542C28.0381 29.5971 30.6992 28.4889 31.9389 25.7215C32.8528 23.6817 32.6437 20.7598 31.7335 18.7592C30.0432 15.0439 26.1461 13.8774 22.4692 15.4968C21.101 16.0989 19.8096 16.9551 18.4946 17.6725C16.2591 18.8937 13.4901 20.6882 11.3048 18.327C9.76297 16.6611 10.0792 14.2394 12.3901 13.6136C14.5717 13.0226 17.1626 13.2959 19.404 13.2664C23.2619 13.2162 27.1198 13.2272 30.9785 13.2213L30.9674 6.03449C27.0578 6.0404 23.1482 6.05148 19.2385 6.03449C15.6695 6.02046 11.8892 5.74932 8.48932 6.99047C2.86869 9.04132 1.37414 16.9374 7.09598 20.0078C11.5065 22.3755 15.0903 20.2057 18.8359 18.1349C21.0434 16.9145 24.5755 14.8104 26.0878 18.2155C27.1501 20.6039 24.9005 22.2123 22.8068 22.5543C20.3216 22.9592 17.6864 22.7656 15.1745 22.776C11.703 22.7885 8.23149 22.7737 4.75923 22.7737ZM7.77122 29.0667H5.76618V27.8846H7.77122V29.0667ZM7.77122 24.8475C6.96817 24.8475 6.56701 24.8475 5.76396 24.8475V23.6603H7.77196C7.77418 24.1353 7.77418 24.371 7.77418 24.8423L7.77122 24.8475ZM11.7784 29.0667H9.77627C9.77627 28.5946 9.77627 28.3582 9.77627 27.8846H11.7821C11.7828 28.3552 11.7821 28.5909 11.7813 29.063L11.7784 29.0667ZM11.7872 24.8556H9.77923C9.77923 24.3835 9.77923 24.1471 9.77923 23.6736H11.788C11.7917 24.1412 11.7909 24.3769 11.7902 24.849L11.7872 24.8556ZM15.7375 29.0814C14.9662 29.0814 14.5761 29.0814 13.7819 29.077C13.7819 28.6094 13.7819 28.3744 13.7819 27.9038C14.5702 27.9134 14.9529 27.9171 15.7087 27.923C15.7249 28.3833 15.7338 28.6153 15.7404 29.0748L15.7375 29.0814ZM15.6067 24.877C14.8967 24.8734 14.537 24.8711 13.7723 24.8652C13.7723 24.3909 13.7723 24.1538 13.7657 23.6795C14.5192 23.6795 14.8694 23.6795 15.5587 23.6795C15.5816 24.153 15.5912 24.3924 15.6097 24.8704L15.6067 24.877ZM19.5045 29.0807C18.7657 29.0807 18.3963 29.0807 17.642 29.0807C17.6191 28.63 17.6058 28.401 17.5763 27.9371C18.3151 27.9422 18.6845 27.9452 19.4188 27.9533C19.4602 28.4054 19.4772 28.6323 19.5075 29.074L19.5045 29.0807ZM19.1248 24.8903L17.3569 24.8837C17.3185 24.402 17.2985 24.1604 17.2586 23.678H18.994C19.0502 24.1538 19.0768 24.3991 19.1277 24.8837L19.1248 24.8903ZM23.3247 29.0534C22.5594 29.0755 22.1708 29.0726 21.3943 29.0763C21.3411 28.6293 21.3116 28.3981 21.2465 27.9289C21.9691 27.9038 22.3296 27.895 23.0359 27.8499C23.16 28.3345 23.2191 28.5776 23.3277 29.0467L23.3247 29.0534ZM22.2587 24.668C21.692 24.747 21.3995 24.7758 20.8025 24.8298C20.7287 24.3451 20.6947 24.1028 20.6267 23.6278C21.1882 23.5879 21.4608 23.5642 21.9868 23.4985C22.091 23.9432 22.1464 24.1774 22.2616 24.6613L22.2587 24.668ZM27.0061 28.5798C26.4196 28.7536 25.8176 28.8701 25.2086 28.9278C25.0409 28.438 24.9515 28.1831 24.7713 27.6718C25.3298 27.5979 25.88 27.4707 26.4143 27.2921C26.6588 27.8093 26.78 28.0715 27.009 28.5732L27.0061 28.5798ZM24.9079 24.0156C24.4957 24.1869 24.069 24.3209 23.6328 24.416C23.4703 23.9388 23.3934 23.7083 23.256 23.282C23.6535 23.2003 24.0435 23.0854 24.4218 22.9385C24.5991 23.3256 24.6996 23.545 24.9109 24.009L24.9079 24.0156ZM30.2796 26.6353C29.823 27.1746 29.5408 27.4184 28.8338 27.8262L28.03 26.5969C28.6432 26.2416 28.8922 26.0251 29.2992 25.5456L30.2796 26.6353ZM26.7992 22.8011C26.5754 23.0846 26.2996 23.3228 25.9866 23.5029C25.6984 23.0737 25.5625 22.8727 25.3217 22.5218C25.572 22.3686 25.794 22.1731 25.9777 21.9441C26.2806 22.2411 26.4461 22.4169 26.8022 22.7944L26.7992 22.8011ZM31.585 23.4852C31.4882 24.1811 31.4114 24.5195 31.158 25.1578L30.0942 24.2299C30.3276 23.664 30.4015 23.3611 30.4909 22.7471C30.943 23.0449 31.1669 23.1963 31.588 23.4785L31.585 23.4852ZM27.6887 20.8891C27.637 21.2383 27.5311 21.5773 27.3747 21.8939C26.992 21.5762 26.811 21.4299 26.4934 21.1832C26.6376 20.9239 26.7406 20.6437 26.7985 20.3528C27.1184 20.5249 27.3008 20.6365 27.6917 20.8825L27.6887 20.8891ZM31.5303 20.2597C31.6271 20.7192 31.6581 20.9792 31.6781 21.6597C31.2474 21.4794 31.0206 21.3789 30.5699 21.178C30.547 20.601 30.516 20.3757 30.4222 19.9738C30.8662 20.089 31.0923 20.1489 31.5296 20.253L31.5303 20.2597ZM27.6887 19.2328C27.7354 19.4724 27.7569 19.7163 27.753 19.9605C27.3644 19.8075 27.1826 19.7388 26.8664 19.6458C26.8715 19.4498 26.8576 19.2539 26.8251 19.0606C27.1161 19.1015 27.4048 19.1572 27.6902 19.2276L27.6887 19.2328ZM30.7236 18.3573C30.8988 18.649 31.0579 18.9502 31.2001 19.2594C30.7642 19.201 30.5433 19.1655 30.1097 19.0909C29.9785 18.8187 29.8305 18.5549 29.6664 18.3012C30.0838 18.3226 30.2958 18.3352 30.7251 18.3507L30.7236 18.3573ZM27.2513 18.0958C27.3564 18.2634 27.4445 18.4411 27.5143 18.6262C27.159 18.5694 26.9928 18.5457 26.6958 18.5176C26.6465 18.3534 26.5789 18.1953 26.4941 18.0463C26.7763 18.0515 26.9292 18.0625 27.2587 18.0891L27.2513 18.0958ZM29.2401 16.3781C29.573 16.632 29.8622 16.9384 30.0964 17.2854C29.6952 17.3363 29.4994 17.3592 29.1204 17.3962C28.9224 17.1028 28.679 16.8427 28.3994 16.6256C28.7296 16.5281 28.8981 16.4793 29.2453 16.3715L29.2401 16.3781ZM26.5362 17.1324C26.6873 17.2681 26.8212 17.4216 26.9351 17.5897C26.6396 17.6178 26.5022 17.6318 26.2496 17.6636C26.1609 17.5387 26.062 17.4213 25.954 17.3127C26.1727 17.2329 26.2902 17.1982 26.5414 17.1258L26.5362 17.1324ZM27.2255 15.3328C27.5779 15.4325 27.9191 15.5684 28.2435 15.7384C27.9591 15.8817 27.8217 15.9474 27.5601 16.0715C27.2881 15.9235 27.0014 15.8042 26.7046 15.7154C26.9071 15.5662 27.0112 15.4909 27.2307 15.3261L27.2255 15.3328ZM25.612 16.4941C25.7736 16.5696 25.9281 16.6594 26.0737 16.7623C25.875 16.8583 25.7782 16.9041 25.6098 16.998C25.5042 16.9074 25.3929 16.8238 25.2766 16.7475C25.4066 16.6419 25.4731 16.5924 25.6172 16.4875L25.612 16.4941ZM24.8481 15.0705C25.2775 15.0275 25.7104 15.0349 26.138 15.0927C25.9829 15.2545 25.9105 15.3291 25.7745 15.4694C25.3936 15.3956 25.0052 15.3673 24.6176 15.3852L24.8481 15.0705ZM24.1647 16.0413C24.4642 16.0695 24.7589 16.1358 25.0417 16.2385C24.9478 16.3427 24.905 16.3922 24.8245 16.4904C24.5729 16.3822 24.308 16.3077 24.0369 16.2688C24.0886 16.172 24.1137 16.1247 24.1699 16.0346L24.1647 16.0413ZM22.566 15.5655C22.9006 15.4311 23.2468 15.3277 23.6003 15.2567C23.5486 15.3586 23.5264 15.4044 23.4799 15.4916C23.1612 15.5378 22.8476 15.6137 22.5431 15.7184C22.5564 15.6556 22.5616 15.6261 22.5712 15.5588L22.566 15.5655ZM22.4921 16.0494C22.7405 16.0065 22.9922 15.9867 23.2442 15.9903C23.2204 16.0516 23.2001 16.1142 23.1836 16.1779C22.9504 16.1621 22.7163 16.1673 22.484 16.1934C22.4929 16.1247 22.4943 16.0959 22.4988 16.0427L22.4921 16.0494ZM21.5605 16.0634C21.7526 15.9615 21.8435 15.9157 22.0038 15.8329C22.009 15.8817 22.0104 15.9024 22.0134 15.943C21.8487 16.0206 21.7563 16.0664 21.5635 16.1646C21.5701 16.1247 21.5701 16.1011 21.5701 16.0568L21.5605 16.0634ZM21.548 16.3996C21.7408 16.3079 21.8383 16.2636 22.0215 16.192C22.0215 16.2348 22.0215 16.2585 22.0282 16.3131C21.839 16.3826 21.7408 16.4254 21.548 16.5141C21.5531 16.4564 21.5531 16.4343 21.5546 16.3929L21.548 16.3996ZM20.5181 16.6419C20.7331 16.5185 20.8424 16.4564 21.053 16.3397C21.0582 16.3781 21.0589 16.3959 21.0611 16.4284C20.8565 16.5399 20.7523 16.5976 20.5514 16.7121C20.5462 16.6788 20.5403 16.6655 20.5248 16.6352L20.5181 16.6419ZM20.6275 16.8872C20.7915 16.7926 20.8823 16.7394 21.0707 16.6419C21.0707 16.6796 21.0759 16.7002 21.0818 16.7468C20.903 16.8413 20.8181 16.8894 20.6688 16.9751C20.6555 16.9285 20.6481 16.9115 20.6341 16.8805L20.6275 16.8872ZM19.6552 17.1346C19.8495 17.0283 19.9448 16.9765 20.0926 16.8916L20.148 16.9514C20.0002 17.0386 19.9079 17.0925 19.7151 17.2019L19.6552 17.1346ZM19.851 17.3607C20.0438 17.2447 20.1369 17.1878 20.2795 17.0984L20.3415 17.1723C20.199 17.2602 20.1051 17.3201 19.9116 17.4331L19.851 17.3607ZM18.7125 17.6511C18.864 17.5646 18.9608 17.5122 19.1558 17.405C19.1831 17.4383 19.195 17.4538 19.2179 17.4826C19.0221 17.5934 18.9223 17.6481 18.7746 17.7367C18.7583 17.6983 18.7458 17.6813 18.7192 17.6444L18.7125 17.6511ZM18.9046 17.9237L19.3545 17.657L19.4114 17.7308C19.2127 17.8476 19.1159 17.9052 18.9571 17.9961C18.9416 17.9584 18.9312 17.9451 18.9105 17.917L18.9046 17.9237ZM17.9124 18.0951C18.1134 17.9887 18.2146 17.9347 18.3727 17.8468C18.4 17.8838 18.4126 17.9008 18.4355 17.9333C18.2767 18.0197 18.1747 18.0736 17.9715 18.1815L17.9124 18.0951ZM18.0957 18.3751C18.304 18.262 18.4082 18.2044 18.5655 18.118C18.5855 18.1446 18.5951 18.1579 18.6158 18.1844C18.4577 18.2701 18.3513 18.3278 18.1407 18.4438C18.1289 18.4098 18.12 18.3965 18.1023 18.3684L18.0957 18.3751ZM17.0082 18.5627L17.4175 18.3492C17.4404 18.3869 17.4507 18.4053 17.4714 18.4401L17.0636 18.6543C17.0429 18.6211 17.0318 18.6026 17.0082 18.5627ZM17.184 18.8715C17.3 18.8058 17.3909 18.7555 17.5852 18.6499L17.6251 18.7238C17.4293 18.8324 17.3377 18.8833 17.2232 18.9491C17.2113 18.9203 17.2003 18.9048 17.184 18.8737V18.8715ZM16.3425 18.9025C16.5435 18.8035 16.638 18.7548 16.7614 18.692C16.7843 18.7289 16.7954 18.7467 16.8168 18.7829C16.6875 18.8486 16.59 18.8988 16.3832 19.0045C16.3677 18.9646 16.3595 18.9454 16.3425 18.9048V18.9025ZM16.477 19.2549L16.9424 19.0045L16.9853 19.085L16.5117 19.3525C16.4984 19.3155 16.491 19.2963 16.477 19.2572V19.2549ZM15.2949 19.3717C15.473 19.3067 15.5845 19.2579 15.8032 19.1582C15.8158 19.2025 15.8217 19.2239 15.8328 19.2682C15.6111 19.3709 15.5011 19.4204 15.3311 19.4847C15.3178 19.4411 15.3105 19.4189 15.2964 19.3754L15.2949 19.3717ZM15.4316 19.7891C15.5794 19.7233 15.6865 19.6687 15.9081 19.5549C15.92 19.5999 15.9259 19.6236 15.9384 19.6701C15.7168 19.7913 15.6119 19.8482 15.4767 19.9161C15.459 19.8659 15.4501 19.8408 15.4331 19.7913L15.4316 19.7891ZM14.4779 19.6059C14.6522 19.5682 14.7364 19.5453 14.8997 19.498C14.9219 19.546 14.9329 19.5719 14.9551 19.6162C14.7918 19.6709 14.7039 19.6997 14.5207 19.7492C14.5015 19.6952 14.4926 19.6709 14.4779 19.6059ZM14.6411 20.0942C14.848 20.0203 14.9448 19.9863 15.1073 19.9228L15.173 20.055C15.0098 20.1237 14.9093 20.1651 14.6921 20.2456C14.6699 20.1806 14.6596 20.1511 14.6397 20.0942H14.6411ZM13.5536 19.7041C13.7121 19.7089 13.8707 19.7012 14.0279 19.6812C14.0331 19.7551 14.0361 19.7928 14.0427 19.8585C13.8775 19.8908 13.71 19.9109 13.5418 19.9184C13.5448 19.8401 13.547 19.7987 13.5522 19.7041H13.5536ZM13.5204 20.389C13.7134 20.3588 13.9044 20.3169 14.0922 20.2634C14.1003 20.3299 14.1048 20.3646 14.1136 20.4414C13.9164 20.5049 13.7156 20.5567 13.5123 20.5966C13.5174 20.5057 13.5174 20.4658 13.5174 20.389H13.5204ZM12.4965 19.4382C12.6789 19.5176 12.8671 19.5833 13.0594 19.6347C13.0461 19.7381 13.0387 19.7824 13.0225 19.8755C12.8075 19.8327 12.5956 19.7762 12.3879 19.7063C12.4304 19.6198 12.4662 19.5302 12.495 19.4382H12.4965ZM11.9719 20.4096C12.2759 20.4388 12.5813 20.4492 12.8865 20.4407C12.8614 20.5338 12.8481 20.5825 12.8208 20.6911C12.4724 20.7238 12.1222 20.7346 11.7725 20.7236C11.8552 20.587 11.8921 20.5256 11.9719 20.4096ZM11.375 18.808C11.5441 18.9374 11.7235 19.0528 11.9113 19.153C11.8424 19.2529 11.7666 19.348 11.6845 19.4374C11.4431 19.3352 11.2104 19.2136 10.9886 19.0739C11.157 18.9616 11.2354 18.9085 11.375 18.808ZM9.66471 19.9036C10.0547 20.0543 10.4575 20.1696 10.8682 20.2479C10.7204 20.3867 10.6466 20.4591 10.4877 20.6128C10.0028 20.5499 9.52511 20.4405 9.06113 20.2863C9.30641 20.126 9.42757 20.0491 9.66176 19.9036H9.66471ZM10.4441 17.8889C10.5852 18.0848 10.7458 18.2658 10.9236 18.429C10.7167 18.5102 10.5978 18.5531 10.34 18.6447C10.0903 18.4642 9.86525 18.2519 9.67062 18.0131C10.0105 17.9636 10.1693 17.9399 10.4412 17.8889H10.4441ZM7.13661 18.3654C7.51054 18.7452 7.93756 19.0687 8.40436 19.3259C8.07412 19.4478 7.90494 19.512 7.56806 19.648C6.96004 19.3007 6.65124 19.0695 6.10306 18.5398C6.50496 18.4644 6.71551 18.4297 7.13366 18.3654H7.13661ZM9.76149 16.404C9.80213 16.6798 9.88906 16.9468 10.0186 17.1937C9.70165 17.1937 9.51253 17.1886 9.10324 17.176C8.93479 16.8797 8.8254 16.5536 8.78114 16.2156C9.22366 16.3028 9.42757 16.3419 9.75854 16.404H9.76149ZM5.49357 15.5736C5.61621 16.1942 5.75067 16.5022 6.0942 17.0689C5.60661 17.0563 5.36429 17.0519 4.91215 17.0519C4.52282 16.3996 4.3721 16.0457 4.23912 15.3313C4.70603 15.4214 4.96534 15.4717 5.49061 15.5736H5.49357ZM9.94323 14.9213C9.83568 15.1484 9.76772 15.3923 9.74229 15.6423C9.4187 15.5145 9.21628 15.4369 8.77153 15.2692C8.79583 14.9667 8.86659 14.6696 8.98134 14.3886C9.41574 14.6287 9.61596 14.7395 9.94028 14.9213H9.94323ZM5.77726 12.6362C5.6257 13.0931 5.52656 13.5658 5.48175 14.0451C4.96091 13.8493 4.70529 13.7496 4.24503 13.5745C4.29922 13.0305 4.41091 12.4939 4.57822 11.9735C5.02149 12.2218 5.26898 12.357 5.77431 12.6362H5.77726ZM10.8697 13.6491C10.667 13.8194 10.4879 14.0159 10.337 14.2335L9.41057 13.5686C9.58278 13.3041 9.79343 13.0668 10.0356 12.8645C10.4146 13.2228 10.5852 13.3861 10.8667 13.6491H10.8697ZM7.27477 10.2293C6.90853 10.5537 6.59674 10.9349 6.35129 11.3581L5.21505 10.53C5.54528 9.98474 5.74771 9.72839 6.25821 9.24892C6.63351 9.61166 6.84406 9.81482 7.27477 10.2293ZM12.4241 12.8423C11.9527 12.9716 11.7451 13.044 11.4548 13.2058C11.2331 12.8793 11.092 12.685 10.7899 12.2683C11.1452 12.0378 11.3809 11.9373 11.9047 11.76C12.1381 12.2218 12.2475 12.4427 12.4241 12.8423ZM10.1885 8.62243C9.46968 8.83816 9.13649 8.96892 8.55654 9.28734C8.20932 8.82338 8.0394 8.59584 7.74389 8.18582C8.40879 7.8349 8.77818 7.69601 9.56424 7.47068C9.79252 7.9073 9.92181 8.14592 10.1885 8.62243ZM15.1989 12.374C14.6167 12.4316 14.3124 12.4693 13.7428 12.5638C13.6068 12.108 13.5256 11.8679 13.352 11.3818C13.9747 11.2547 14.3072 11.203 14.9558 11.1217C15.06 11.6226 15.1095 11.8753 15.1989 12.374ZM14.2385 7.97157C13.5315 8.01368 12.8149 8.08682 12.1152 8.19764C11.9239 7.71817 11.8308 7.48398 11.6631 7.04366C12.4305 6.93807 13.2028 6.87149 13.977 6.84419C14.0797 7.2786 14.1328 7.5054 14.2422 7.97157H14.2385ZM18.3114 12.3304C17.6339 12.3304 17.3074 12.3304 16.6787 12.3252C16.6358 11.8125 16.6137 11.5576 16.5671 11.0552C17.2261 11.0678 17.5637 11.0737 18.2604 11.084C18.2855 11.5753 18.2959 11.825 18.3151 12.3267L18.3114 12.3304ZM18.1171 7.99373L16.2635 7.94571C16.2177 7.48693 16.1955 7.26234 16.1534 6.8272C16.9225 6.83754 17.3037 6.84346 18.0676 6.85675C18.0897 7.29854 18.0979 7.52683 18.1208 7.99004L18.1171 7.99373ZM21.9521 12.3326C21.1741 12.3326 20.7981 12.3289 20.0697 12.3326C20.0638 11.8428 20.0601 11.599 20.0527 11.1136C20.7915 11.1239 21.1682 11.1299 21.9491 11.1431C21.9543 11.613 21.955 11.8516 21.9558 12.3289L21.9521 12.3326ZM21.938 8.09347L20.0017 8.04397C19.9943 7.57706 19.9914 7.34582 19.9855 6.89C20.7567 6.9033 21.1446 6.90994 21.9351 6.92177C21.9395 7.38498 21.9395 7.61991 21.9395 8.08978L21.938 8.09347ZM25.9526 12.3348H23.9438V11.1528H25.9526C25.9548 11.6219 25.9555 11.8583 25.9563 12.3311L25.9526 12.3348ZM25.9459 8.11342H23.9372V6.93137H25.9459C25.9489 7.40049 25.9489 7.6369 25.9496 8.10972L25.9459 8.11342ZM29.973 12.3289H27.9635C27.9635 11.8561 27.9635 11.6197 27.9635 11.1468H29.973C29.9752 11.6182 29.976 11.8524 29.9767 12.3252L29.973 12.3289ZM29.9664 8.10677H27.9569C27.9569 7.63469 27.9569 7.39828 27.9569 6.92472H29.9664C29.9693 7.39458 29.9693 7.62878 29.97 8.10307L29.9664 8.10677Z" fill="white"/>
</svg>
