<svg width="18" height="22" viewBox="0 0 18 22" fill="none" xmlns="http://www.w3.org/2000/svg">
<path d="M9 12C9.59334 12 10.1734 11.824 10.6667 11.4944C11.16 11.1647 11.5446 10.6962 11.7716 10.148C11.9987 9.59986 12.0581 8.99665 11.9424 8.4147C11.8266 7.83276 11.5409 7.29822 11.1213 6.87866C10.7018 6.4591 10.1672 6.17337 9.58527 6.05762C9.00332 5.94186 8.40012 6.0013 7.85194 6.22836C7.30377 6.45543 6.83523 6.83994 6.50558 7.33328C6.17594 7.82663 6 8.40666 6 9C6 9.79565 6.31607 10.5587 6.87868 11.1213C7.44129 11.6839 8.20435 12 9 12ZM9 21C13 17 17 13.41 17 9C17 6.87827 16.1571 4.84343 14.6568 3.34314C13.1566 1.84285 11.1217 1 9 1C6.87827 1 4.84343 1.84285 3.34314 3.34314C1.84285 4.84343 1 6.87827 1 9C1 13.41 5 17 9 21Z" stroke="#FFF" stroke-linecap="round" stroke-linejoin="round"/>
</svg>
