<svg width="18" height="20" viewBox="0 0 18 20" fill="none" xmlns="http://www.w3.org/2000/svg">
<path d="M16.9752 18.9456C17.0394 18.0576 16.9789 17.1649 16.7957 16.2936C16.6064 15.6662 16.2654 15.0951 15.8029 14.6308C15.3403 14.1665 14.7705 13.8233 14.1437 13.6317C13.271 13.459 12.3794 13.402 11.4918 13.4622H6.50689C5.61929 13.4011 4.72751 13.4581 3.85492 13.6317C3.22634 13.8219 2.65445 14.1644 2.19008 14.6288C1.7257 15.0932 1.38319 15.6651 1.19298 16.2936C1.0198 17.1663 0.962817 18.058 1.02349 18.9456M13.4857 5.4864C13.4857 6.37373 13.2226 7.24112 12.7296 7.97891C12.2367 8.71669 11.536 9.29173 10.7162 9.63129C9.89642 9.97086 8.99433 10.0597 8.12406 9.88659C7.25378 9.71349 6.45438 9.2862 5.82694 8.65876C5.19951 8.03133 4.77223 7.23193 4.59913 6.36165C4.42602 5.49137 4.51486 4.58931 4.85442 3.76953C5.19399 2.94975 5.76901 2.24907 6.5068 1.7561C7.24458 1.26313 8.11201 1 8.99933 1C9.5885 1 10.1719 1.11605 10.7162 1.34151C11.2605 1.56697 11.7551 1.89744 12.1717 2.31404C12.5883 2.73064 12.9187 3.22521 13.1442 3.76953C13.3697 4.31384 13.4857 4.89724 13.4857 5.4864Z" stroke="white" stroke-width="1" stroke-linecap="round" stroke-linejoin="round"

/>
</svg>
