<svg width="23" height="23" viewBox="0 0 23 23" fill="none" xmlns="http://www.w3.org/2000/svg">
<path d="M14.3541 11.0143C14.3541 11.6726 14.1589 12.3162 13.7931 12.8636C13.4274 13.4109 12.9075 13.8376 12.2993 14.0895C11.6911 14.3414 11.0218 14.4074 10.3761 14.2789C9.73041 14.1505 9.1373 13.8335 8.67179 13.368C8.20627 12.9024 7.88925 12.3093 7.76082 11.6637C7.63238 11.018 7.6983 10.3487 7.95024 9.74047C8.20217 9.13224 8.62881 8.61238 9.1762 8.24663C9.72358 7.88088 10.3671 7.68566 11.0255 7.68566C11.4628 7.68491 11.896 7.7705 12.3002 7.93751C12.7043 8.10453 13.0716 8.34968 13.3808 8.65892C13.6901 8.96816 13.9352 9.3354 14.1022 9.73958C14.2692 10.1438 14.3548 10.5769 14.3541 11.0143ZM10.2443 1.00012C9.89809 0.995925 9.55938 1.1009 9.27625 1.30015C9.12392 1.40175 8.9985 1.53878 8.91075 1.69949C8.823 1.8602 8.77554 2.0398 8.77243 2.22288C8.77243 3.19656 8.546 3.50224 8.24031 3.66075C8.03664 3.78567 7.79323 3.82884 7.55903 3.78157C7.32483 3.73431 7.11721 3.60013 6.97792 3.40601L6.59864 3.02673C6.381 2.80195 6.08483 2.67009 5.77215 2.65877C5.4922 2.65402 5.21955 2.74825 5.00227 2.92483C4.42035 3.41883 3.88242 3.96243 3.39457 4.54951C3.2059 4.75506 3.10601 5.02677 3.11661 5.30557C3.12721 5.58437 3.24745 5.84771 3.45118 6.03833C4.14181 6.81388 4.20408 8.03097 3.02661 8.5914C2.90221 8.65028 2.76771 8.68486 2.63034 8.6933C2.17181 8.73859 1 8.94804 1 9.98399V11.6823C1 12.7182 2.17181 12.9277 2.63034 12.9673C2.76727 12.9784 2.90129 13.0129 3.02661 13.0692C4.20408 13.6353 4.15879 14.8524 3.45118 15.6223C3.24426 15.8098 3.11983 16.0715 3.10499 16.3503C3.09015 16.6292 3.18609 16.9026 3.37192 17.1111C3.86065 17.6991 4.39849 18.2445 4.97962 18.7414C5.19691 18.918 5.46955 19.0122 5.74951 19.0075C6.06217 18.9913 6.35726 18.8579 6.576 18.6339L6.95528 18.2546C7.0954 18.0614 7.30341 17.9283 7.53756 17.8821C7.7717 17.8359 8.01466 17.88 8.21766 18.0055C8.52335 18.164 8.74979 18.4697 8.74979 19.4377C8.75198 19.6218 8.79901 19.8025 8.8868 19.9643C8.97459 20.126 9.10049 20.264 9.25361 20.3661C9.54786 20.5568 9.89392 20.6517 10.2443 20.6378H11.7784C12.1235 20.6403 12.4611 20.5377 12.7464 20.3435C12.8995 20.2413 13.0254 20.1034 13.1132 19.9416C13.201 19.7798 13.248 19.5991 13.2502 19.4151C13.2502 18.447 13.4766 18.1414 13.7823 17.9829C13.9853 17.8574 14.2283 17.8133 14.4624 17.8595C14.6966 17.9057 14.9046 18.0387 15.0447 18.2319L15.424 18.6112C15.6427 18.8352 15.9378 18.9686 16.2505 18.9848C16.5334 19.0001 16.8125 18.9137 17.0374 18.7414C17.6169 18.2429 18.1547 17.6976 18.6451 17.1111C18.8309 16.9026 18.9268 16.6292 18.912 16.3503C18.8972 16.0715 18.7727 15.8098 18.5658 15.6223C17.8752 14.8524 17.8129 13.6353 18.9904 13.0692C19.1157 13.0129 19.2497 12.9784 19.3866 12.9673C19.8112 12.9277 21 12.7125 21 11.6823V9.98399C21 8.94804 19.8225 8.73859 19.3697 8.6933C19.2323 8.68486 19.0978 8.65028 18.9734 8.5914C17.7959 8.02531 17.8412 6.81388 18.5488 6.03833C18.7557 5.8508 18.8802 5.5891 18.895 5.31024C18.9099 5.03138 18.8139 4.75796 18.6281 4.54951C18.1439 3.96465 17.6119 3.4212 17.0374 2.92483C16.8201 2.74825 16.5474 2.65402 16.2675 2.65877C15.9548 2.67009 15.6586 2.80195 15.441 3.02673L15.0617 3.40601C14.9224 3.60013 14.7148 3.73431 14.4806 3.78157C14.2464 3.82884 14.003 3.78567 13.7993 3.66075C13.4936 3.50224 13.2672 3.19656 13.2672 2.22288C13.2641 2.0398 13.2166 1.8602 13.1289 1.69949C13.0411 1.53878 12.9157 1.40175 12.7634 1.30015C12.4799 1.1016 12.1414 0.99669 11.7954 1.00012H10.2443Z" stroke="white" stroke-miterlimit="10"/>
</svg>
